<svg xmlns="http://www.w3.org/2000/svg" width="350" height="382" fill="none"><rect width="350" height="382" fill="#0E8784" rx="8"/><g fill="#FEFCF7" clip-path="url(#a)"><path d="M118.324 220.98c0 1.2-.52 2.172-1.56 2.916-1.032.736-2.632 1.104-4.8 1.104h-9.696c-.352 0-.612-.072-.78-.216a.77.77 0 0 1-.252-.6c0-.432.208-.728.624-.888l.456-.168c.208-.08.36-.18.456-.3a.755.755 0 0 0 .156-.492v-11.472c0-.2-.052-.36-.156-.48-.096-.128-.248-.232-.456-.312l-.456-.168c-.416-.16-.624-.456-.624-.888 0-.256.084-.456.252-.6.168-.144.428-.216.78-.216h7.596c1.56 0 2.9.208 4.02.624 1.12.416 1.98.996 2.58 1.74.6.744.9 1.616.9 2.616a3.39 3.39 0 0 1-.732 2.148c-.48.616-1.18 1.1-2.1 1.452-.92.352-2.036.528-3.348.528l.54-.492c1.312 0 2.46.176 3.444.528.992.344 1.764.832 2.316 1.464.56.624.84 1.348.84 2.172Zm-8.256-2.988h-3.096v-1.332h2.508c.592 0 1.084-.112 1.476-.336.4-.224.696-.568.888-1.032.2-.472.3-1.068.3-1.788 0-.776-.132-1.44-.396-1.992a2.956 2.956 0 0 0-1.14-1.296c-.488-.304-1.076-.456-1.764-.456h-.348v12.252c0 .488.136.848.408 1.08.272.232.66.348 1.164.348h.612c.448 0 .832-.1 1.152-.3.328-.208.58-.508.756-.9.176-.4.264-.88.264-1.44 0-.88-.248-1.568-.744-2.064-.488-.496-1.168-.744-2.04-.744Zm21.538-.288c0 .56-.152.996-.456 1.308-.304.304-.74.456-1.308.456h-7.116v-1.248h3.204c.44 0 .66-.208.66-.624 0-1.008-.116-1.728-.348-2.16-.232-.432-.54-.648-.924-.648-.28 0-.532.104-.756.312-.224.208-.404.528-.54.96-.128.424-.192.964-.192 1.62 0 1.456.328 2.524.984 3.204.656.672 1.552 1.008 2.688 1.008.528 0 1.008-.06 1.44-.18.432-.12.856-.364 1.272-.732.232-.208.408-.348.528-.42a.677.677 0 0 1 .348-.108c.16 0 .276.08.348.24.08.16.12.356.12.588 0 .712-.244 1.38-.732 2.004-.48.616-1.152 1.112-2.016 1.488-.856.376-1.856.564-3 .564-1.224 0-2.324-.24-3.3-.72-.976-.488-1.748-1.164-2.316-2.028-.568-.872-.852-1.888-.852-3.048 0-1.304.26-2.44.78-3.408a5.457 5.457 0 0 1 2.268-2.256c1-.536 2.204-.804 3.612-.804 1.24 0 2.276.2 3.108.6.832.4 1.456.948 1.872 1.644.416.696.624 1.492.624 2.388Zm6.974-3.108c-.472 0-.824.1-1.056.3a.933.933 0 0 0-.336.72c0 .168.032.328.096.48.064.144.212.276.444.396s.6.224 1.104.312c1.488.248 2.62.58 3.396.996.776.408 1.304.892 1.584 1.452.288.56.432 1.196.432 1.908 0 1.304-.456 2.328-1.368 3.072-.904.736-2.244 1.104-4.02 1.104-.608 0-1.096-.048-1.464-.144a6.607 6.607 0 0 1-.876-.288 1.466 1.466 0 0 0-.588-.144.778.778 0 0 0-.48.144l-.384.288a.798.798 0 0 1-.492.144c-.2 0-.352-.06-.456-.18-.096-.112-.188-.316-.276-.612l-.624-2.124c-.128-.424-.164-.756-.108-.996a.692.692 0 0 1 .456-.516c.256-.096.48-.1.672-.012.192.088.376.264.552.528.368.536.748.98 1.14 1.332.4.352.816.616 1.248.792.44.176.892.264 1.356.264.536 0 .936-.1 1.2-.3a.948.948 0 0 0 .408-.804.885.885 0 0 0-.168-.54c-.104-.152-.324-.288-.66-.408-.328-.128-.828-.252-1.5-.372-1.16-.208-2.084-.504-2.772-.888-.68-.392-1.168-.872-1.464-1.44-.296-.576-.444-1.244-.444-2.004 0-.808.216-1.508.648-2.1.44-.6 1.036-1.064 1.788-1.392.76-.328 1.624-.492 2.592-.492.632 0 1.128.052 1.488.156.368.096.664.196.888.3.232.096.46.144.684.144a.953.953 0 0 0 .54-.144c.152-.104.3-.204.444-.3a.838.838 0 0 1 .504-.156c.176 0 .324.064.444.192s.208.348.264.66l.372 2.052c.072.408.076.716.012.924-.056.2-.2.348-.432.444-.248.104-.468.104-.66 0-.192-.112-.388-.308-.588-.588-.56-.808-1.148-1.368-1.764-1.68-.608-.32-1.2-.48-1.776-.48Zm7.529.396-.384-.156a.944.944 0 0 1-.396-.276.64.64 0 0 1-.132-.408c0-.232.076-.408.228-.528.16-.128.364-.192.612-.192h.66c.152 0 .292-.04.42-.12a2.85 2.85 0 0 0 .516-.432l1.956-1.98c.264-.264.508-.46.732-.588.232-.128.452-.192.66-.192.232 0 .412.076.54.228.136.152.204.372.204.66v9.624c0 .584.1 1.028.3 1.332.2.304.488.456.864.456.304 0 .536-.076.696-.228.168-.152.3-.324.396-.516.104-.2.212-.376.324-.528a.537.537 0 0 1 .456-.228.48.48 0 0 1 .384.168c.096.112.144.304.144.576 0 .68-.196 1.3-.588 1.86-.392.552-.932.992-1.62 1.32-.688.328-1.472.492-2.352.492-1.304 0-2.312-.312-3.024-.936-.712-.632-1.068-1.584-1.068-2.856v-5.772c0-.232-.044-.4-.132-.504-.08-.104-.212-.196-.396-.276Zm3.864.144v-1.704h4.38c.248 0 .444.056.588.168a.518.518 0 0 1 .228.456c0 .304-.148.56-.444.768-.296.208-.784.312-1.464.312h-3.288Zm19.427 15.456c-.32 0-.552-.064-.696-.192-.144-.128-.216-.304-.216-.528 0-.16.04-.3.12-.42.08-.12.212-.22.396-.3l.264-.12a.477.477 0 0 0 .252-.288c.048-.128.072-.352.072-.672v-13.776l1.992-.672a18.3 18.3 0 0 1 1.368-.42c.304-.072.552-.108.744-.108.312 0 .552.076.72.228.176.152.264.372.264.66v14.088c0 .32.024.544.072.672a.477.477 0 0 0 .252.288l.264.12c.184.08.316.18.396.3.08.12.12.26.12.42 0 .224-.072.4-.216.528-.144.128-.376.192-.696.192H169.4Zm1.944-8.856c-.68 1.112-1.452 1.992-2.316 2.64-.856.64-1.836.96-2.94.96-.952 0-1.804-.244-2.556-.732s-1.348-1.16-1.788-2.016c-.432-.864-.648-1.86-.648-2.988 0-1.304.268-2.444.804-3.42.536-.984 1.268-1.748 2.196-2.292.928-.544 1.976-.816 3.144-.816.976 0 1.824.208 2.544.624.72.408 1.344 1.032 1.872 1.872l-1.308.888c-.368-.528-.716-.9-1.044-1.116a1.856 1.856 0 0 0-1.068-.336c-.376 0-.708.136-.996.408-.28.272-.5.708-.66 1.308-.152.592-.228 1.38-.228 2.364 0 .896.08 1.62.24 2.172.168.544.392.944.672 1.2.288.248.612.372.972.372a1.86 1.86 0 0 0 1.212-.444c.368-.304.716-.792 1.044-1.464l.852.816Zm14.277.804v-.156h-.18v-5.544c0-.256-.036-.436-.108-.54a.488.488 0 0 0-.3-.228l-.264-.084a.754.754 0 0 1-.372-.24.68.68 0 0 1-.108-.396c0-.192.052-.344.156-.456.104-.112.3-.224.588-.336l2.664-1.032c.408-.16.736-.276.984-.348.256-.072.504-.108.744-.108.36 0 .632.104.816.312.192.2.288.456.288.768v8.328c0 .32.024.548.072.684.048.128.132.22.252.276l.264.12c.184.08.316.18.396.3.08.12.12.26.12.42 0 .224-.072.4-.216.528-.144.128-.376.192-.696.192h-2.94c-.568 0-1.072-.244-1.512-.732a2.522 2.522 0 0 1-.648-1.728Zm-7.932-1.044v-4.656c0-.256-.036-.436-.108-.54a.488.488 0 0 0-.3-.228l-.264-.084a.754.754 0 0 1-.372-.24.68.68 0 0 1-.108-.396c0-.192.052-.344.156-.456.104-.112.3-.224.588-.336l2.664-1.032a9.724 9.724 0 0 1 1.02-.348c.248-.072.468-.108.66-.108.384 0 .672.104.864.312.192.2.288.456.288.768v6.624c0 .512.116.896.348 1.152.24.256.572.384.996.384.264 0 .54-.052.828-.156a2.33 2.33 0 0 0 .768-.456l.42-.372.72.768-.36.336c-1.128 1.08-2.108 1.836-2.94 2.268-.832.424-1.596.636-2.292.636-1.064 0-1.928-.356-2.592-1.068-.656-.712-.984-1.636-.984-2.772Zm22.627 1.86v-.276l-.384-.012v-7.752c0-.304-.084-.548-.252-.732-.16-.184-.38-.276-.66-.276a.99.99 0 0 0-.552.156.446.446 0 0 0-.228.396v1.308c0 .672-.232 1.192-.696 1.56-.456.368-1.112.552-1.968.552-.728 0-1.272-.152-1.632-.456-.352-.312-.528-.744-.528-1.296 0-.528.24-1.056.72-1.584s1.2-.968 2.16-1.32c.968-.352 2.184-.528 3.648-.528 1.696 0 2.956.312 3.78.936.824.616 1.236 1.46 1.236 2.532v5.736c0 .152.036.28.108.384.08.096.2.144.36.144a.466.466 0 0 0 .324-.108c.088-.072.168-.144.24-.216.056-.056.112-.104.168-.144a.4.4 0 0 1 .216-.06c.136 0 .232.052.288.156.064.096.096.22.096.372 0 .352-.128.724-.384 1.116-.256.384-.64.712-1.152.984-.504.272-1.132.408-1.884.408-.888 0-1.616-.188-2.184-.564-.56-.376-.84-.848-.84-1.416Zm-7.332-.912c0-1.096.496-1.96 1.488-2.592.992-.64 2.384-.96 4.176-.96.472 0 .884.032 1.236.096s.64.156.864.276l-.408 1.044a1.792 1.792 0 0 0-.96-.264c-.392 0-.704.132-.936.396-.224.256-.336.628-.336 1.116 0 .512.112.904.336 1.176.224.264.52.396.888.396.232 0 .448-.052.648-.156.208-.112.364-.24.468-.384l.288.96c-.384.568-.944 1.008-1.68 1.32a5.877 5.877 0 0 1-2.34.468c-1.12 0-2.024-.276-2.712-.828-.68-.552-1.02-1.24-1.02-2.064Zm20.666-14.484v14.52c0 .32.024.548.072.684.048.128.132.22.252.276l.264.12c.184.08.316.18.396.3.08.12.12.26.12.42 0 .224-.072.4-.216.528-.144.128-.376.192-.696.192h-5.472c-.32 0-.552-.064-.696-.192-.144-.128-.216-.304-.216-.528 0-.16.04-.3.12-.42.08-.12.212-.22.396-.3l.264-.12a.477.477 0 0 0 .252-.276c.048-.136.072-.364.072-.684v-11.832c0-.256-.036-.436-.108-.54a.488.488 0 0 0-.3-.228l-.264-.084a.754.754 0 0 1-.372-.24.68.68 0 0 1-.108-.396c0-.192.052-.344.156-.456.104-.112.3-.224.588-.336l2.664-1.032a9.724 9.724 0 0 1 1.02-.348c.248-.072.468-.108.66-.108.384 0 .672.104.864.312.192.2.288.456.288.768Zm8.437 6.192v8.328c0 .32.024.548.072.684.048.128.132.22.252.276l.264.12c.184.08.316.18.396.3.08.12.12.26.12.42 0 .224-.072.4-.216.528-.144.128-.376.192-.696.192h-5.472c-.32 0-.552-.064-.696-.192-.144-.128-.216-.304-.216-.528 0-.16.04-.3.12-.42.08-.12.212-.22.396-.3l.264-.12a.477.477 0 0 0 .252-.276c.048-.136.072-.364.072-.684v-5.64c0-.256-.036-.436-.108-.54a.488.488 0 0 0-.3-.228l-.264-.084a.754.754 0 0 1-.372-.24.68.68 0 0 1-.108-.396c0-.192.052-.344.156-.456.104-.112.3-.224.588-.336l2.664-1.032a9.724 9.724 0 0 1 1.02-.348c.248-.072.468-.108.66-.108.384 0 .672.104.864.312.192.2.288.456.288.768Zm-2.808-2.136c-.896 0-1.604-.208-2.124-.624-.52-.416-.78-.984-.78-1.704 0-.712.26-1.272.78-1.68.52-.408 1.228-.612 2.124-.612.896 0 1.604.204 2.124.612.52.408.78.968.78 1.68 0 .72-.26 1.288-.78 1.704-.52.416-1.228.624-2.124.624Zm5.51 2.976-.384-.156a.944.944 0 0 1-.396-.276.64.64 0 0 1-.132-.408c0-.232.076-.408.228-.528.16-.128.364-.192.612-.192h.66c.152 0 .292-.04.42-.12a2.85 2.85 0 0 0 .516-.432l1.956-1.98c.264-.264.508-.46.732-.588.232-.128.452-.192.66-.192.232 0 .412.076.54.228.136.152.204.372.204.66v9.624c0 .584.1 1.028.3 1.332.2.304.488.456.864.456.304 0 .536-.076.696-.228.168-.152.3-.324.396-.516.104-.2.212-.376.324-.528a.537.537 0 0 1 .456-.228.48.48 0 0 1 .384.168c.096.112.144.304.144.576 0 .68-.196 1.3-.588 1.86-.392.552-.932.992-1.62 1.32-.688.328-1.472.492-2.352.492-1.304 0-2.312-.312-3.024-.936-.712-.632-1.068-1.584-1.068-2.856v-5.772c0-.232-.044-.4-.132-.504-.08-.104-.212-.196-.396-.276Zm3.864.144v-1.704h4.38c.248 0 .444.056.588.168a.518.518 0 0 1 .228.456c0 .304-.148.56-.444.768-.296.208-.784.312-1.464.312h-3.288Zm15.273 7.512-2.784 4.5-5.508-11.352c-.136-.288-.272-.488-.408-.6a2.312 2.312 0 0 0-.528-.336.901.901 0 0 1-.348-.276.786.786 0 0 1-.108-.432c0-.224.076-.4.228-.528.16-.128.376-.192.648-.192h6.456c.264 0 .472.064.624.192a.64.64 0 0 1 .24.528.64.64 0 0 1-.144.432c-.088.104-.236.188-.444.252l-.324.096c-.32.096-.508.252-.564.468-.056.216.028.584.252 1.104l2.712 6.144Zm-2.712 3.384.336-.768.648-1.212 2.928-7.308c.208-.512.284-.9.228-1.164-.056-.272-.248-.46-.576-.564l-.396-.132a.983.983 0 0 1-.456-.276.739.739 0 0 1-.144-.456c0-.224.076-.4.228-.528.16-.128.372-.192.636-.192h3.372c.272 0 .484.064.636.192a.64.64 0 0 1 .24.528.655.655 0 0 1-.132.396c-.08.112-.216.22-.408.324a2.595 2.595 0 0 0-.756.576c-.208.232-.416.608-.624 1.128l-3.66 8.868c-.568 1.376-1.084 2.436-1.548 3.18-.456.744-.952 1.256-1.488 1.536-.536.288-1.204.432-2.004.432-1.16 0-2.084-.312-2.772-.936-.688-.616-1.032-1.396-1.032-2.34 0-.672.172-1.204.516-1.596.344-.384.804-.576 1.38-.576.568 0 1 .16 1.296.48.296.32.56.748.792 1.284l.252.576c.112.264.24.472.384.624.152.152.308.228.468.228a.685.685 0 0 0 .42-.144c.136-.088.3-.296.492-.624s.44-.84.744-1.536ZM61.025 275h3.727c2.113 0 3.457-1.184 3.457-3.088v-5.024c0-1.904-1.344-3.088-3.457-3.088h-3.727c-.128 0-.209.08-.209.208v10.784c0 .128.08.208.209.208Zm.928-1.072v-9.056c0-.048.031-.08.08-.08H64.8c1.409 0 2.273.864 2.273 2.256v4.72c0 1.376-.88 2.24-2.272 2.24h-2.769c-.047 0-.08-.032-.08-.08Zm9.218-8.48c.512 0 .864-.336.864-.832 0-.48-.352-.816-.864-.816s-.864.336-.864.816c0 .496.352.832.864.832ZM70.82 275h.72c.128 0 .208-.08.208-.208v-7.68c0-.128-.08-.208-.208-.208h-.72c-.128 0-.208.08-.208.208v7.68c0 .128.08.208.208.208Zm6.242.08c1.808 0 2.976-.912 2.976-2.288 0-1.584-1.552-2.016-2.912-2.4-1.088-.32-1.952-.608-1.952-1.408 0-.768.736-1.232 1.808-1.232 1.2 0 1.92.576 1.92 1.28v.096c0 .064.08.112.208.112h.656c.128 0 .208-.08.208-.208 0-1.264-1.184-2.208-2.976-2.208-1.728 0-2.928.864-2.928 2.24 0 1.52 1.472 1.984 2.848 2.384 1.056.32 1.984.56 1.984 1.424 0 .752-.736 1.328-1.856 1.328-1.152 0-1.92-.64-1.92-1.312v-.144c0-.08-.08-.144-.208-.144h-.688c-.128 0-.208.08-.208.208v.144c0 1.168 1.2 2.128 3.04 2.128Zm8.119.048c1.568 0 2.816-.848 3.136-2.08.032-.112.048-.208.064-.272.016-.144-.064-.224-.192-.24l-.688-.112c-.128-.016-.224.032-.24.176l-.016.016c0 .016 0 .048-.016.08-.176.816-.976 1.44-2.048 1.44-1.088 0-1.824-.64-2.032-1.568-.08-.32-.144-.848-.144-1.632 0-.72.064-1.28.144-1.616.208-.912.944-1.552 2.032-1.552 1.104 0 1.888.672 2.064 1.456.016.064.032.128.032.192.032.144.112.192.24.176l.704-.08c.128-.016.208-.096.192-.24a3.113 3.113 0 0 0-.096-.432c-.32-1.136-1.52-2.064-3.136-2.064-1.552 0-2.72.88-3.104 2.192-.128.496-.208 1.072-.208 1.952 0 .816.048 1.44.208 1.984.4 1.344 1.536 2.224 3.104 2.224Zm8.313 0c1.52 0 2.688-.848 3.104-2.224.16-.528.224-1.2.224-1.968 0-.752-.064-1.424-.224-1.968-.4-1.344-1.568-2.192-3.104-2.192-1.584 0-2.736.848-3.152 2.208-.144.512-.208 1.168-.208 1.952 0 .768.064 1.44.224 1.968.416 1.376 1.568 2.224 3.136 2.224Zm0-.992c-1.072 0-1.84-.608-2.08-1.568-.096-.352-.128-.928-.128-1.616 0-.672.032-1.264.128-1.616.256-.944 1.008-1.568 2.048-1.568 1.072 0 1.84.624 2.08 1.568.096.352.128.912.128 1.616 0 .64-.032 1.232-.128 1.616-.256.96-1.024 1.568-2.048 1.568Zm7.414.864h.864a.24.24 0 0 0 .24-.176l2.576-7.664c.048-.144-.016-.24-.16-.24l-.816-.016c-.112 0-.192.048-.224.176l-2 6.224c-.016.08-.08.08-.096 0l-2-6.224c-.032-.128-.112-.176-.224-.176h-.816c-.144 0-.224.096-.176.24l2.592 7.68a.24.24 0 0 0 .24.176Zm8.384-.848c-1.168 0-1.952-.64-2.176-1.568-.064-.24-.096-.64-.096-1.168 0-.048.032-.08.08-.08h5.12c.128 0 .208-.08.208-.208 0-.752-.016-1.168-.096-1.6-.288-1.68-1.296-2.752-3.2-2.752-1.584 0-2.736.912-3.088 2.288-.128.496-.144 1.04-.144 1.856 0 .896.08 1.616.304 2.208.432 1.232 1.472 2 2.992 2 1.44 0 2.48-.704 2.976-1.744.064-.112.016-.208-.096-.272l-.464-.256c-.112-.064-.224-.016-.272.096-.368.72-1.056 1.184-2.048 1.2Zm-.16-6.384c1.104 0 1.84.64 2.064 1.568.048.224.08.592.096 1.024 0 .048-.032.08-.08.08h-4.112c-.048 0-.08-.032-.08-.08.016-.464.048-.832.128-1.088.208-.88.896-1.504 1.984-1.504Zm8.819-.944c-.928 0-1.616.48-2.048 1.216-.032.064-.08.048-.08-.032v-.896c0-.128-.08-.208-.208-.208h-.72c-.128 0-.208.08-.208.208v7.68c0 .128.08.208.208.208h.72c.128 0 .208-.08.208-.208v-4.672c0-1.2.816-2.064 1.92-2.096.336-.016.592.016.784.08.144.048.224 0 .256-.128l.16-.704c.032-.112 0-.208-.112-.256-.208-.112-.48-.192-.88-.192Zm8.568-.048c-1.648 0-2.832.8-3.04 1.968-.016.112.064.16.192.176l.784.096c.128.016.208-.032.24-.16.176-.672.832-1.088 1.84-1.088 1.328 0 1.872.72 1.872 1.76v.592c0 .048-.032.08-.08.08h-1.856c-2.08 0-3.296.992-3.296 2.592 0 1.68 1.28 2.336 2.64 2.336 1.008 0 1.904-.32 2.496-.944.048-.064.096-.032.096.032v.576c0 .128.08.208.208.208h.72c.128 0 .208-.08.208-.208v-5.328c0-1.584-1.072-2.688-3.024-2.688Zm-.448 7.376c-.976 0-1.76-.448-1.76-1.424 0-1.04.944-1.632 2.336-1.632h1.68c.048 0 .08.032.08.08v1.232c0 1.12-1.152 1.744-2.336 1.744Zm9.179-7.36c-.928 0-1.68.32-2.144.96-.032.064-.08.016-.08-.048v-.592c0-.128-.08-.208-.208-.208h-.72c-.128 0-.208.08-.208.208v7.68c0 .128.08.208.208.208h.72c.128 0 .208-.08.208-.208v-5.328c.112-1.008.88-1.68 1.968-1.68 1.136 0 1.904.816 1.904 2v5.008c0 .128.08.208.208.208h.72c.128 0 .208-.08.208-.208v-5.232c0-1.68-1.104-2.768-2.784-2.768Zm11.621 7.36c-1.168 0-1.952-.64-2.176-1.568-.064-.24-.096-.64-.096-1.168 0-.048.032-.08.08-.08h5.12c.128 0 .208-.08.208-.208 0-.752-.016-1.168-.096-1.6-.288-1.68-1.296-2.752-3.2-2.752-1.584 0-2.736.912-3.088 2.288-.129.496-.144 1.04-.144 1.856 0 .896.08 1.616.304 2.208.432 1.232 1.472 2 2.992 2 1.44 0 2.48-.704 2.976-1.744.064-.112.016-.208-.096-.272l-.464-.256c-.112-.064-.224-.016-.272.096-.368.72-1.056 1.184-2.048 1.2Zm-.16-6.384c1.104 0 1.84.64 2.064 1.568.048.224.08.592.096 1.024 0 .048-.032.08-.08.08h-4.112c-.048 0-.08-.032-.08-.08.016-.464.048-.832.128-1.088.208-.88.896-1.504 1.984-1.504Zm8.914-.976c-.928 0-1.68.32-2.144.96-.032.064-.08.016-.08-.048v-.592c0-.128-.08-.208-.208-.208h-.72c-.128 0-.208.08-.208.208v7.68c0 .128.08.208.208.208h.72c.128 0 .208-.08.208-.208v-5.328c.112-1.008.88-1.68 1.968-1.68 1.136 0 1.904.816 1.904 2v5.008c0 .128.08.208.208.208h.72c.128 0 .208-.08.208-.208v-5.232c0-1.68-1.104-2.768-2.784-2.768Zm10.241-2.784v3.696c0 .064-.048.096-.096.032-.464-.608-1.184-.96-2.032-.96-1.552 0-2.576.864-2.96 2.192-.16.544-.192 1.2-.192 1.984 0 .816.048 1.472.224 2.032.384 1.296 1.408 2.144 2.928 2.144.848 0 1.568-.352 2.032-.976.048-.048.096-.032.096.032v.608c0 .128.08.208.208.208h.72c.128 0 .208-.08.208-.208v-10.784c0-.128-.08-.208-.208-.208h-.72c-.128 0-.208.08-.208.208Zm-.304 8.896c-.256.72-.832 1.232-1.712 1.232-.896 0-1.584-.48-1.84-1.248-.192-.432-.288-.896-.288-1.936 0-1.104.128-1.584.368-2.016.272-.688.912-1.168 1.776-1.168.848 0 1.424.496 1.68 1.2.192.432.288.912.288 1.984 0 1.056-.08 1.536-.272 1.952Zm4.208 2.096h.72c.128 0 .208-.08.208-.208v-10.784c0-.128-.08-.208-.208-.208h-.72c-.128 0-.208.08-.208.208v10.784c0 .128.08.208.208.208Zm6.663-.848c-1.168 0-1.952-.64-2.176-1.568-.064-.24-.096-.64-.096-1.168 0-.048.032-.08.08-.08h5.12c.128 0 .208-.08.208-.208 0-.752-.016-1.168-.096-1.6-.288-1.68-1.296-2.752-3.2-2.752-1.584 0-2.736.912-3.088 2.288-.128.496-.144 1.04-.144 1.856 0 .896.08 1.616.304 2.208.432 1.232 1.472 2 2.992 2 1.44 0 2.48-.704 2.976-1.744.064-.112.016-.208-.096-.272l-.464-.256c-.112-.064-.224-.016-.272.096-.368.72-1.056 1.184-2.048 1.2Zm-.16-6.384c1.104 0 1.84.64 2.064 1.568.048.224.08.592.096 1.024 0 .048-.032.08-.08.08h-4.112c-.048 0-.08-.032-.08-.08.016-.464.048-.832.128-1.088.208-.88.896-1.504 1.984-1.504Zm8.211 7.312c1.808 0 2.976-.912 2.976-2.288 0-1.584-1.552-2.016-2.912-2.4-1.088-.32-1.952-.608-1.952-1.408 0-.768.736-1.232 1.808-1.232 1.2 0 1.92.576 1.92 1.28v.096c0 .064.08.112.208.112h.656c.128 0 .208-.08.208-.208 0-1.264-1.184-2.208-2.976-2.208-1.728 0-2.928.864-2.928 2.24 0 1.52 1.472 1.984 2.848 2.384 1.056.32 1.984.56 1.984 1.424 0 .752-.736 1.328-1.856 1.328-1.152 0-1.92-.64-1.92-1.312v-.144c0-.08-.08-.144-.208-.144h-.688c-.128 0-.208.08-.208.208v.144c0 1.168 1.2 2.128 3.04 2.128Zm7.484 0c1.808 0 2.976-.912 2.976-2.288 0-1.584-1.552-2.016-2.912-2.4-1.088-.32-1.952-.608-1.952-1.408 0-.768.736-1.232 1.808-1.232 1.2 0 1.92.576 1.92 1.28v.096c0 .064.08.112.208.112h.656c.128 0 .208-.08.208-.208 0-1.264-1.184-2.208-2.976-2.208-1.728 0-2.928.864-2.928 2.24 0 1.52 1.472 1.984 2.848 2.384 1.056.32 1.984.56 1.984 1.424 0 .752-.736 1.328-1.856 1.328-1.152 0-1.92-.64-1.92-1.312v-.144c0-.08-.08-.144-.208-.144h-.688c-.128 0-.208.08-.208.208v.144c0 1.168 1.2 2.128 3.04 2.128Zm10.362-.08h.864a.24.24 0 0 0 .24-.176l2.576-7.664c.048-.144-.016-.24-.16-.24l-.816-.016c-.112 0-.192.048-.224.176l-2 6.224c-.016.08-.08.08-.096 0l-2-6.224c-.032-.128-.112-.176-.224-.176h-.816c-.144 0-.224.096-.176.24l2.592 7.68a.24.24 0 0 0 .24.176Zm8.126-8.224c-1.648 0-2.832.8-3.04 1.968-.016.112.064.16.192.176l.784.096c.128.016.208-.032.24-.16.176-.672.832-1.088 1.84-1.088 1.328 0 1.872.72 1.872 1.76v.592c0 .048-.032.08-.08.08h-1.856c-2.08 0-3.296.992-3.296 2.592 0 1.68 1.28 2.336 2.64 2.336 1.008 0 1.904-.32 2.496-.944.048-.064.096-.032.096.032v.576c0 .128.08.208.208.208h.72c.128 0 .208-.08.208-.208v-5.328c0-1.584-1.072-2.688-3.024-2.688Zm-.448 7.376c-.976 0-1.76-.448-1.76-1.424 0-1.04.944-1.632 2.336-1.632h1.68c.048 0 .08.032.08.08v1.232c0 1.12-1.152 1.744-2.336 1.744Zm9.084-7.328c-.928 0-1.616.48-2.048 1.216-.032.064-.08.048-.08-.032v-.896c0-.128-.08-.208-.208-.208h-.72c-.128 0-.208.08-.208.208v7.68c0 .128.08.208.208.208h.72c.128 0 .208-.08.208-.208v-4.672c0-1.2.816-2.064 1.92-2.096.336-.016.592.016.784.08.144.048.224 0 .256-.128l.16-.704c.032-.112 0-.208-.112-.256-.208-.112-.48-.192-.88-.192Zm3.252-1.376c.512 0 .864-.336.864-.832 0-.48-.352-.816-.864-.816s-.864.336-.864.816c0 .496.352.832.864.832Zm-.352 9.552h.72c.128 0 .208-.08.208-.208v-7.68c0-.128-.08-.208-.208-.208h-.72c-.128 0-.208.08-.208.208v7.68c0 .128.08.208.208.208Zm6.738-.848c-1.168 0-1.952-.64-2.176-1.568-.064-.24-.096-.64-.096-1.168 0-.048.032-.08.08-.08h5.12c.128 0 .208-.08.208-.208 0-.752-.016-1.168-.096-1.6-.288-1.68-1.296-2.752-3.2-2.752-1.584 0-2.736.912-3.088 2.288-.128.496-.144 1.04-.144 1.856 0 .896.08 1.616.304 2.208.432 1.232 1.472 2 2.992 2 1.44 0 2.48-.704 2.976-1.744.064-.112.016-.208-.096-.272l-.464-.256c-.112-.064-.224-.016-.272.096-.368.72-1.056 1.184-2.048 1.2Zm-.16-6.384c1.104 0 1.84.64 2.064 1.568.048.224.08.592.096 1.024 0 .048-.032.08-.08.08h-4.112c-.048 0-.08-.032-.08-.08.016-.464.048-.832.128-1.088.208-.88.896-1.504 1.984-1.504Zm9.077-.128v-.528c0-.128-.08-.208-.208-.208h-1.744c-.048 0-.08-.032-.08-.08v-1.792c0-.128-.08-.208-.208-.208h-.688c-.128 0-.208.08-.208.208v1.792c0 .048-.032.08-.08.08h-.912c-.128 0-.208.08-.208.208v.528c0 .128.08.208.208.208h.912c.048 0 .08.032.08.08v5.024c0 1.664.944 2.032 2.336 2.032h.544c.144-.016.208-.096.208-.224v-.56c0-.128-.08-.208-.208-.208h-.352c-.96 0-1.424-.352-1.424-1.392v-4.672c0-.048.032-.08.08-.08h1.744c.128 0 .208-.08.208-.208Zm1.829 10.56h.112c1.776 0 2.256-.448 2.975-2.496l2.945-8.56c.048-.144-.032-.24-.176-.24h-.768c-.112 0-.192.048-.224.176l-2.016 6.272c-.016.08-.08.08-.096 0l-2.064-6.272a.24.24 0 0 0-.24-.176h-.752c-.144 0-.224.096-.176.24l2.688 7.808c.016.048.016.064 0 .096-.544 1.792-.896 2.176-2.096 2.176h-.112c-.064 0-.112.08-.112.208v.56c0 .128.048.208.112.208Zm14.05-3.072c1.52 0 2.688-.848 3.104-2.224.16-.528.224-1.2.224-1.968 0-.752-.064-1.424-.224-1.968-.4-1.344-1.568-2.192-3.104-2.192-1.584 0-2.736.848-3.152 2.208-.144.512-.208 1.168-.208 1.952 0 .768.064 1.44.224 1.968.416 1.376 1.568 2.224 3.136 2.224Zm0-.992c-1.072 0-1.84-.608-2.08-1.568-.096-.352-.128-.928-.128-1.616 0-.672.032-1.264.128-1.616.256-.944 1.008-1.568 2.048-1.568 1.072 0 1.84.624 2.08 1.568.096.352.128.912.128 1.616 0 .64-.032 1.232-.128 1.616-.256.96-1.024 1.568-2.048 1.568Zm8.736-9.344h.32c.128 0 .208-.08.208-.208v-.576c0-.128-.08-.208-.208-.208h-.416c-1.984 0-2.544.752-2.544 2.656v.368c0 .048-.032.08-.08.08h-1.008c-.128 0-.208.08-.208.208v.624c0 .128.08.208.208.208h1.008c.048 0 .08.032.08.08v6.768c0 .128.08.208.208.208h.704c.128 0 .208-.08.208-.208v-6.768c0-.048.032-.08.08-.08h1.728c.128 0 .208-.08.208-.208v-.624c0-.128-.08-.208-.208-.208h-1.728c-.048 0-.08-.032-.08-.08v-.304c0-1.216.304-1.728 1.52-1.728Zm9.339 2.848v-.528c0-.128-.08-.208-.209-.208h-1.743c-.048 0-.08-.032-.08-.08v-1.792c0-.128-.08-.208-.208-.208h-.688c-.128 0-.208.08-.208.208v1.792c0 .048-.032.08-.08.08h-.912c-.128 0-.208.08-.208.208v.528c0 .128.08.208.208.208h.912c.048 0 .08.032.08.08v5.024c0 1.664.944 2.032 2.335 2.032h.545c.144-.016.208-.096.208-.224v-.56c0-.128-.08-.208-.208-.208h-.352c-.96 0-1.424-.352-1.424-1.392v-4.672c0-.048.032-.08.08-.08h1.743c.129 0 .209-.08.209-.208Zm5.556-.848c-.928 0-1.68.32-2.144.96-.032.064-.08.016-.08-.048v-3.696c0-.128-.08-.208-.208-.208h-.72c-.128 0-.208.08-.208.208v10.784c0 .128.08.208.208.208h.72c.128 0 .208-.08.208-.208v-5.328c.112-1.008.88-1.68 1.968-1.68 1.136 0 1.904.816 1.904 2v5.008c0 .128.08.208.208.208h.72c.128 0 .208-.08.208-.208v-5.232c0-1.68-1.104-2.768-2.784-2.768Zm8.417 7.36c-1.168 0-1.952-.64-2.176-1.568-.064-.24-.096-.64-.096-1.168 0-.048.032-.08.08-.08h5.12c.128 0 .208-.08.208-.208 0-.752-.016-1.168-.096-1.6-.288-1.68-1.296-2.752-3.2-2.752-1.584 0-2.736.912-3.088 2.288-.128.496-.144 1.04-.144 1.856 0 .896.08 1.616.304 2.208.432 1.232 1.472 2 2.992 2 1.44 0 2.48-.704 2.976-1.744.064-.112.016-.208-.096-.272l-.464-.256c-.112-.064-.224-.016-.272.096-.368.72-1.056 1.184-2.048 1.2Zm-.16-6.384c1.104 0 1.84.64 2.064 1.568.048.224.08.592.096 1.024 0 .048-.032.08-.08.08h-4.112c-.048 0-.08-.032-.08-.08.016-.464.048-.832.128-1.088.208-.88.896-1.504 1.984-1.504ZM50.242 301h.8c.112 0 .192-.048.224-.176l1.664-5.904c.016-.064.08-.064.096 0l1.728 5.904c.032.128.112.176.224.176h.784c.112 0 .192-.048.224-.176l2.272-7.664c.048-.144-.032-.24-.176-.24l-.736-.016c-.112 0-.208.048-.24.176l-1.712 6.24c-.016.064-.08.064-.096 0l-1.744-6.24c-.032-.128-.112-.176-.224-.176h-.704c-.112 0-.192.048-.224.176l-1.712 6.24c-.016.064-.08.064-.096 0l-1.664-6.24c-.032-.128-.112-.176-.224-.176h-.752c-.144 0-.224.096-.176.24l2.24 7.68c.032.128.112.176.224.176Zm12.658.128c1.52 0 2.688-.848 3.104-2.224.16-.528.224-1.2.224-1.968 0-.752-.064-1.424-.224-1.968-.4-1.344-1.568-2.192-3.104-2.192-1.584 0-2.736.848-3.152 2.208-.144.512-.208 1.168-.208 1.952 0 .768.064 1.44.224 1.968.416 1.376 1.568 2.224 3.136 2.224Zm0-.992c-1.072 0-1.84-.608-2.08-1.568-.096-.352-.128-.928-.128-1.616 0-.672.032-1.264.128-1.616.256-.944 1.008-1.568 2.048-1.568 1.072 0 1.84.624 2.08 1.568.096.352.128.912.128 1.616 0 .64-.032 1.232-.128 1.616-.256.96-1.024 1.568-2.048 1.568Zm8.894-7.312c-.928 0-1.616.48-2.048 1.216-.032.064-.08.048-.08-.032v-.896c0-.128-.08-.208-.208-.208h-.72c-.128 0-.208.08-.208.208v7.68c0 .128.08.208.208.208h.72c.128 0 .208-.08.208-.208v-4.672c0-1.2.816-2.064 1.92-2.096.336-.016.592.016.784.08.144.048.224 0 .256-.128l.16-.704c.032-.112 0-.208-.112-.256-.208-.112-.48-.192-.88-.192ZM74.566 301h.72c.128 0 .208-.08.208-.208v-10.784c0-.128-.08-.208-.208-.208h-.72c-.128 0-.208.08-.208.208v10.784c0 .128.08.208.208.208Zm8.487-10.992v3.696c0 .064-.048.096-.096.032-.464-.608-1.184-.96-2.032-.96-1.552 0-2.576.864-2.96 2.192-.16.544-.192 1.2-.192 1.984 0 .816.048 1.472.224 2.032.384 1.296 1.408 2.144 2.928 2.144.848 0 1.568-.352 2.032-.976.048-.048.096-.032.096.032v.608c0 .128.08.208.208.208h.72c.128 0 .208-.08.208-.208v-10.784c0-.128-.08-.208-.208-.208h-.72c-.128 0-.208.08-.208.208Zm-.304 8.896c-.256.72-.832 1.232-1.712 1.232-.896 0-1.584-.48-1.84-1.248-.192-.432-.288-.896-.288-1.936 0-1.104.128-1.584.368-2.016.272-.688.912-1.168 1.776-1.168.848 0 1.424.496 1.68 1.2.192.432.288.912.288 1.984 0 1.056-.08 1.536-.272 1.952Zm4.922-9.104h-.752c-.111 0-.191.048-.224.176l-.927 2.864c-.049.144.031.24.175.24h.496a.24.24 0 0 0 .24-.16l1.153-2.88c.047-.144-.016-.24-.16-.24Zm3.312 11.28c1.808 0 2.976-.912 2.976-2.288 0-1.584-1.552-2.016-2.912-2.4-1.088-.32-1.952-.608-1.952-1.408 0-.768.736-1.232 1.808-1.232 1.2 0 1.92.576 1.92 1.28v.096c0 .064.08.112.208.112h.656c.128 0 .208-.08.208-.208 0-1.264-1.184-2.208-2.976-2.208-1.728 0-2.928.864-2.928 2.24 0 1.52 1.472 1.984 2.848 2.384 1.056.32 1.984.56 1.984 1.424 0 .752-.736 1.328-1.856 1.328-1.152 0-1.92-.64-1.92-1.312v-.144c0-.08-.08-.144-.208-.144h-.688c-.128 0-.208.08-.208.208v.144c0 1.168 1.2 2.128 3.04 2.128Zm14.49-6.112c-.384-1.328-1.408-2.192-2.96-2.192-.848 0-1.568.352-2.032.96-.048.064-.096.032-.096-.032v-3.696c0-.128-.08-.208-.208-.208h-.72c-.128 0-.208.08-.208.208v10.784c0 .128.08.208.208.208h.72c.128 0 .208-.08.208-.208v-.608c0-.064.048-.08.096-.032.464.624 1.184.976 2.032.976 1.52 0 2.544-.848 2.928-2.144.176-.56.224-1.216.224-2.032 0-.784-.032-1.44-.192-1.984Zm-1.232 3.92c-.256.768-.944 1.248-1.84 1.248-.88 0-1.456-.512-1.712-1.232-.192-.416-.272-.896-.272-1.952 0-1.072.096-1.552.288-1.984.256-.704.832-1.2 1.68-1.2.864 0 1.504.48 1.776 1.168.24.432.368.912.368 2.016 0 1.04-.096 1.504-.288 1.936Zm6.832 1.264c-1.168 0-1.952-.64-2.176-1.568-.064-.24-.096-.64-.096-1.168 0-.048.032-.08.08-.08h5.12c.128 0 .208-.08.208-.208 0-.752-.016-1.168-.096-1.6-.288-1.68-1.296-2.752-3.2-2.752-1.584 0-2.736.912-3.088 2.288-.128.496-.144 1.04-.144 1.856 0 .896.08 1.616.304 2.208.432 1.232 1.472 2 2.992 2 1.44 0 2.48-.704 2.976-1.744.064-.112.016-.208-.096-.272l-.464-.256c-.112-.064-.224-.016-.272.096-.368.72-1.056 1.184-2.048 1.2Zm-.16-6.384c1.104 0 1.84.64 2.064 1.568.048.224.08.592.096 1.024 0 .048-.032.08-.08.08h-4.112c-.048 0-.08-.032-.08-.08.016-.464.048-.832.128-1.088.208-.88.896-1.504 1.984-1.504Zm8.211 7.312c1.808 0 2.976-.912 2.976-2.288 0-1.584-1.552-2.016-2.912-2.4-1.088-.32-1.952-.608-1.952-1.408 0-.768.736-1.232 1.808-1.232 1.2 0 1.92.576 1.92 1.28v.096c0 .064.08.112.208.112h.656c.128 0 .208-.08.208-.208 0-1.264-1.184-2.208-2.976-2.208-1.728 0-2.928.864-2.928 2.24 0 1.52 1.472 1.984 2.848 2.384 1.056.32 1.984.56 1.984 1.424 0 .752-.736 1.328-1.856 1.328-1.152 0-1.92-.64-1.92-1.312v-.144c0-.08-.08-.144-.208-.144h-.688c-.128 0-.208.08-.208.208v.144c0 1.168 1.2 2.128 3.04 2.128Zm8.679-7.44v-.528c0-.128-.08-.208-.208-.208h-1.744c-.048 0-.08-.032-.08-.08v-1.792c0-.128-.08-.208-.208-.208h-.688c-.128 0-.208.08-.208.208v1.792c0 .048-.032.08-.08.08h-.912c-.128 0-.208.08-.208.208v.528c0 .128.08.208.208.208h.912c.048 0 .08.032.08.08v5.024c0 1.664.944 2.032 2.336 2.032h.544c.144-.016.208-.096.208-.224v-.56c0-.128-.08-.208-.208-.208h-.352c-.96 0-1.424-.352-1.424-1.392v-4.672c0-.048.032-.08.08-.08h1.744c.128 0 .208-.08.208-.208Zm8.199-.864c-1.648 0-2.832.8-3.04 1.968-.016.112.064.16.192.176l.784.096c.128.016.208-.032.24-.16.176-.672.832-1.088 1.84-1.088 1.328 0 1.872.72 1.872 1.76v.592c0 .048-.032.08-.08.08h-1.856c-2.08 0-3.296.992-3.296 2.592 0 1.68 1.28 2.336 2.64 2.336 1.008 0 1.904-.32 2.496-.944.048-.064.096-.032.096.032v.576c0 .128.08.208.208.208h.72c.128 0 .208-.08.208-.208v-5.328c0-1.584-1.072-2.688-3.024-2.688Zm-.448 7.376c-.976 0-1.76-.448-1.76-1.424 0-1.04.944-1.632 2.336-1.632h1.68c.048 0 .08.032.08.08v1.232c0 1.12-1.152 1.744-2.336 1.744Zm9.084-7.328c-.928 0-1.616.48-2.048 1.216-.032.064-.08.048-.08-.032v-.896c0-.128-.08-.208-.208-.208h-.72c-.128 0-.208.08-.208.208v7.68c0 .128.08.208.208.208h.72c.128 0 .208-.08.208-.208v-4.672c0-1.2.816-2.064 1.92-2.096.336-.016.592.016.784.08.144.048.224 0 .256-.128l.16-.704c.032-.112 0-.208-.112-.256-.208-.112-.48-.192-.88-.192Zm6.415.816v-.528c0-.128-.08-.208-.208-.208h-1.744c-.048 0-.08-.032-.08-.08v-1.792c0-.128-.08-.208-.208-.208h-.688c-.128 0-.208.08-.208.208v1.792c0 .048-.032.08-.08.08h-.912c-.128 0-.208.08-.208.208v.528c0 .128.08.208.208.208h.912c.048 0 .08.032.08.08v5.024c0 1.664.944 2.032 2.336 2.032h.544c.144-.016.208-.096.208-.224v-.56c0-.128-.08-.208-.208-.208h-.352c-.96 0-1.424-.352-1.424-1.392v-4.672c0-.048.032-.08.08-.08h1.744c.128 0 .208-.08.208-.208Zm2.884-2.192c.512 0 .864-.336.864-.832 0-.48-.352-.816-.864-.816s-.864.336-.864.816c0 .496.352.832.864.832Zm-.352 9.552h.72c.128 0 .208-.08.208-.208v-7.68c0-.128-.08-.208-.208-.208h-.72c-.128 0-.208.08-.208.208v7.68c0 .128.08.208.208.208Zm6.242.08c1.808 0 2.976-.912 2.976-2.288 0-1.584-1.552-2.016-2.912-2.4-1.088-.32-1.952-.608-1.952-1.408 0-.768.736-1.232 1.808-1.232 1.2 0 1.92.576 1.92 1.28v.096c0 .064.08.112.208.112h.656c.128 0 .208-.08.208-.208 0-1.264-1.184-2.208-2.976-2.208-1.728 0-2.928.864-2.928 2.24 0 1.52 1.472 1.984 2.848 2.384 1.056.32 1.984.56 1.984 1.424 0 .752-.736 1.328-1.856 1.328-1.152 0-1.92-.64-1.92-1.312v-.144c0-.08-.08-.144-.208-.144h-.688c-.128 0-.208.08-.208.208v.144c0 1.168 1.2 2.128 3.04 2.128Zm7.862-8.304c-1.648 0-2.832.8-3.04 1.968-.016.112.064.16.192.176l.784.096c.128.016.208-.032.24-.16.176-.672.832-1.088 1.84-1.088 1.328 0 1.872.72 1.872 1.76v.592c0 .048-.032.08-.08.08h-1.856c-2.08 0-3.296.992-3.296 2.592 0 1.68 1.28 2.336 2.64 2.336 1.008 0 1.904-.32 2.496-.944.048-.064.096-.032.096.032v.576c0 .128.08.208.208.208h.72c.128 0 .208-.08.208-.208v-5.328c0-1.584-1.072-2.688-3.024-2.688Zm-.448 7.376c-.976 0-1.76-.448-1.76-1.424 0-1.04.944-1.632 2.336-1.632h1.68c.048 0 .08.032.08.08v1.232c0 1.12-1.152 1.744-2.336 1.744Zm9.18-7.36c-.928 0-1.68.32-2.144.96-.032.064-.08.016-.08-.048v-.592c0-.128-.08-.208-.208-.208h-.72c-.128 0-.208.08-.208.208v7.68c0 .128.08.208.208.208h.72c.128 0 .208-.08.208-.208v-5.328c.112-1.008.88-1.68 1.968-1.68 1.136 0 1.904.816 1.904 2v5.008c0 .128.08.208.208.208h.72c.128 0 .208-.08.208-.208v-5.232c0-1.68-1.104-2.768-2.784-2.768Zm11.524 8.336c1.568 0 2.816-.848 3.136-2.08.032-.112.048-.208.064-.272.016-.144-.064-.224-.192-.24l-.688-.112c-.128-.016-.224.032-.24.176l-.016.016c0 .016 0 .048-.016.08-.176.816-.976 1.44-2.048 1.44-1.088 0-1.824-.64-2.032-1.568-.08-.32-.144-.848-.144-1.632 0-.72.064-1.28.144-1.616.208-.912.944-1.552 2.032-1.552 1.104 0 1.888.672 2.064 1.456a.803.803 0 0 1 .032.192c.032.144.112.192.24.176l.704-.08c.128-.016.208-.096.192-.24a3.113 3.113 0 0 0-.096-.432c-.32-1.136-1.52-2.064-3.136-2.064-1.552 0-2.72.88-3.104 2.192-.128.496-.208 1.072-.208 1.952 0 .816.048 1.44.208 1.984.4 1.344 1.536 2.224 3.104 2.224Zm8.314 0c1.52 0 2.688-.848 3.104-2.224.16-.528.224-1.2.224-1.968 0-.752-.064-1.424-.224-1.968-.4-1.344-1.568-2.192-3.104-2.192-1.584 0-2.736.848-3.152 2.208-.144.512-.208 1.168-.208 1.952 0 .768.064 1.44.224 1.968.416 1.376 1.568 2.224 3.136 2.224Zm0-.992c-1.072 0-1.84-.608-2.08-1.568-.096-.352-.128-.928-.128-1.616 0-.672.032-1.264.128-1.616.256-.944 1.008-1.568 2.048-1.568 1.072 0 1.84.624 2.08 1.568.096.352.128.912.128 1.616 0 .64-.032 1.232-.128 1.616-.256.96-1.024 1.568-2.048 1.568Zm8.737-9.344h.32c.128 0 .208-.08.208-.208v-.576c0-.128-.08-.208-.208-.208h-.416c-1.984 0-2.544.752-2.544 2.656v.368c0 .048-.032.08-.08.08h-1.008c-.128 0-.208.08-.208.208v.624c0 .128.08.208.208.208h1.008c.048 0 .08.032.08.08v6.768c0 .128.08.208.208.208h.704c.128 0 .208-.08.208-.208v-6.768c0-.048.032-.08.08-.08h1.728c.128 0 .208-.08.208-.208v-.624c0-.128-.08-.208-.208-.208h-1.728c-.048 0-.08-.032-.08-.08v-.304c0-1.216.304-1.728 1.52-1.728Zm5.703 0h.32c.128 0 .208-.08.208-.208v-.576c0-.128-.08-.208-.208-.208h-.416c-1.984 0-2.544.752-2.544 2.656v.368c0 .048-.032.08-.08.08h-1.008c-.128 0-.208.08-.208.208v.624c0 .128.08.208.208.208h1.008c.048 0 .08.032.08.08v6.768c0 .128.08.208.208.208h.704c.128 0 .208-.08.208-.208v-6.768c0-.048.032-.08.08-.08h1.728c.128 0 .208-.08.208-.208v-.624c0-.128-.08-.208-.208-.208h-1.728c-.048 0-.08-.032-.08-.08v-.304c0-1.216.304-1.728 1.52-1.728Zm4.905 9.36c-1.168 0-1.952-.64-2.176-1.568-.064-.24-.096-.64-.096-1.168 0-.048.032-.08.08-.08h5.12c.128 0 .208-.08.208-.208 0-.752-.016-1.168-.096-1.6-.288-1.68-1.296-2.752-3.2-2.752-1.584 0-2.736.912-3.088 2.288-.128.496-.144 1.04-.144 1.856 0 .896.08 1.616.304 2.208.432 1.232 1.472 2 2.992 2 1.44 0 2.48-.704 2.976-1.744.064-.112.016-.208-.096-.272l-.464-.256c-.112-.064-.224-.016-.272.096-.368.72-1.056 1.184-2.048 1.2Zm-.16-6.384c1.104 0 1.84.64 2.064 1.568.048.224.08.592.096 1.024 0 .048-.032.08-.08.08h-4.112c-.048 0-.08-.032-.08-.08.016-.464.048-.832.128-1.088.208-.88.896-1.504 1.984-1.504Zm8.707 6.384c-1.168 0-1.952-.64-2.176-1.568-.064-.24-.096-.64-.096-1.168 0-.048.032-.08.08-.08h5.12c.128 0 .208-.08.208-.208 0-.752-.016-1.168-.096-1.6-.288-1.68-1.296-2.752-3.2-2.752-1.584 0-2.736.912-3.088 2.288-.128.496-.144 1.04-.144 1.856 0 .896.08 1.616.304 2.208.432 1.232 1.472 2 2.992 2 1.44 0 2.48-.704 2.976-1.744.064-.112.016-.208-.096-.272l-.464-.256c-.112-.064-.224-.016-.272.096-.368.72-1.056 1.184-2.048 1.2Zm-.16-6.384c1.104 0 1.84.64 2.064 1.568.048.224.08.592.096 1.024 0 .048-.032.08-.08.08h-4.112c-.048 0-.08-.032-.08-.08.016-.464.048-.832.128-1.088.208-.88.896-1.504 1.984-1.504Zm11.958-2.976h.32c.128 0 .208-.08.208-.208v-.576c0-.128-.08-.208-.208-.208h-.416c-1.984 0-2.544.752-2.544 2.656v.368c0 .048-.032.08-.08.08h-1.008c-.128 0-.208.08-.208.208v.624c0 .128.08.208.208.208h1.008c.048 0 .08.032.08.08v6.768c0 .128.08.208.208.208h.704c.128 0 .208-.08.208-.208v-6.768c0-.048.032-.08.08-.08h1.728c.128 0 .208-.08.208-.208v-.624c0-.128-.08-.208-.208-.208h-1.728c-.048 0-.08-.032-.08-.08v-.304c0-1.216.304-1.728 1.52-1.728Zm5.767 2.032c-.928 0-1.616.48-2.048 1.216-.032.064-.08.048-.08-.032v-.896c0-.128-.08-.208-.208-.208h-.72c-.128 0-.208.08-.208.208v7.68c0 .128.08.208.208.208h.72c.128 0 .208-.08.208-.208v-4.672c0-1.2.816-2.064 1.92-2.096.336-.016.592.016.784.08.144.048.224 0 .256-.128l.16-.704c.032-.112 0-.208-.112-.256-.208-.112-.48-.192-.88-.192Zm5.59 8.304c1.52 0 2.688-.848 3.104-2.224.16-.528.224-1.2.224-1.968 0-.752-.064-1.424-.224-1.968-.4-1.344-1.568-2.192-3.104-2.192-1.584 0-2.736.848-3.152 2.208-.144.512-.208 1.168-.208 1.952 0 .768.064 1.44.224 1.968.416 1.376 1.568 2.224 3.136 2.224Zm0-.992c-1.072 0-1.84-.608-2.08-1.568-.096-.352-.128-.928-.128-1.616 0-.672.032-1.264.128-1.616.256-.944 1.008-1.568 2.048-1.568 1.072 0 1.84.624 2.08 1.568.096.352.128.912.128 1.616 0 .64-.032 1.232-.128 1.616-.256.96-1.024 1.568-2.048 1.568Zm13.822-7.344c-1.04 0-1.968.4-2.448 1.296-.032.048-.064.048-.096-.016-.4-.816-1.216-1.28-2.304-1.28-.864 0-1.632.288-2.112.912-.048.064-.096.032-.096-.032v-.56c0-.128-.08-.208-.208-.208h-.72c-.128 0-.208.08-.208.208v7.68c0 .128.08.208.208.208h.72c.128 0 .208-.08.208-.208v-5.12c0-1.168.736-1.888 1.856-1.888 1.104 0 1.824.736 1.824 1.92v5.088c0 .128.08.208.208.208h.72c.128 0 .208-.08.208-.208v-5.12c0-1.168.768-1.888 1.888-1.888 1.088 0 1.824.736 1.824 1.92v5.088c0 .128.08.208.208.208h.704c.128 0 .208-.08.208-.208v-5.312c0-1.68-1.008-2.688-2.592-2.688Zm11.398 7.36c-1.168 0-1.952-.64-2.176-1.568-.064-.24-.096-.64-.096-1.168 0-.048.032-.08.08-.08h5.12c.128 0 .208-.08.208-.208 0-.752-.016-1.168-.096-1.6-.288-1.68-1.296-2.752-3.2-2.752-1.584 0-2.736.912-3.088 2.288-.128.496-.144 1.04-.144 1.856 0 .896.08 1.616.304 2.208.432 1.232 1.472 2 2.992 2 1.44 0 2.48-.704 2.976-1.744.064-.112.016-.208-.096-.272l-.464-.256c-.112-.064-.224-.016-.272.096-.368.72-1.056 1.184-2.048 1.2Zm-.16-6.384c1.104 0 1.84.64 2.064 1.568.048.224.08.592.096 1.024 0 .048-.032.08-.08.08h-4.112c-.048 0-.08-.032-.08-.08.016-.464.048-.832.128-1.088.208-.88.896-1.504 1.984-1.504Zm8.355-.992c-1.648 0-2.832.8-3.04 1.968-.016.112.064.16.192.176l.784.096c.128.016.208-.032.24-.16.176-.672.832-1.088 1.84-1.088 1.328 0 1.872.72 1.872 1.76v.592c0 .048-.032.08-.08.08h-1.856c-2.08 0-3.296.992-3.296 2.592 0 1.68 1.28 2.336 2.64 2.336 1.008 0 1.904-.32 2.496-.944.048-.064.096-.032.096.032v.576c0 .128.08.208.208.208h.72c.128 0 .208-.08.208-.208v-5.328c0-1.584-1.072-2.688-3.024-2.688Zm-.448 7.376c-.976 0-1.76-.448-1.76-1.424 0-1.04.944-1.632 2.336-1.632h1.68c.048 0 .08.032.08.08v1.232c0 1.12-1.152 1.744-2.336 1.744Zm8.876.976c1.568 0 2.816-.848 3.136-2.08.032-.112.048-.208.064-.272.016-.144-.064-.224-.192-.24l-.688-.112c-.128-.016-.224.032-.24.176l-.016.016c0 .016 0 .048-.016.08-.176.816-.976 1.44-2.048 1.44-1.088 0-1.824-.64-2.032-1.568-.08-.32-.144-.848-.144-1.632 0-.72.064-1.28.144-1.616.208-.912.944-1.552 2.032-1.552 1.104 0 1.888.672 2.064 1.456.016.064.032.128.032.192.032.144.112.192.24.176l.704-.08c.128-.016.208-.096.192-.24a3.113 3.113 0 0 0-.096-.432c-.32-1.136-1.52-2.064-3.136-2.064-1.552 0-2.72.88-3.104 2.192-.128.496-.208 1.072-.208 1.952 0 .816.048 1.44.208 1.984.4 1.344 1.536 2.224 3.104 2.224Zm8.616-8.336c-.928 0-1.68.32-2.144.96-.032.064-.08.016-.08-.048v-3.696c0-.128-.08-.208-.208-.208h-.72c-.128 0-.208.08-.208.208v10.784c0 .128.08.208.208.208h.72c.128 0 .208-.08.208-.208v-5.328c.112-1.008.88-1.68 1.968-1.68 1.136 0 1.904.816 1.904 2v5.008c0 .128.08.208.208.208h.72c.128 0 .208-.08.208-.208v-5.232c0-1.68-1.104-2.768-2.784-2.768Zm-172.022 34.336c1.52 0 2.688-.848 3.104-2.224.16-.528.224-1.2.224-1.968 0-.752-.064-1.424-.224-1.968-.4-1.344-1.568-2.192-3.104-2.192-1.584 0-2.736.848-3.152 2.208-.144.512-.208 1.168-.208 1.952 0 .768.064 1.44.224 1.968.416 1.376 1.568 2.224 3.136 2.224Zm0-.992c-1.072 0-1.84-.608-2.08-1.568-.096-.352-.128-.928-.128-1.616 0-.672.032-1.264.128-1.616.256-.944 1.008-1.568 2.048-1.568 1.072 0 1.84.624 2.08 1.568.096.352.128.912.128 1.616 0 .64-.032 1.232-.128 1.616-.256.96-1.024 1.568-2.048 1.568Zm8.737-9.344h.32c.128 0 .208-.08.208-.208v-.576c0-.128-.08-.208-.208-.208h-.416c-1.984 0-2.544.752-2.544 2.656v.368c0 .048-.032.08-.08.08h-1.008c-.128 0-.208.08-.208.208v.624c0 .128.08.208.208.208h1.008c.048 0 .08.032.08.08v6.768c0 .128.08.208.208.208h.704c.128 0 .208-.08.208-.208v-6.768c0-.048.032-.08.08-.08h1.728c.128 0 .208-.08.208-.208v-.624c0-.128-.08-.208-.208-.208h-1.728c-.048 0-.08-.032-.08-.08v-.304c0-1.216.304-1.728 1.52-1.728Zm8.81 10.336c1.52 0 2.688-.848 3.104-2.224.16-.528.224-1.2.224-1.968 0-.752-.064-1.424-.224-1.968-.4-1.344-1.568-2.192-3.104-2.192-1.584 0-2.736.848-3.152 2.208-.144.512-.208 1.168-.208 1.952 0 .768.064 1.44.224 1.968.416 1.376 1.568 2.224 3.136 2.224Zm0-.992c-1.072 0-1.84-.608-2.08-1.568-.096-.352-.128-.928-.128-1.616 0-.672.032-1.264.128-1.616.256-.944 1.008-1.568 2.048-1.568 1.072 0 1.84.624 2.08 1.568.096.352.128.912.128 1.616 0 .64-.032 1.232-.128 1.616-.256.96-1.024 1.568-2.048 1.568Zm10.527-7.024v5.024c0 1.184-.768 1.984-1.984 1.984-1.184 0-1.904-.784-1.904-1.984v-5.024c0-.128-.08-.208-.208-.208h-.72c-.128 0-.208.08-.208.208v5.36c0 1.712 1.296 2.64 2.816 2.64.976 0 1.68-.352 2.112-.96.048-.064.096-.032.096.032v.608c0 .128.08.208.208.208h.72c.128 0 .208-.08.208-.208v-7.68c0-.128-.08-.208-.208-.208h-.72c-.128 0-.208.08-.208.208Zm6.946-.288c-.928 0-1.616.48-2.048 1.216-.032.064-.08.048-.08-.032v-.896c0-.128-.08-.208-.208-.208h-.72c-.128 0-.208.08-.208.208v7.68c0 .128.08.208.208.208h.72c.128 0 .208-.08.208-.208v-4.672c0-1.2.816-2.064 1.92-2.096.336-.016.592.016.784.08.144.048.224 0 .256-.128l.16-.704c.032-.112 0-.208-.112-.256-.208-.112-.48-.192-.88-.192Zm9.031 0c-.928 0-1.616.48-2.048 1.216-.032.064-.08.048-.08-.032v-.896c0-.128-.08-.208-.208-.208h-.72c-.128 0-.208.08-.208.208v7.68c0 .128.08.208.208.208h.72c.128 0 .208-.08.208-.208v-4.672c0-1.2.816-2.064 1.92-2.096.336-.016.592.016.784.08.144.048.224 0 .256-.128l.16-.704c.032-.112 0-.208-.112-.256-.208-.112-.48-.192-.88-.192Zm5.59 8.304c1.52 0 2.688-.848 3.104-2.224.16-.528.224-1.2.224-1.968 0-.752-.064-1.424-.224-1.968-.4-1.344-1.568-2.192-3.104-2.192-1.584 0-2.736.848-3.152 2.208-.144.512-.208 1.168-.208 1.952 0 .768.064 1.44.224 1.968.416 1.376 1.568 2.224 3.136 2.224Zm0-.992c-1.072 0-1.84-.608-2.08-1.568-.096-.352-.128-.928-.128-1.616 0-.672.032-1.264.128-1.616.256-.944 1.008-1.568 2.048-1.568 1.072 0 1.84.624 2.08 1.568.096.352.128.912.128 1.616 0 .64-.032 1.232-.128 1.616-.256.96-1.024 1.568-2.048 1.568Zm8.43-7.36c-1.648 0-2.832.8-3.04 1.968-.016.112.064.16.192.176l.784.096c.128.016.208-.032.24-.16.176-.672.832-1.088 1.84-1.088 1.328 0 1.872.72 1.872 1.76v.592c0 .048-.032.08-.08.08h-1.856c-2.08 0-3.296.992-3.296 2.592 0 1.68 1.28 2.336 2.64 2.336 1.008 0 1.904-.32 2.496-.944.048-.064.096-.032.096.032v.576c0 .128.08.208.208.208h.72c.128 0 .208-.08.208-.208v-5.328c0-1.584-1.072-2.688-3.024-2.688Zm-.448 7.376c-.976 0-1.76-.448-1.76-1.424 0-1.04.944-1.632 2.336-1.632h1.68c.048 0 .08.032.08.08v1.232c0 1.12-1.152 1.744-2.336 1.744Zm8.476.928c1.808 0 2.976-.912 2.976-2.288 0-1.584-1.552-2.016-2.912-2.4-1.088-.32-1.952-.608-1.952-1.408 0-.768.736-1.232 1.808-1.232 1.2 0 1.92.576 1.92 1.28v.096c0 .064.08.112.208.112h.656c.128 0 .208-.08.208-.208 0-1.264-1.184-2.208-2.976-2.208-1.728 0-2.928.864-2.928 2.24 0 1.52 1.472 1.984 2.848 2.384 1.056.32 1.984.56 1.984 1.424 0 .752-.736 1.328-1.856 1.328-1.152 0-1.92-.64-1.92-1.312v-.144c0-.08-.08-.144-.208-.144h-.688c-.128 0-.208.08-.208.208v.144c0 1.168 1.2 2.128 3.04 2.128Zm8.679-7.44v-.528c0-.128-.08-.208-.208-.208h-1.744c-.048 0-.08-.032-.08-.08v-1.792c0-.128-.08-.208-.208-.208h-.688c-.128 0-.208.08-.208.208v1.792c0 .048-.032.08-.08.08h-.912c-.128 0-.208.08-.208.208v.528c0 .128.08.208.208.208h.912c.048 0 .08.032.08.08v5.024c0 1.664.944 2.032 2.336 2.032h.544c.144-.016.208-.096.208-.224v-.56c0-.128-.08-.208-.208-.208h-.352c-.96 0-1.424-.352-1.424-1.392v-4.672c0-.048.032-.08.08-.08h1.744c.128 0 .208-.08.208-.208Zm5.114 6.512c-1.168 0-1.952-.64-2.176-1.568-.064-.24-.096-.64-.096-1.168 0-.048.032-.08.08-.08h5.12c.128 0 .208-.08.208-.208 0-.752-.016-1.168-.096-1.6-.288-1.68-1.296-2.752-3.2-2.752-1.584 0-2.736.912-3.088 2.288-.128.496-.144 1.04-.144 1.856 0 .896.08 1.616.304 2.208.432 1.232 1.472 2 2.992 2 1.44 0 2.48-.704 2.976-1.744.064-.112.016-.208-.096-.272l-.464-.256c-.112-.064-.224-.016-.272.096-.368.72-1.056 1.184-2.048 1.2Zm-.16-6.384c1.104 0 1.84.64 2.064 1.568.048.224.08.592.096 1.024 0 .048-.032.08-.08.08h-4.112c-.048 0-.08-.032-.08-.08.016-.464.048-.832.128-1.088.208-.88.896-1.504 1.984-1.504Zm8.819-.944c-.928 0-1.616.48-2.048 1.216-.032.064-.08.048-.08-.032v-.896c0-.128-.08-.208-.208-.208h-.72c-.128 0-.208.08-.208.208v7.68c0 .128.08.208.208.208h.72c.128 0 .208-.08.208-.208v-4.672c0-1.2.816-2.064 1.92-2.096.336-.016.592.016.784.08.144.048.224 0 .256-.128l.16-.704c.032-.112 0-.208-.112-.256-.208-.112-.48-.192-.88-.192Zm5.173 8.256c1.808 0 2.976-.912 2.976-2.288 0-1.584-1.552-2.016-2.912-2.4-1.088-.32-1.952-.608-1.952-1.408 0-.768.736-1.232 1.808-1.232 1.2 0 1.92.576 1.92 1.28v.096c0 .064.08.112.208.112h.656c.128 0 .208-.08.208-.208 0-1.264-1.184-2.208-2.976-2.208-1.728 0-2.928.864-2.928 2.24 0 1.52 1.472 1.984 2.848 2.384 1.056.32 1.984.56 1.984 1.424 0 .752-.736 1.328-1.856 1.328-1.152 0-1.92-.64-1.92-1.312v-.144c0-.08-.08-.144-.208-.144h-.688c-.128 0-.208.08-.208.208v.144c0 1.168 1.2 2.128 3.04 2.128Zm5.943-.128c.544 0 .992-.416.992-.944s-.48-.944-.992-.944c-.528 0-.992.416-.992.944s.416.944.992.944Z"/></g><path fill="#FDD6BA" fill-rule="evenodd" d="M194.048 85.104c7.26 7.362 11.79 16.641 12.758 26.122.989 9.657-1.824 18.378-7.912 24.548-5.294 5.368-12.483 8.226-20.523 8.226-1.212 0-2.441-.067-3.688-.198-9.35-.981-18.5-5.576-25.759-12.938-15.114-15.327-17.289-38.052-4.846-50.67 12.434-12.622 34.852-10.413 49.97 4.91Zm-25.52 26.932c5.831 1.62 11.2 3.137 16.153 6.971 3.883 3.007 6.649 6.829 9.446 10.694 1.288 1.78 2.582 3.568 3.995 5.29-1.633-14.332-8.738-26.645-23.097-30.87l-.67-.197c-6.278-1.84-12.011-3.521-17.235-7.876-3.36-2.803-5.833-6.281-8.321-9.78-1.271-1.787-2.546-3.58-3.944-5.29 1.704 14.557 8.994 26.977 23.673 31.058Z" clip-rule="evenodd"/><defs><clipPath id="a"><path fill="#fff" d="M47 200h255v134H47z"/></clipPath></defs></svg>