<svg xmlns="http://www.w3.org/2000/svg" width="350" height="382" fill="none"><rect width="350" height="382" fill="#0E8784" rx="8"/><g fill="#FEFCF7" clip-path="url(#a)"><path d="M68.544 215.628H71.7c.496 0 .848-.096 1.056-.288.216-.2.408-.58.576-1.14.08-.272.196-.468.348-.588a.828.828 0 0 1 .528-.18c.424 0 .692.236.804.708l.936 3.78c.072.296.068.532-.012.708-.072.168-.224.292-.456.372a1.03 1.03 0 0 1-.636.036c-.192-.056-.356-.184-.492-.384-.256-.368-.492-.648-.708-.84a1.686 1.686 0 0 0-.708-.396c-.256-.072-.592-.108-1.008-.108h-3.384v-1.68Zm-5.148-6.612c0-.256.084-.456.252-.6.168-.144.428-.216.78-.216h9.048c.368 0 .672-.036.912-.108.24-.072.464-.144.672-.216a2.35 2.35 0 0 1 .744-.108c.36 0 .632.104.816.312.184.2.344.528.48.984l1.02 3.372c.088.288.088.528 0 .72-.088.192-.256.332-.504.42-.288.104-.548.104-.78 0-.224-.104-.408-.292-.552-.564a12.362 12.362 0 0 0-.972-1.548c-.304-.408-.612-.724-.924-.948a2.799 2.799 0 0 0-.972-.468 4.508 4.508 0 0 0-1.14-.132h-1.62v11.904c0 .488.12.856.36 1.104.248.24.6.36 1.056.36h.564c.6 0 1.128-.092 1.584-.276.464-.192.904-.544 1.32-1.056.416-.52.856-1.268 1.32-2.244.12-.256.28-.428.48-.516.208-.096.44-.12.696-.072.28.056.484.188.612.396.128.2.148.452.06.756l-1.116 3.864c-.128.44-.288.764-.48.972-.184.216-.472.324-.864.324-.248 0-.476-.036-.684-.108-.2-.072-.424-.144-.672-.216a3.234 3.234 0 0 0-.912-.108h-9.552c-.352 0-.612-.072-.78-.216a.77.77 0 0 1-.252-.6c0-.432.208-.728.624-.888l.456-.168c.208-.08.36-.18.456-.3a.755.755 0 0 0 .156-.492v-11.472c0-.2-.052-.36-.156-.48-.096-.128-.248-.232-.456-.312l-.456-.168c-.416-.16-.624-.456-.624-.888Zm20.781 9.576 1.332.648-2.016 2.676c-.272.368-.388.692-.348.972a.767.767 0 0 0 .444.588l.228.108c.16.08.28.172.36.276a.63.63 0 0 1 .12.396c0 .224-.08.404-.24.54-.16.128-.376.192-.648.192h-3.324c-.272 0-.488-.064-.648-.192a.69.69 0 0 1-.228-.54.64.64 0 0 1 .132-.408c.088-.12.244-.244.468-.372.272-.128.516-.28.732-.456.224-.184.46-.416.708-.696.248-.288.544-.648.888-1.08l2.04-2.652Zm2.532-2.832 1.896 2.676.204.24 2.832 3.78c.248.32.444.56.588.72.152.152.3.272.444.36.168.104.292.212.372.324.08.112.12.248.12.408 0 .224-.08.404-.24.54-.16.128-.38.192-.66.192h-6.3c-.288 0-.512-.064-.672-.192a.687.687 0 0 1-.24-.552c0-.16.032-.288.096-.384a.684.684 0 0 1 .312-.24l.24-.096c.168-.064.252-.16.252-.288 0-.136-.084-.32-.252-.552l-1.896-2.712-.216-.264-2.652-3.84c-.184-.272-.368-.472-.552-.6a2.544 2.544 0 0 0-.54-.324c-.208-.088-.352-.192-.432-.312a.9.9 0 0 1-.108-.468c0-.232.08-.412.24-.54.16-.136.38-.204.66-.204h6.144c.272 0 .488.064.648.192.16.128.24.308.24.54 0 .152-.028.28-.084.384a.819.819 0 0 1-.252.276l-.228.156c-.128.088-.192.188-.192.3.008.112.084.272.228.48Zm1.344 4.068-1.332-.648 2.016-2.676c.28-.368.396-.688.348-.96a.741.741 0 0 0-.444-.6l-.228-.108a1.02 1.02 0 0 1-.36-.276.663.663 0 0 1-.12-.396c0-.232.08-.412.24-.54.16-.128.376-.192.648-.192h3.324c.28 0 .496.064.648.192.152.128.228.308.228.54 0 .16-.044.3-.132.42-.088.112-.244.232-.468.36-.4.184-.76.44-1.08.768-.312.328-.728.816-1.248 1.464l-2.04 2.652Zm17.942-3.048c0 .608-.232 1.124-.696 1.548-.456.424-1.068.636-1.836.636-.744 0-1.304-.196-1.68-.588-.368-.4-.552-.908-.552-1.524v-.384c0-.52-.108-.928-.324-1.224-.216-.304-.5-.456-.852-.456-.28 0-.544.104-.792.312-.24.208-.436.528-.588.96-.152.424-.228.964-.228 1.62 0 .928.156 1.704.468 2.328.32.624.756 1.096 1.308 1.416.552.312 1.18.468 1.884.468.512 0 .972-.06 1.38-.18.416-.128.828-.372 1.236-.732.232-.208.408-.348.528-.42a.677.677 0 0 1 .348-.108c.16 0 .276.08.348.24.08.16.12.356.12.588 0 .712-.24 1.38-.72 2.004-.472.616-1.132 1.112-1.98 1.488-.848.376-1.832.564-2.952.564-1.224 0-2.324-.24-3.3-.72-.968-.488-1.736-1.164-2.304-2.028-.568-.872-.852-1.888-.852-3.048 0-1.24.272-2.348.816-3.324a5.969 5.969 0 0 1 2.328-2.304c1.008-.56 2.196-.84 3.564-.84 1.096 0 2.04.168 2.832.504.8.328 1.416.772 1.848 1.332a2.99 2.99 0 0 1 .648 1.872Zm7.635-8.82v14.52c0 .32.024.548.072.684.048.128.132.22.252.276l.264.12c.184.08.316.18.396.3.08.12.12.26.12.42 0 .224-.072.4-.216.528-.144.128-.376.192-.696.192h-5.472c-.32 0-.552-.064-.696-.192-.144-.128-.216-.304-.216-.528 0-.16.04-.3.12-.42.08-.12.212-.22.396-.3l.264-.12a.477.477 0 0 0 .252-.276c.048-.136.072-.364.072-.684v-11.832c0-.256-.036-.436-.108-.54a.488.488 0 0 0-.3-.228l-.264-.084a.754.754 0 0 1-.372-.24.68.68 0 0 1-.108-.396c0-.192.052-.344.156-.456.104-.112.3-.224.588-.336l2.664-1.032a9.724 9.724 0 0 1 1.02-.348c.248-.072.468-.108.66-.108.384 0 .672.104.864.312.192.2.288.456.288.768Zm11.042 14.58v-.156h-.18v-5.544c0-.256-.036-.436-.108-.54a.488.488 0 0 0-.3-.228l-.264-.084a.754.754 0 0 1-.372-.24.68.68 0 0 1-.108-.396c0-.192.052-.344.156-.456.104-.112.3-.224.588-.336l2.664-1.032c.408-.16.736-.276.984-.348.256-.072.504-.108.744-.108.36 0 .632.104.816.312.192.2.288.456.288.768v8.328c0 .32.024.548.072.684.048.128.132.22.252.276l.264.12c.184.08.316.18.396.3.08.12.12.26.12.42 0 .224-.072.4-.216.528-.144.128-.376.192-.696.192h-2.94c-.568 0-1.072-.244-1.512-.732a2.522 2.522 0 0 1-.648-1.728Zm-7.932-1.044v-4.656c0-.256-.036-.436-.108-.54a.488.488 0 0 0-.3-.228l-.264-.084a.754.754 0 0 1-.372-.24.68.68 0 0 1-.108-.396c0-.192.052-.344.156-.456.104-.112.3-.224.588-.336l2.664-1.032a9.724 9.724 0 0 1 1.02-.348c.248-.072.468-.108.66-.108.384 0 .672.104.864.312.192.2.288.456.288.768v6.624c0 .512.116.896.348 1.152.24.256.572.384.996.384.264 0 .54-.052.828-.156a2.33 2.33 0 0 0 .768-.456l.42-.372.72.768-.36.336c-1.128 1.08-2.108 1.836-2.94 2.268-.832.424-1.596.636-2.292.636-1.064 0-1.928-.356-2.592-1.068-.656-.712-.984-1.636-.984-2.772Zm21.031-6.9c-.472 0-.824.1-1.056.3a.933.933 0 0 0-.336.72c0 .168.032.328.096.48.064.144.212.276.444.396s.6.224 1.104.312c1.488.248 2.62.58 3.396.996.776.408 1.304.892 1.584 1.452.288.56.432 1.196.432 1.908 0 1.304-.456 2.328-1.368 3.072-.904.736-2.244 1.104-4.02 1.104-.608 0-1.096-.048-1.464-.144a6.607 6.607 0 0 1-.876-.288 1.466 1.466 0 0 0-.588-.144.778.778 0 0 0-.48.144l-.384.288a.798.798 0 0 1-.492.144c-.2 0-.352-.06-.456-.18-.096-.112-.188-.316-.276-.612l-.624-2.124c-.128-.424-.164-.756-.108-.996a.692.692 0 0 1 .456-.516c.256-.096.48-.1.672-.012.192.088.376.264.552.528.368.536.748.98 1.14 1.332.4.352.816.616 1.248.792.44.176.892.264 1.356.264.536 0 .936-.1 1.2-.3a.948.948 0 0 0 .408-.804.885.885 0 0 0-.168-.54c-.104-.152-.324-.288-.66-.408-.328-.128-.828-.252-1.5-.372-1.16-.208-2.084-.504-2.772-.888-.68-.392-1.168-.872-1.464-1.44-.296-.576-.444-1.244-.444-2.004 0-.808.216-1.508.648-2.1.44-.6 1.036-1.064 1.788-1.392.76-.328 1.624-.492 2.592-.492.632 0 1.128.052 1.488.156.368.096.664.196.888.3.232.096.46.144.684.144a.953.953 0 0 0 .54-.144c.152-.104.3-.204.444-.3a.838.838 0 0 1 .504-.156c.176 0 .324.064.444.192s.208.348.264.66l.372 2.052c.072.408.076.716.012.924-.056.2-.2.348-.432.444-.248.104-.468.104-.66 0-.192-.112-.388-.308-.588-.588-.56-.808-1.148-1.368-1.764-1.68-.608-.32-1.2-.48-1.776-.48Zm13.265-.444v8.328c0 .32.024.548.072.684.048.128.132.22.252.276l.264.12c.184.08.316.18.396.3.08.12.12.26.12.42 0 .224-.072.4-.216.528-.144.128-.376.192-.696.192h-5.472c-.32 0-.552-.064-.696-.192-.144-.128-.216-.304-.216-.528 0-.16.04-.3.12-.42.08-.12.212-.22.396-.3l.264-.12a.477.477 0 0 0 .252-.276c.048-.136.072-.364.072-.684v-5.64c0-.256-.036-.436-.108-.54a.488.488 0 0 0-.3-.228l-.264-.084a.754.754 0 0 1-.372-.24.68.68 0 0 1-.108-.396c0-.192.052-.344.156-.456.104-.112.3-.224.588-.336l2.664-1.032a9.724 9.724 0 0 1 1.02-.348c.248-.072.468-.108.66-.108.384 0 .672.104.864.312.192.2.288.456.288.768Zm-2.808-2.136c-.896 0-1.604-.208-2.124-.624-.52-.416-.78-.984-.78-1.704 0-.712.26-1.272.78-1.68.52-.408 1.228-.612 2.124-.612.896 0 1.604.204 2.124.612.52.408.78.968.78 1.68 0 .72-.26 1.288-.78 1.704-.52.416-1.228.624-2.124.624ZM160.578 225h-1.944c-.336 0-.628-.084-.876-.252-.248-.176-.448-.448-.6-.816l-3.348-8.16c-.12-.288-.216-.48-.288-.576a.604.604 0 0 0-.24-.216l-.252-.12a.901.901 0 0 1-.348-.276.786.786 0 0 1-.108-.432c0-.224.076-.4.228-.528.16-.128.376-.192.648-.192h6.456c.576 0 .864.24.864.72a.64.64 0 0 1-.144.432c-.088.104-.236.188-.444.252l-.324.096c-.32.096-.516.252-.588.468-.072.216-.008.584.192 1.104l2.352 6.144-1.152.684 2.46-6.828c.192-.528.252-.9.18-1.116-.072-.216-.264-.368-.576-.456l-.324-.096c-.2-.064-.348-.148-.444-.252a.64.64 0 0 1-.144-.432c0-.224.076-.4.228-.528.16-.128.372-.192.636-.192h3.108c.272 0 .484.064.636.192a.64.64 0 0 1 .24.528.777.777 0 0 1-.108.408c-.072.112-.212.204-.42.276l-.228.084c-.144.056-.284.208-.42.456-.128.24-.3.636-.516 1.188l-2.892 7.476c-.152.384-.364.64-.636.768s-.56.192-.864.192Zm18.876-7.296c0 .56-.152.996-.456 1.308-.304.304-.74.456-1.308.456h-7.116v-1.248h3.204c.44 0 .66-.208.66-.624 0-1.008-.116-1.728-.348-2.16-.232-.432-.54-.648-.924-.648-.28 0-.532.104-.756.312-.224.208-.404.528-.54.96-.128.424-.192.964-.192 1.62 0 1.456.328 2.524.984 3.204.656.672 1.552 1.008 2.688 1.008.528 0 1.008-.06 1.44-.18.432-.12.856-.364 1.272-.732.232-.208.408-.348.528-.42a.677.677 0 0 1 .348-.108c.16 0 .276.08.348.24.08.16.12.356.12.588 0 .712-.244 1.38-.732 2.004-.48.616-1.152 1.112-2.016 1.488-.856.376-1.856.564-3 .564-1.224 0-2.324-.24-3.3-.72-.976-.488-1.748-1.164-2.316-2.028-.568-.872-.852-1.888-.852-3.048 0-1.304.26-2.44.78-3.408a5.457 5.457 0 0 1 2.268-2.256c1-.536 2.204-.804 3.612-.804 1.24 0 2.276.2 3.108.6.832.4 1.456.948 1.872 1.644.416.696.624 1.492.624 2.388Zm12.027-9.744v16.152l-1.992.672a20.18 20.18 0 0 1-1.428.432 3.316 3.316 0 0 1-.756.096c-.272 0-.492-.076-.66-.228-.168-.152-.252-.372-.252-.66v-13.776c0-.256-.036-.436-.108-.54a.488.488 0 0 0-.3-.228l-.264-.084a.754.754 0 0 1-.372-.24.68.68 0 0 1-.108-.396c0-.192.052-.344.156-.456.104-.112.3-.224.588-.336l2.664-1.032a9.724 9.724 0 0 1 1.02-.348c.248-.072.468-.108.66-.108.384 0 .672.104.864.312.192.2.288.456.288.768Zm-.9 9.528-.852-.816c.688-1.12 1.46-2 2.316-2.64.856-.64 1.836-.96 2.94-.96.952 0 1.804.244 2.556.732s1.344 1.164 1.776 2.028c.44.856.66 1.848.66 2.976 0 1.304-.268 2.448-.804 3.432a5.848 5.848 0 0 1-2.196 2.28c-.928.544-1.976.816-3.144.816-.968 0-1.816-.204-2.544-.612-.72-.416-1.344-1.044-1.872-1.884l1.308-.888c.368.528.716.904 1.044 1.128.328.216.684.324 1.068.324.376 0 .704-.136.984-.408.288-.272.508-.708.66-1.308.16-.6.24-1.388.24-2.364 0-.896-.084-1.616-.252-2.16-.16-.552-.38-.952-.66-1.2a1.397 1.397 0 0 0-.972-.384c-.44 0-.844.152-1.212.456-.368.296-.716.78-1.044 1.452Zm22.834.216c0 .56-.152.996-.457 1.308-.303.304-.739.456-1.307.456h-7.116v-1.248h3.204c.44 0 .66-.208.66-.624 0-1.008-.116-1.728-.348-2.16-.232-.432-.54-.648-.924-.648-.28 0-.532.104-.756.312-.224.208-.404.528-.54.96-.128.424-.192.964-.192 1.62 0 1.456.328 2.524.983 3.204.657.672 1.553 1.008 2.689 1.008.528 0 1.008-.06 1.44-.18.432-.12.856-.364 1.272-.732.232-.208.408-.348.528-.42a.676.676 0 0 1 .347-.108c.161 0 .277.08.349.24.08.16.12.356.12.588 0 .712-.244 1.38-.732 2.004-.48.616-1.152 1.112-2.016 1.488-.856.376-1.856.564-3.001.564-1.223 0-2.323-.24-3.299-.72-.976-.488-1.748-1.164-2.316-2.028-.568-.872-.852-1.888-.852-3.048 0-1.304.26-2.44.78-3.408a5.457 5.457 0 0 1 2.268-2.256c1-.536 2.204-.804 3.612-.804 1.24 0 2.276.2 3.108.6.832.4 1.456.948 1.872 1.644.416.696.624 1.492.624 2.388Zm7.465-3.552v8.328c0 .32.024.544.072.672a.525.525 0 0 0 .252.288l.24.132c.264.152.396.372.396.66 0 .512-.308.768-.924.768H215.6c-.32 0-.552-.064-.696-.192-.144-.128-.216-.304-.216-.528 0-.16.04-.3.12-.42.08-.12.212-.22.396-.3l.264-.12a.477.477 0 0 0 .252-.276c.048-.136.072-.364.072-.684v-5.64c0-.256-.036-.436-.108-.54a.488.488 0 0 0-.3-.228l-.264-.084a.754.754 0 0 1-.372-.24.68.68 0 0 1-.108-.396c0-.192.052-.344.156-.456.104-.112.3-.224.588-.336l2.664-1.032c.408-.16.736-.276.984-.348.256-.072.504-.108.744-.108.36 0 .632.104.816.312.192.2.288.456.288.768Zm-.432 2.928-.72-.768.36-.336c1.128-1.08 2.108-1.832 2.94-2.256.832-.432 1.596-.648 2.292-.648 1.072 0 1.936.356 2.592 1.068.656.704.984 1.628.984 2.772v5.568c0 .32.024.548.072.684.048.128.132.22.252.276l.264.12c.184.08.316.18.396.3.08.12.12.26.12.42 0 .224-.072.4-.216.528-.144.128-.376.192-.696.192h-5.316c-.616 0-.924-.256-.924-.768 0-.288.132-.508.396-.66l.24-.132a.525.525 0 0 0 .252-.288c.048-.128.072-.352.072-.672v-4.848c0-.512-.12-.896-.36-1.152-.232-.256-.56-.384-.984-.384-.264 0-.54.052-.828.156a2.33 2.33 0 0 0-.768.456l-.42.372Zm22.849.624c0 .56-.152.996-.456 1.308-.304.304-.74.456-1.308.456h-7.116v-1.248h3.204c.44 0 .66-.208.66-.624 0-1.008-.116-1.728-.348-2.16-.232-.432-.54-.648-.924-.648-.28 0-.532.104-.756.312-.224.208-.404.528-.54.96-.128.424-.192.964-.192 1.62 0 1.456.328 2.524.984 3.204.656.672 1.552 1.008 2.688 1.008.528 0 1.008-.06 1.44-.18.432-.12.856-.364 1.272-.732.232-.208.408-.348.528-.42a.677.677 0 0 1 .348-.108c.16 0 .276.08.348.24.08.16.12.356.12.588 0 .712-.244 1.38-.732 2.004-.48.616-1.152 1.112-2.016 1.488-.856.376-1.856.564-3 .564-1.224 0-2.324-.24-3.3-.72-.976-.488-1.748-1.164-2.316-2.028-.568-.872-.852-1.888-.852-3.048 0-1.304.26-2.44.78-3.408a5.457 5.457 0 0 1 2.268-2.256c1-.536 2.204-.804 3.612-.804 1.24 0 2.276.2 3.108.6.832.4 1.456.948 1.872 1.644.416.696.624 1.492.624 2.388Zm8.186 4.764c0 .288.04.508.12.66.088.152.24.24.456.264l1.236.156c.24.024.408.104.504.24a.768.768 0 0 1 .156.48c0 .488-.292.732-.876.732h-7.464c-.264 0-.476-.06-.636-.18a.64.64 0 0 1-.228-.516c0-.2.052-.36.156-.48.104-.128.272-.228.504-.3l.312-.096c.256-.08.432-.192.528-.336.096-.144.144-.344.144-.6v-6a.663.663 0 0 0-.12-.396c-.08-.112-.236-.22-.468-.324l-.444-.204c-.304-.144-.516-.28-.636-.408a.7.7 0 0 1-.168-.456c0-.192.068-.348.204-.468.144-.128.364-.192.66-.192h2.028l-1.032.384v-.36c0-.16-.072-.324-.216-.492-.144-.168-.312-.36-.504-.576a3.276 3.276 0 0 1-.504-.78c-.144-.312-.216-.688-.216-1.128 0-1.088.436-1.964 1.308-2.628.872-.672 2.104-1.008 3.696-1.008 1.016 0 1.872.156 2.568.468.696.304 1.22.712 1.572 1.224.36.504.54 1.052.54 1.644 0 .656-.188 1.156-.564 1.5-.376.344-.86.516-1.452.516-.672 0-1.208-.192-1.608-.576-.4-.392-.6-.916-.6-1.572v-.984c0-.328-.1-.568-.3-.72-.192-.16-.436-.24-.732-.24-.344 0-.604.104-.78.312-.168.2-.252.488-.252.864 0 .4.088.76.264 1.08.184.32.408.612.672.876.272.264.54.516.804.756.272.24.496.48.672.72.184.24.276.496.276.768v.66l-.528-.708h2.82c.248 0 .444.056.588.168a.518.518 0 0 1 .228.456c0 .304-.148.56-.444.768-.296.208-.784.312-1.464.312h-.78v6.72Zm10.248-8.316v8.328c0 .32.024.548.072.684.048.128.132.22.252.276l.264.12c.184.08.316.18.396.3.08.12.12.26.12.42 0 .224-.072.4-.216.528-.144.128-.376.192-.696.192h-5.472c-.32 0-.552-.064-.696-.192-.144-.128-.216-.304-.216-.528 0-.16.04-.3.12-.42.08-.12.212-.22.396-.3l.264-.12a.477.477 0 0 0 .252-.276c.048-.136.072-.364.072-.684v-5.64c0-.256-.036-.436-.108-.54a.488.488 0 0 0-.3-.228l-.264-.084a.754.754 0 0 1-.372-.24.68.68 0 0 1-.108-.396c0-.192.052-.344.156-.456.104-.112.3-.224.588-.336l2.664-1.032a9.724 9.724 0 0 1 1.02-.348c.248-.072.468-.108.66-.108.384 0 .672.104.864.312.192.2.288.456.288.768Zm-2.808-2.136c-.896 0-1.604-.208-2.124-.624-.52-.416-.78-.984-.78-1.704 0-.712.26-1.272.78-1.68.52-.408 1.228-.612 2.124-.612.896 0 1.604.204 2.124.612.52.408.78.968.78 1.68 0 .72-.26 1.288-.78 1.704-.52.416-1.228.624-2.124.624Zm5.51 2.976-.384-.156a.944.944 0 0 1-.396-.276.64.64 0 0 1-.132-.408c0-.232.076-.408.228-.528.16-.128.364-.192.612-.192h.66c.152 0 .292-.04.42-.12a2.85 2.85 0 0 0 .516-.432l1.956-1.98c.264-.264.508-.46.732-.588.232-.128.452-.192.66-.192.232 0 .412.076.54.228.136.152.204.372.204.66v9.624c0 .584.1 1.028.3 1.332.2.304.488.456.864.456.304 0 .536-.076.696-.228.168-.152.3-.324.396-.516.104-.2.212-.376.324-.528a.537.537 0 0 1 .456-.228.48.48 0 0 1 .384.168c.096.112.144.304.144.576 0 .68-.196 1.3-.588 1.86-.392.552-.932.992-1.62 1.32-.688.328-1.472.492-2.352.492-1.304 0-2.312-.312-3.024-.936-.712-.632-1.068-1.584-1.068-2.856v-5.772c0-.232-.044-.4-.132-.504-.08-.104-.212-.196-.396-.276Zm3.864.144v-1.704h4.38c.248 0 .444.056.588.168a.518.518 0 0 1 .228.456c0 .304-.148.56-.444.768-.296.208-.784.312-1.464.312h-3.288Zm11.997-.54c-.472 0-.824.1-1.056.3a.933.933 0 0 0-.336.72c0 .168.032.328.096.48.064.144.212.276.444.396s.6.224 1.104.312c1.488.248 2.62.58 3.396.996.776.408 1.304.892 1.584 1.452.288.56.432 1.196.432 1.908 0 1.304-.456 2.328-1.368 3.072-.904.736-2.244 1.104-4.02 1.104-.608 0-1.096-.048-1.464-.144a6.607 6.607 0 0 1-.876-.288 1.466 1.466 0 0 0-.588-.144.778.778 0 0 0-.48.144l-.384.288a.798.798 0 0 1-.492.144c-.2 0-.352-.06-.456-.18-.096-.112-.188-.316-.276-.612l-.624-2.124c-.128-.424-.164-.756-.108-.996a.692.692 0 0 1 .456-.516c.256-.096.48-.1.672-.012.192.088.376.264.552.528.368.536.748.98 1.14 1.332.4.352.816.616 1.248.792.44.176.892.264 1.356.264.536 0 .936-.1 1.2-.3a.948.948 0 0 0 .408-.804.885.885 0 0 0-.168-.54c-.104-.152-.324-.288-.66-.408-.328-.128-.828-.252-1.5-.372-1.16-.208-2.084-.504-2.772-.888-.68-.392-1.168-.872-1.464-1.44-.296-.576-.444-1.244-.444-2.004 0-.808.216-1.508.648-2.1.44-.6 1.036-1.064 1.788-1.392.76-.328 1.624-.492 2.592-.492.632 0 1.128.052 1.488.156.368.096.664.196.888.3.232.096.46.144.684.144a.953.953 0 0 0 .54-.144c.152-.104.3-.204.444-.3a.838.838 0 0 1 .504-.156c.176 0 .324.064.444.192s.208.348.264.66l.372 2.052c.072.408.076.716.012.924-.056.2-.2.348-.432.444-.248.104-.468.104-.66 0-.192-.112-.388-.308-.588-.588-.56-.808-1.148-1.368-1.764-1.68-.608-.32-1.2-.48-1.776-.48ZM63.916 275.128c2.384 0 3.728-1.2 3.728-2.944 0-1.824-1.504-2.576-3.472-3.376-1.936-.752-2.832-1.136-2.832-2.336 0-1.168.832-1.808 2.336-1.808 1.792 0 2.752.912 2.752 2.112v.24c0 .128.08.208.208.208h.704c.128 0 .208-.08.208-.208v-.304c0-1.824-1.44-3.04-3.808-3.04-2.176 0-3.52 1.024-3.52 2.832 0 1.84 1.424 2.432 3.344 3.2 2.08.864 2.944 1.392 2.944 2.528 0 1.12-.832 1.904-2.512 1.904-1.76 0-2.832-.864-2.832-2.064v-.384c0-.128-.08-.208-.208-.208h-.688c-.128 0-.208.08-.208.208v.448c0 1.808 1.488 2.992 3.856 2.992Zm12.175-6.208c-.384-1.296-1.408-2.144-2.928-2.144-.848 0-1.568.352-2.032.976-.048.048-.096.032-.096-.032v-.608c0-.128-.08-.208-.208-.208h-.72c-.128 0-.208.08-.208.208v10.784c0 .128.08.208.208.208h.72c.128 0 .208-.08.208-.208V274.2c0-.064.048-.096.096-.032.464.608 1.184.96 2.032.96 1.552 0 2.576-.864 2.96-2.192.16-.544.192-1.2.192-1.984 0-.816-.048-1.472-.224-2.032Zm-1.28 4.048c-.272.688-.912 1.168-1.776 1.168-.848 0-1.424-.496-1.68-1.2-.192-.432-.288-.912-.288-1.984 0-1.056.08-1.536.272-1.952.256-.72.832-1.232 1.712-1.232.896 0 1.584.48 1.84 1.248.192.432.288.896.288 1.936 0 1.104-.128 1.584-.368 2.016Zm6.91 1.184c-1.168 0-1.952-.64-2.176-1.568-.064-.24-.096-.64-.096-1.168 0-.048.032-.08.08-.08h5.12c.128 0 .208-.08.208-.208 0-.752-.016-1.168-.096-1.6-.288-1.68-1.296-2.752-3.2-2.752-1.584 0-2.736.912-3.088 2.288-.128.496-.144 1.04-.144 1.856 0 .896.08 1.616.304 2.208.432 1.232 1.472 2 2.992 2 1.44 0 2.48-.704 2.976-1.744.064-.112.016-.208-.096-.272l-.464-.256c-.112-.064-.224-.016-.272.096-.368.72-1.056 1.184-2.048 1.2Zm-.16-6.384c1.104 0 1.84.64 2.064 1.568.048.224.08.592.096 1.024 0 .048-.032.08-.08.08H79.53c-.048 0-.08-.032-.08-.08.016-.464.048-.832.128-1.088.208-.88.896-1.504 1.984-1.504Zm8.61 7.36c1.569 0 2.817-.848 3.137-2.08.032-.112.048-.208.064-.272.016-.144-.064-.224-.192-.24l-.688-.112c-.128-.016-.224.032-.24.176l-.016.016c0 .016 0 .048-.016.08-.176.816-.976 1.44-2.048 1.44-1.088 0-1.824-.64-2.032-1.568-.08-.32-.144-.848-.144-1.632 0-.72.064-1.28.144-1.616.208-.912.944-1.552 2.032-1.552 1.104 0 1.888.672 2.064 1.456a.803.803 0 0 1 .032.192c.032.144.112.192.24.176l.704-.08c.128-.016.208-.096.192-.24a3.113 3.113 0 0 0-.096-.432c-.32-1.136-1.52-2.064-3.136-2.064-1.552 0-2.72.88-3.104 2.192-.128.496-.208 1.072-.208 1.952 0 .816.048 1.44.208 1.984.4 1.344 1.536 2.224 3.104 2.224Zm5.945-9.68c.512 0 .864-.336.864-.832 0-.48-.352-.816-.864-.816s-.864.336-.864.816c0 .496.352.832.864.832ZM95.764 275h.72c.128 0 .208-.08.208-.208v-7.68c0-.128-.08-.208-.208-.208h-.72c-.128 0-.208.08-.208.208v7.68c0 .128.08.208.208.208Zm6.386-8.224c-1.648 0-2.832.8-3.04 1.968-.016.112.064.16.192.176l.784.096c.128.016.208-.032.24-.16.176-.672.832-1.088 1.84-1.088 1.328 0 1.872.72 1.872 1.76v.592c0 .048-.032.08-.08.08h-1.856c-2.08 0-3.296.992-3.296 2.592 0 1.68 1.28 2.336 2.64 2.336 1.008 0 1.904-.32 2.496-.944.048-.064.096-.032.096.032v.576c0 .128.08.208.208.208h.72c.128 0 .208-.08.208-.208v-5.328c0-1.584-1.072-2.688-3.024-2.688Zm-.448 7.376c-.976 0-1.76-.448-1.76-1.424 0-1.04.944-1.632 2.336-1.632h1.68c.048 0 .08.032.08.08v1.232c0 1.12-1.152 1.744-2.336 1.744Zm6.028.848h.72c.128 0 .208-.08.208-.208v-10.784c0-.128-.08-.208-.208-.208h-.72c-.128 0-.208.08-.208.208v10.784c0 .128.08.208.208.208Zm9.818.128c1.52 0 2.688-.848 3.104-2.224.16-.528.224-1.2.224-1.968 0-.752-.064-1.424-.224-1.968-.4-1.344-1.568-2.192-3.104-2.192-1.584 0-2.736.848-3.152 2.208-.144.512-.208 1.168-.208 1.952 0 .768.064 1.44.224 1.968.416 1.376 1.568 2.224 3.136 2.224Zm0-.992c-1.072 0-1.84-.608-2.08-1.568-.096-.352-.128-.928-.128-1.616 0-.672.032-1.264.128-1.616.256-.944 1.008-1.568 2.048-1.568 1.072 0 1.84.624 2.08 1.568.096.352.128.912.128 1.616 0 .64-.032 1.232-.128 1.616-.256.96-1.024 1.568-2.048 1.568Zm8.737-9.344h.32c.128 0 .208-.08.208-.208v-.576c0-.128-.08-.208-.208-.208h-.416c-1.984 0-2.544.752-2.544 2.656v.368c0 .048-.032.08-.08.08h-1.008c-.128 0-.208.08-.208.208v.624c0 .128.08.208.208.208h1.008c.048 0 .08.032.08.08v6.768c0 .128.08.208.208.208h.704c.128 0 .208-.08.208-.208v-6.768c0-.048.032-.08.08-.08h1.728c.128 0 .208-.08.208-.208v-.624c0-.128-.08-.208-.208-.208h-1.728c-.048 0-.08-.032-.08-.08v-.304c0-1.216.304-1.728 1.52-1.728Zm5.703 0h.32c.128 0 .208-.08.208-.208v-.576c0-.128-.08-.208-.208-.208h-.416c-1.984 0-2.544.752-2.544 2.656v.368c0 .048-.032.08-.08.08h-1.008c-.128 0-.208.08-.208.208v.624c0 .128.08.208.208.208h1.008c.048 0 .08.032.08.08v6.768c0 .128.08.208.208.208h.704c.128 0 .208-.08.208-.208v-6.768c0-.048.032-.08.08-.08h1.728c.128 0 .208-.08.208-.208v-.624c0-.128-.08-.208-.208-.208h-1.728c-.048 0-.08-.032-.08-.08v-.304c0-1.216.304-1.728 1.52-1.728Zm4.905 9.36c-1.168 0-1.952-.64-2.176-1.568-.064-.24-.096-.64-.096-1.168 0-.048.032-.08.08-.08h5.12c.128 0 .208-.08.208-.208 0-.752-.016-1.168-.096-1.6-.288-1.68-1.296-2.752-3.2-2.752-1.584 0-2.736.912-3.088 2.288-.128.496-.144 1.04-.144 1.856 0 .896.08 1.616.304 2.208.432 1.232 1.472 2 2.992 2 1.44 0 2.48-.704 2.976-1.744.064-.112.016-.208-.096-.272l-.464-.256c-.112-.064-.224-.016-.272.096-.368.72-1.056 1.184-2.048 1.2Zm-.16-6.384c1.104 0 1.84.64 2.064 1.568.048.224.08.592.096 1.024 0 .048-.032.08-.08.08h-4.112c-.048 0-.08-.032-.08-.08.016-.464.048-.832.128-1.088.208-.88.896-1.504 1.984-1.504Zm8.819-.944c-.928 0-1.616.48-2.048 1.216-.032.064-.08.048-.08-.032v-.896c0-.128-.08-.208-.208-.208h-.72c-.128 0-.208.08-.208.208v7.68c0 .128.08.208.208.208h.72c.128 0 .208-.08.208-.208v-4.672c0-1.2.816-2.064 1.92-2.096.336-.016.592.016.784.08.144.048.224 0 .256-.128l.16-.704c.032-.112 0-.208-.112-.256-.208-.112-.48-.192-.88-.192Zm5.173 8.256c1.808 0 2.976-.912 2.976-2.288 0-1.584-1.552-2.016-2.912-2.4-1.088-.32-1.952-.608-1.952-1.408 0-.768.736-1.232 1.808-1.232 1.2 0 1.92.576 1.92 1.28v.096c0 .064.08.112.208.112h.656c.128 0 .208-.08.208-.208 0-1.264-1.184-2.208-2.976-2.208-1.728 0-2.928.864-2.928 2.24 0 1.52 1.472 1.984 2.848 2.384 1.056.32 1.984.56 1.984 1.424 0 .752-.736 1.328-1.856 1.328-1.152 0-1.92-.64-1.92-1.312v-.144c0-.08-.08-.144-.208-.144h-.688c-.128 0-.208.08-.208.208v.144c0 1.168 1.2 2.128 3.04 2.128Zm11.066-8.304c-1.648 0-2.832.8-3.04 1.968-.016.112.064.16.192.176l.784.096c.128.016.208-.032.24-.16.176-.672.832-1.088 1.84-1.088 1.328 0 1.872.72 1.872 1.76v.592c0 .048-.032.08-.08.08h-1.856c-2.08 0-3.296.992-3.296 2.592 0 1.68 1.28 2.336 2.64 2.336 1.008 0 1.904-.32 2.496-.944.048-.064.096-.032.096.032v.576c0 .128.08.208.208.208h.72c.128 0 .208-.08.208-.208v-5.328c0-1.584-1.072-2.688-3.024-2.688Zm-.448 7.376c-.976 0-1.76-.448-1.76-1.424 0-1.04.944-1.632 2.336-1.632h1.68c.048 0 .08.032.08.08v1.232c0 1.12-1.152 1.744-2.336 1.744Zm9.18-7.36c-.928 0-1.68.32-2.144.96-.032.064-.08.016-.08-.048v-.592c0-.128-.08-.208-.208-.208h-.72c-.128 0-.208.08-.208.208v7.68c0 .128.08.208.208.208h.72c.128 0 .208-.08.208-.208v-5.328c.112-1.008.88-1.68 1.968-1.68 1.136 0 1.904.816 1.904 2v5.008c0 .128.08.208.208.208h.72c.128 0 .208-.08.208-.208v-5.232c0-1.68-1.104-2.768-2.784-2.768Zm10.241-2.784v3.696c0 .064-.048.096-.096.032-.464-.608-1.184-.96-2.032-.96-1.552 0-2.576.864-2.96 2.192-.16.544-.192 1.2-.192 1.984 0 .816.048 1.472.224 2.032.384 1.296 1.408 2.144 2.928 2.144.848 0 1.568-.352 2.032-.976.048-.048.096-.032.096.032v.608c0 .128.08.208.208.208h.72c.128 0 .208-.08.208-.208v-10.784c0-.128-.08-.208-.208-.208h-.72c-.128 0-.208.08-.208.208Zm-.304 8.896c-.256.72-.832 1.232-1.712 1.232-.896 0-1.584-.48-1.84-1.248-.192-.432-.288-.896-.288-1.936 0-1.104.128-1.584.368-2.016.272-.688.912-1.168 1.776-1.168.848 0 1.424.496 1.68 1.2.192.432.288.912.288 1.984 0 1.056-.08 1.536-.272 1.952Zm9.859 2.176c1.808 0 2.976-.912 2.976-2.288 0-1.584-1.552-2.016-2.912-2.4-1.088-.32-1.952-.608-1.952-1.408 0-.768.736-1.232 1.808-1.232 1.2 0 1.92.576 1.92 1.28v.096c0 .064.08.112.208.112h.656c.128 0 .208-.08.208-.208 0-1.264-1.184-2.208-2.976-2.208-1.728 0-2.928.864-2.928 2.24 0 1.52 1.472 1.984 2.848 2.384 1.056.32 1.984.56 1.984 1.424 0 .752-.736 1.328-1.856 1.328-1.152 0-1.92-.64-1.92-1.312v-.144c0-.08-.08-.144-.208-.144h-.688c-.128 0-.208.08-.208.208v.144c0 1.168 1.2 2.128 3.04 2.128Zm6.275-.08h.8c.112 0 .192-.048.224-.176l1.664-5.904c.016-.064.08-.064.096 0l1.728 5.904c.032.128.112.176.224.176h.784c.112 0 .192-.048.224-.176l2.272-7.664c.048-.144-.032-.24-.176-.24l-.736-.016c-.112 0-.208.048-.24.176l-1.712 6.24c-.016.064-.08.064-.096 0l-1.744-6.24c-.032-.128-.112-.176-.224-.176h-.704c-.112 0-.192.048-.224.176l-1.712 6.24c-.016.064-.08.064-.096 0l-1.664-6.24c-.032-.128-.112-.176-.224-.176h-.752c-.144 0-.224.096-.176.24l2.24 7.68c.032.128.112.176.224.176Zm12.447-8.224c-1.648 0-2.832.8-3.04 1.968-.016.112.064.16.192.176l.784.096c.128.016.208-.032.24-.16.176-.672.832-1.088 1.84-1.088 1.328 0 1.872.72 1.872 1.76v.592c0 .048-.032.08-.08.08h-1.856c-2.08 0-3.296.992-3.296 2.592 0 1.68 1.28 2.336 2.64 2.336 1.008 0 1.904-.32 2.496-.944.048-.064.096-.032.096.032v.576c0 .128.08.208.208.208h.72c.128 0 .208-.08.208-.208v-5.328c0-1.584-1.072-2.688-3.024-2.688Zm-.448 7.376c-.976 0-1.76-.448-1.76-1.424 0-1.04.944-1.632 2.336-1.632h1.68c.048 0 .08.032.08.08v1.232c0 1.12-1.152 1.744-2.336 1.744Zm10.812-7.04v.544c0 .064-.048.096-.096.032-.464-.56-1.168-.912-2.144-.912-1.44 0-2.48.88-2.848 2.128-.176.544-.208 1.216-.208 2.048 0 .784.048 1.456.192 1.952.384 1.408 1.6 2.144 2.928 2.144.992 0 1.648-.384 2.08-.944.048-.064.096-.032.096.032v.56c0 1.792-.96 2.512-3.216 2.416-.128-.016-.208.048-.208.192l-.032.64c0 .144.064.208.208.224 2.512.144 4.384-.736 4.384-3.44v-7.616c0-.128-.08-.208-.208-.208h-.72c-.128 0-.208.08-.208.208Zm-.08 5.44c-.16.832-.816 1.536-1.92 1.536-1.056 0-1.792-.688-2-1.552-.08-.224-.16-.736-.16-1.616 0-.864.064-1.296.16-1.6.256-.864.944-1.552 2-1.552s1.744.688 1.904 1.552c.08.32.096.512.096 1.616s-.016 1.312-.08 1.616ZM227.89 275h.8c.112 0 .192-.048.224-.176l1.664-5.904c.016-.064.08-.064.096 0l1.728 5.904c.032.128.112.176.224.176h.784c.112 0 .192-.048.224-.176l2.272-7.664c.048-.144-.032-.24-.176-.24l-.736-.016c-.112 0-.208.048-.24.176l-1.712 6.24c-.016.064-.08.064-.096 0l-1.744-6.24c-.032-.128-.112-.176-.224-.176h-.704c-.112 0-.192.048-.224.176l-1.712 6.24c-.016.064-.08.064-.096 0l-1.664-6.24c-.032-.128-.112-.176-.224-.176h-.752c-.144 0-.224.096-.176.24l2.24 7.68c.032.128.112.176.224.176Zm13.18-8.208c-.928 0-1.68.32-2.144.96-.032.064-.08.016-.08-.048v-3.696c0-.128-.08-.208-.208-.208h-.72c-.128 0-.208.08-.208.208v10.784c0 .128.08.208.208.208h.72c.128 0 .208-.08.208-.208v-5.328c.112-1.008.88-1.68 1.968-1.68 1.136 0 1.904.816 1.904 2v5.008c0 .128.08.208.208.208h.72c.128 0 .208-.08.208-.208v-5.232c0-1.68-1.104-2.768-2.784-2.768Zm8.417 7.36c-1.168 0-1.952-.64-2.176-1.568-.064-.24-.096-.64-.096-1.168 0-.048.032-.08.08-.08h5.12c.128 0 .208-.08.208-.208 0-.752-.016-1.168-.096-1.6-.288-1.68-1.296-2.752-3.2-2.752-1.584 0-2.736.912-3.088 2.288-.128.496-.144 1.04-.144 1.856 0 .896.08 1.616.304 2.208.432 1.232 1.472 2 2.992 2 1.44 0 2.48-.704 2.976-1.744.064-.112.016-.208-.096-.272l-.464-.256c-.112-.064-.224-.016-.272.096-.368.72-1.056 1.184-2.048 1.2Zm-.16-6.384c1.104 0 1.84.64 2.064 1.568.048.224.08.592.096 1.024 0 .048-.032.08-.08.08h-4.112c-.048 0-.08-.032-.08-.08.016-.464.048-.832.128-1.088.208-.88.896-1.504 1.984-1.504Zm8.915-.976c-.928 0-1.68.32-2.144.96-.032.064-.08.016-.08-.048v-.592c0-.128-.08-.208-.208-.208h-.72c-.128 0-.208.08-.208.208v7.68c0 .128.08.208.208.208h.72c.128 0 .208-.08.208-.208v-5.328c.112-1.008.88-1.68 1.968-1.68 1.136 0 1.904.816 1.904 2v5.008c0 .128.08.208.208.208h.72c.128 0 .208-.08.208-.208v-5.232c0-1.68-1.104-2.768-2.784-2.768Zm8.1 11.408h.112c1.776 0 2.256-.448 2.976-2.496l2.944-8.56c.048-.144-.032-.24-.176-.24h-.768c-.112 0-.192.048-.224.176l-2.016 6.272c-.016.08-.08.08-.096 0l-2.064-6.272a.24.24 0 0 0-.24-.176h-.752c-.144 0-.224.096-.176.24l2.688 7.808c.016.048.016.064 0 .096-.544 1.792-.896 2.176-2.096 2.176h-.112c-.064 0-.112.08-.112.208v.56c0 .128.048.208.112.208Zm10.581-3.072c1.52 0 2.688-.848 3.104-2.224.16-.528.224-1.2.224-1.968 0-.752-.064-1.424-.224-1.968-.4-1.344-1.568-2.192-3.104-2.192-1.584 0-2.736.848-3.152 2.208-.144.512-.208 1.168-.208 1.952 0 .768.064 1.44.224 1.968.416 1.376 1.568 2.224 3.136 2.224Zm0-.992c-1.072 0-1.84-.608-2.08-1.568-.096-.352-.128-.928-.128-1.616 0-.672.032-1.264.128-1.616.256-.944 1.008-1.568 2.048-1.568 1.072 0 1.84.624 2.08 1.568.096.352.128.912.128 1.616 0 .64-.032 1.232-.128 1.616-.256.96-1.024 1.568-2.048 1.568Zm10.526-7.024v5.024c0 1.184-.768 1.984-1.984 1.984-1.184 0-1.904-.784-1.904-1.984v-5.024c0-.128-.08-.208-.208-.208h-.72c-.128 0-.208.08-.208.208v5.36c0 1.712 1.296 2.64 2.816 2.64.976 0 1.68-.352 2.112-.96.048-.064.096-.032.096.032v.608c0 .128.08.208.208.208h.72c.128 0 .208-.08.208-.208v-7.68c0-.128-.08-.208-.208-.208h-.72c-.128 0-.208.08-.208.208ZM64.045 301.08c1.808 0 2.976-.912 2.976-2.288 0-1.584-1.552-2.016-2.912-2.4-1.088-.32-1.952-.608-1.952-1.408 0-.768.736-1.232 1.808-1.232 1.2 0 1.92.576 1.92 1.28v.096c0 .064.08.112.208.112h.656c.128 0 .208-.08.208-.208 0-1.264-1.184-2.208-2.976-2.208-1.728 0-2.928.864-2.928 2.24 0 1.52 1.472 1.984 2.848 2.384 1.056.32 1.984.56 1.984 1.424 0 .752-.736 1.328-1.856 1.328-1.152 0-1.92-.64-1.92-1.312v-.144c0-.08-.08-.144-.208-.144h-.688c-.128 0-.208.08-.208.208v.144c0 1.168 1.2 2.128 3.04 2.128Zm9.96-7.968v5.024c0 1.184-.769 1.984-1.985 1.984-1.184 0-1.904-.784-1.904-1.984v-5.024c0-.128-.08-.208-.208-.208h-.72c-.128 0-.208.08-.208.208v5.36c0 1.712 1.296 2.64 2.816 2.64.976 0 1.68-.352 2.112-.96.048-.064.096-.032.096.032v.608c0 .128.08.208.208.208h.72c.128 0 .208-.08.208-.208v-7.68c0-.128-.08-.208-.208-.208h-.72c-.128 0-.208.08-.208.208Zm9.905 1.856c-.384-1.328-1.408-2.192-2.96-2.192-.848 0-1.568.352-2.032.96-.048.064-.096.032-.096-.032v-3.696c0-.128-.08-.208-.208-.208h-.72c-.128 0-.208.08-.208.208v10.784c0 .128.08.208.208.208h.72c.128 0 .208-.08.208-.208v-.608c0-.064.048-.08.096-.032.464.624 1.184.976 2.032.976 1.52 0 2.544-.848 2.928-2.144.176-.56.224-1.216.224-2.032 0-.784-.032-1.44-.192-1.984Zm-1.232 3.92c-.256.768-.944 1.248-1.84 1.248-.88 0-1.456-.512-1.712-1.232-.192-.416-.272-.896-.272-1.952 0-1.072.096-1.552.288-1.984.256-.704.832-1.2 1.68-1.2.864 0 1.504.48 1.776 1.168.24.432.368.912.368 2.016 0 1.04-.096 1.504-.288 1.936Zm6.336 2.192c1.808 0 2.976-.912 2.976-2.288 0-1.584-1.552-2.016-2.912-2.4-1.088-.32-1.952-.608-1.952-1.408 0-.768.736-1.232 1.808-1.232 1.2 0 1.92.576 1.92 1.28v.096c0 .064.08.112.208.112h.656c.128 0 .208-.08.208-.208 0-1.264-1.184-2.208-2.976-2.208-1.728 0-2.928.864-2.928 2.24 0 1.52 1.472 1.984 2.848 2.384 1.056.32 1.984.56 1.984 1.424 0 .752-.736 1.328-1.856 1.328-1.152 0-1.92-.64-1.92-1.312v-.144c0-.08-.08-.144-.208-.144h-.688c-.128 0-.208.08-.208.208v.144c0 1.168 1.2 2.128 3.04 2.128Zm8.119.048c1.568 0 2.816-.848 3.136-2.08.032-.112.048-.208.064-.272.016-.144-.064-.224-.192-.24l-.688-.112c-.128-.016-.224.032-.24.176l-.016.016c0 .016 0 .048-.016.08-.176.816-.976 1.44-2.048 1.44-1.088 0-1.824-.64-2.032-1.568-.08-.32-.144-.848-.144-1.632 0-.72.064-1.28.144-1.616.208-.912.944-1.552 2.032-1.552 1.104 0 1.888.672 2.064 1.456a.803.803 0 0 1 .032.192c.032.144.112.192.24.176l.704-.08c.128-.016.208-.096.192-.24a3.113 3.113 0 0 0-.096-.432c-.32-1.136-1.52-2.064-3.136-2.064-1.552 0-2.72.88-3.104 2.192-.128.496-.208 1.072-.208 1.952 0 .816.048 1.44.208 1.984.4 1.344 1.536 2.224 3.104 2.224Zm8.52-8.304c-.928 0-1.616.48-2.048 1.216-.032.064-.08.048-.08-.032v-.896c0-.128-.08-.208-.208-.208h-.72c-.128 0-.208.08-.208.208v7.68c0 .128.08.208.208.208h.72c.128 0 .208-.08.208-.208v-4.672c0-1.2.816-2.064 1.92-2.096.336-.016.592.016.784.08.144.048.224 0 .256-.128l.16-.704c.032-.112 0-.208-.112-.256-.208-.112-.48-.192-.88-.192Zm3.253-1.376c.512 0 .864-.336.864-.832 0-.48-.352-.816-.864-.816s-.864.336-.864.816c0 .496.352.832.864.832Zm-.352 9.552h.72c.128 0 .208-.08.208-.208v-7.68c0-.128-.08-.208-.208-.208h-.72c-.128 0-.208.08-.208.208v7.68c0 .128.08.208.208.208Zm9.809-6.032c-.384-1.328-1.408-2.192-2.96-2.192-.848 0-1.568.352-2.032.96-.048.064-.096.032-.096-.032v-3.696c0-.128-.08-.208-.208-.208h-.72c-.128 0-.208.08-.208.208v10.784c0 .128.08.208.208.208h.72c.128 0 .208-.08.208-.208v-.608c0-.064.048-.08.096-.032.464.624 1.184.976 2.032.976 1.52 0 2.544-.848 2.928-2.144.176-.56.224-1.216.224-2.032 0-.784-.032-1.44-.192-1.984Zm-1.232 3.92c-.256.768-.944 1.248-1.84 1.248-.88 0-1.456-.512-1.712-1.232-.192-.416-.272-.896-.272-1.952 0-1.072.096-1.552.288-1.984.256-.704.832-1.2 1.68-1.2.864 0 1.504.48 1.776 1.168.24.432.368.912.368 2.016 0 1.04-.096 1.504-.288 1.936Zm6.832 1.264c-1.168 0-1.952-.64-2.176-1.568-.064-.24-.096-.64-.096-1.168 0-.048.032-.08.08-.08h5.12c.128 0 .208-.08.208-.208 0-.752-.016-1.168-.096-1.6-.288-1.68-1.296-2.752-3.2-2.752-1.584 0-2.736.912-3.088 2.288-.128.496-.144 1.04-.144 1.856 0 .896.08 1.616.304 2.208.432 1.232 1.472 2 2.992 2 1.44 0 2.48-.704 2.976-1.744.064-.112.016-.208-.096-.272l-.464-.256c-.112-.064-.224-.016-.272.096-.368.72-1.056 1.184-2.048 1.2Zm-.16-6.384c1.104 0 1.84.64 2.064 1.568.048.224.08.592.096 1.024 0 .048-.032.08-.08.08h-4.112c-.048 0-.08-.032-.08-.08.016-.464.048-.832.128-1.088.208-.88.896-1.504 1.984-1.504Zm5.243 8.496h.4a.24.24 0 0 0 .24-.176l.864-3.344c.032-.144-.032-.224-.176-.224h-.608c-.112 0-.192.08-.224.192l-.688 3.328c-.032.144.048.224.192.224Zm8.11-10.816c.512 0 .864-.336.864-.832 0-.48-.352-.816-.864-.816s-.864.336-.864.816c0 .496.352.832.864.832Zm-.352 9.552h.72c.128 0 .208-.08.208-.208v-7.68c0-.128-.08-.208-.208-.208h-.72c-.128 0-.208.08-.208.208v7.68c0 .128.08.208.208.208Zm6.945-8.208c-.928 0-1.68.32-2.144.96-.032.064-.08.016-.08-.048v-.592c0-.128-.08-.208-.208-.208h-.72c-.128 0-.208.08-.208.208v7.68c0 .128.08.208.208.208h.72c.128 0 .208-.08.208-.208v-5.328c.112-1.008.88-1.68 1.968-1.68 1.136 0 1.904.816 1.904 2v5.008c0 .128.08.208.208.208h.72c.128 0 .208-.08.208-.208v-5.232c0-1.68-1.104-2.768-2.784-2.768Zm8.321 8.336c1.568 0 2.816-.848 3.136-2.08.032-.112.048-.208.064-.272.016-.144-.064-.224-.192-.24l-.688-.112c-.128-.016-.224.032-.24.176l-.016.016c0 .016 0 .048-.016.08-.176.816-.976 1.44-2.048 1.44-1.088 0-1.824-.64-2.032-1.568-.08-.32-.144-.848-.144-1.632 0-.72.064-1.28.144-1.616.208-.912.944-1.552 2.032-1.552 1.104 0 1.888.672 2.064 1.456a.803.803 0 0 1 .032.192c.032.144.112.192.24.176l.704-.08c.128-.016.208-.096.192-.24a3.113 3.113 0 0 0-.096-.432c-.32-1.136-1.52-2.064-3.136-2.064-1.552 0-2.72.88-3.104 2.192-.128.496-.208 1.072-.208 1.952 0 .816.048 1.44.208 1.984.4 1.344 1.536 2.224 3.104 2.224Zm5.465-.128h.72c.128 0 .208-.08.208-.208v-10.784c0-.128-.08-.208-.208-.208h-.72c-.128 0-.208.08-.208.208v10.784c0 .128.08.208.208.208Zm8.407-7.888v5.024c0 1.184-.768 1.984-1.984 1.984-1.184 0-1.904-.784-1.904-1.984v-5.024c0-.128-.08-.208-.208-.208h-.72c-.128 0-.208.08-.208.208v5.36c0 1.712 1.296 2.64 2.816 2.64.976 0 1.68-.352 2.112-.96.048-.064.096-.032.096.032v.608c0 .128.08.208.208.208h.72c.128 0 .208-.08.208-.208v-7.68c0-.128-.08-.208-.208-.208h-.72c-.128 0-.208.08-.208.208Zm8.658-3.104v3.696c0 .064-.048.096-.096.032-.464-.608-1.184-.96-2.032-.96-1.552 0-2.576.864-2.96 2.192-.16.544-.192 1.2-.192 1.984 0 .816.048 1.472.224 2.032.384 1.296 1.408 2.144 2.928 2.144.848 0 1.568-.352 2.032-.976.048-.048.096-.032.096.032v.608c0 .128.08.208.208.208h.72c.128 0 .208-.08.208-.208v-10.784c0-.128-.08-.208-.208-.208h-.72c-.128 0-.208.08-.208.208Zm-.304 8.896c-.256.72-.832 1.232-1.712 1.232-.896 0-1.584-.48-1.84-1.248-.192-.432-.288-.896-.288-1.936 0-1.104.128-1.584.368-2.016.272-.688.912-1.168 1.776-1.168.848 0 1.424.496 1.68 1.2.192.432.288.912.288 1.984 0 1.056-.08 1.536-.272 1.952Zm4.688-7.456c.512 0 .864-.336.864-.832 0-.48-.352-.816-.864-.816s-.864.336-.864.816c0 .496.352.832.864.832Zm-.352 9.552h.72c.128 0 .208-.08.208-.208v-7.68c0-.128-.08-.208-.208-.208h-.72c-.128 0-.208.08-.208.208v7.68c0 .128.08.208.208.208Zm6.946-8.208c-.928 0-1.68.32-2.144.96-.032.064-.08.016-.08-.048v-.592c0-.128-.08-.208-.208-.208h-.72c-.128 0-.208.08-.208.208v7.68c0 .128.08.208.208.208h.72c.128 0 .208-.08.208-.208v-5.328c.112-1.008.88-1.68 1.968-1.68 1.136 0 1.904.816 1.904 2v5.008c0 .128.08.208.208.208h.72c.128 0 .208-.08.208-.208v-5.232c0-1.68-1.104-2.768-2.784-2.768Zm10.257.32v.544c0 .064-.048.096-.096.032-.464-.56-1.168-.912-2.144-.912-1.44 0-2.48.88-2.848 2.128-.176.544-.208 1.216-.208 2.048 0 .784.048 1.456.192 1.952.384 1.408 1.6 2.144 2.928 2.144.992 0 1.648-.384 2.08-.944.048-.064.096-.032.096.032v.56c0 1.792-.96 2.512-3.216 2.416-.128-.016-.208.048-.208.192l-.032.64c0 .144.064.208.208.224 2.512.144 4.384-.736 4.384-3.44v-7.616c0-.128-.08-.208-.208-.208h-.72c-.128 0-.208.08-.208.208Zm-.08 5.44c-.16.832-.816 1.536-1.92 1.536-1.056 0-1.792-.688-2-1.552-.08-.224-.161-.736-.161-1.616 0-.864.065-1.296.161-1.6.256-.864.944-1.552 2-1.552s1.744.688 1.904 1.552c.08.32.096.512.096 1.616s-.016 1.312-.08 1.616Zm12.453-2.848c-.4-.976-1.168-1.536-2.352-1.616-.08 0-.096-.048-.064-.096l2.576-3.088a.392.392 0 0 0 .096-.256v-.64c0-.128-.08-.208-.208-.208h-5.824c-.128 0-.208.08-.208.208v.576c0 .128.08.208.208.208h4.48c.064 0 .096.032.048.096l-2.784 3.264c-.08.096-.08.192 0 .288l.352.416c.08.096.16.112.272.064.176-.064.32-.096.512-.096.88 0 1.488.384 1.792 1.152.192.416.288.944.288 1.568 0 .496-.08.944-.224 1.328-.272.816-.912 1.264-1.84 1.264-1.04 0-1.728-.624-1.952-1.52a5.722 5.722 0 0 1-.096-.816c0-.144-.08-.208-.208-.208h-.736c-.128 0-.208.08-.208.208.016.352.064.784.176 1.168.384 1.28 1.488 2.16 3.024 2.16 1.504 0 2.528-.72 2.96-2.016.144-.432.24-.944.24-1.536 0-.736-.112-1.36-.32-1.872Zm5.866 5.456c2.064 0 3.408-1.264 3.408-3.232v-5.056c0-1.952-1.344-3.216-3.408-3.216-2.048 0-3.36 1.264-3.36 3.216v5.056c0 1.968 1.312 3.232 3.36 3.232Zm0-.992c-1.344 0-2.224-.864-2.224-2.176v-5.168c0-1.312.88-2.16 2.224-2.16 1.376 0 2.272.848 2.272 2.16v5.168c0 1.312-.896 2.176-2.272 2.176Zm8.359-5.968a2.274 2.274 0 0 0 2.288-2.272 2.274 2.274 0 0 0-2.288-2.272c-1.28 0-2.304 1.008-2.304 2.272 0 1.264 1.024 2.272 2.304 2.272Zm-.304 6.8h.432a.248.248 0 0 0 .24-.144l6-10.8c.08-.144.016-.256-.144-.256h-.416a.248.248 0 0 0-.24.144l-6.016 10.8c-.08.144-.016.256.144.256Zm.304-7.472c-.896 0-1.6-.704-1.6-1.6 0-.896.704-1.6 1.6-1.6.88 0 1.584.704 1.584 1.6 0 .88-.704 1.6-1.584 1.6Zm6.016 7.616a2.264 2.264 0 0 0 2.272-2.288 2.267 2.267 0 0 0-2.272-2.256c-1.28 0-2.304 1.008-2.304 2.256a2.28 2.28 0 0 0 2.304 2.288Zm0-.672a1.601 1.601 0 0 1-1.616-1.616c0-.88.72-1.584 1.616-1.584.864 0 1.584.704 1.584 1.584 0 .896-.704 1.616-1.584 1.616Zm11.326.656c1.52 0 2.688-.848 3.104-2.224.16-.528.224-1.2.224-1.968 0-.752-.064-1.424-.224-1.968-.4-1.344-1.568-2.192-3.104-2.192-1.584 0-2.736.848-3.152 2.208-.144.512-.208 1.168-.208 1.952 0 .768.064 1.44.224 1.968.416 1.376 1.568 2.224 3.136 2.224Zm0-.992c-1.072 0-1.84-.608-2.08-1.568-.096-.352-.128-.928-.128-1.616 0-.672.032-1.264.128-1.616.256-.944 1.008-1.568 2.048-1.568 1.072 0 1.84.624 2.08 1.568.096.352.128.912.128 1.616 0 .64-.032 1.232-.128 1.616-.256.96-1.024 1.568-2.048 1.568Zm8.736-9.344h.32c.128 0 .208-.08.208-.208v-.576c0-.128-.08-.208-.208-.208h-.416c-1.984 0-2.544.752-2.544 2.656v.368c0 .048-.032.08-.08.08h-1.008c-.128 0-.208.08-.208.208v.624c0 .128.08.208.208.208h1.008c.048 0 .08.032.08.08v6.768c0 .128.08.208.208.208h.704c.128 0 .208-.08.208-.208v-6.768c0-.048.032-.08.08-.08h1.728c.128 0 .208-.08.208-.208v-.624c0-.128-.08-.208-.208-.208h-1.728c-.048 0-.08-.032-.08-.08v-.304c0-1.216.304-1.728 1.52-1.728Zm5.703 0h.32c.128 0 .208-.08.208-.208v-.576c0-.128-.08-.208-.208-.208h-.416c-1.984 0-2.544.752-2.544 2.656v.368c0 .048-.032.08-.08.08h-1.008c-.128 0-.208.08-.208.208v.624c0 .128.08.208.208.208h1.008c.048 0 .08.032.08.08v6.768c0 .128.08.208.208.208h.704c.128 0 .208-.08.208-.208v-6.768c0-.048.032-.08.08-.08h1.728c.128 0 .208-.08.208-.208v-.624c0-.128-.08-.208-.208-.208h-1.728c-.048 0-.08-.032-.08-.08v-.304c0-1.216.304-1.728 1.52-1.728Zm5.339 13.408h.112c1.776 0 2.256-.448 2.976-2.496l2.944-8.56c.048-.144-.032-.24-.176-.24h-.768c-.112 0-.192.048-.224.176l-2.016 6.272c-.016.08-.08.08-.096 0l-2.064-6.272a.24.24 0 0 0-.24-.176h-.752c-.144 0-.224.096-.176.24l2.688 7.808c.016.048.016.064 0 .096-.544 1.792-.896 2.176-2.096 2.176h-.112c-.064 0-.112.08-.112.208v.56c0 .128.048.208.112.208Zm10.581-3.072c1.52 0 2.688-.848 3.104-2.224.16-.528.224-1.2.224-1.968 0-.752-.064-1.424-.224-1.968-.4-1.344-1.568-2.192-3.104-2.192-1.584 0-2.736.848-3.152 2.208-.144.512-.208 1.168-.208 1.952 0 .768.064 1.44.224 1.968.416 1.376 1.568 2.224 3.136 2.224Zm0-.992c-1.072 0-1.84-.608-2.08-1.568-.096-.352-.128-.928-.128-1.616 0-.672.032-1.264.128-1.616.256-.944 1.008-1.568 2.048-1.568 1.072 0 1.84.624 2.08 1.568.096.352.128.912.128 1.616 0 .64-.032 1.232-.128 1.616-.256.96-1.024 1.568-2.048 1.568Zm10.526-7.024v5.024c0 1.184-.768 1.984-1.984 1.984-1.184 0-1.904-.784-1.904-1.984v-5.024c0-.128-.08-.208-.208-.208h-.72c-.128 0-.208.08-.208.208v5.36c0 1.712 1.296 2.64 2.816 2.64.976 0 1.68-.352 2.112-.96.048-.064.096-.032.096.032v.608c0 .128.08.208.208.208h.72c.128 0 .208-.08.208-.208v-7.68c0-.128-.08-.208-.208-.208h-.72c-.128 0-.208.08-.208.208Zm6.947-.288c-.928 0-1.616.48-2.048 1.216-.032.064-.08.048-.08-.032v-.896c0-.128-.08-.208-.208-.208h-.72c-.128 0-.208.08-.208.208v7.68c0 .128.08.208.208.208h.72c.128 0 .208-.08.208-.208v-4.672c0-1.2.816-2.064 1.92-2.096.336-.016.592.016.784.08.144.048.224 0 .256-.128l.16-.704c.032-.112 0-.208-.112-.256-.208-.112-.48-.192-.88-.192Zm-162.158 25.632v.368c0 .048-.032.08-.08.08h-1.008c-.128 0-.208.08-.208.208v.624c0 .128.08.208.208.208h1.008c.048 0 .08.032.08.08v6.768c0 .128.08.208.208.208h.704c.128 0 .208-.08.208-.208v-6.768c0-.048.032-.08.08-.08h1.728c.128 0 .208-.08.208-.208v-.624c0-.128-.08-.208-.208-.208h-1.728c-.048 0-.08-.032-.08-.08v-.304c0-1.216.304-1.728 1.52-1.728h.32c.128 0 .208-.08.208-.208v-.576c0-.128-.08-.208-.208-.208h-.416c-1.984 0-2.544.752-2.544 2.656Zm5.824-2.656c-.512 0-.864.336-.864.816 0 .496.352.832.864.832s.864-.336.864-.832c0-.48-.352-.816-.864-.816Zm-.352 11.2h.72c.128 0 .208-.08.208-.208v-7.68c0-.128-.08-.208-.208-.208h-.72c-.128 0-.208.08-.208.208v7.68c0 .128.08.208.208.208Zm6.842-8.176c-.928 0-1.616.48-2.048 1.216-.032.064-.08.048-.08-.032v-.896c0-.128-.08-.208-.208-.208h-.72c-.128 0-.208.08-.208.208v7.68c0 .128.08.208.208.208h.72c.128 0 .208-.08.208-.208v-4.672c0-1.2.816-2.064 1.92-2.096.336-.016.592.016.784.08.144.048.224 0 .256-.128l.16-.704c.032-.112 0-.208-.112-.256-.208-.112-.48-.192-.88-.192Zm5.173 8.256c1.808 0 2.976-.912 2.976-2.288 0-1.584-1.552-2.016-2.912-2.4-1.088-.32-1.952-.608-1.952-1.408 0-.768.736-1.232 1.808-1.232 1.2 0 1.92.576 1.92 1.28v.096c0 .064.08.112.208.112h.656c.128 0 .208-.08.208-.208 0-1.264-1.184-2.208-2.976-2.208-1.728 0-2.928.864-2.928 2.24 0 1.52 1.472 1.984 2.848 2.384 1.056.32 1.984.56 1.984 1.424 0 .752-.736 1.328-1.856 1.328-1.152 0-1.92-.64-1.92-1.312v-.144c0-.08-.08-.144-.208-.144h-.688c-.128 0-.208.08-.208.208v.144c0 1.168 1.2 2.128 3.04 2.128Zm8.679-7.44v-.528c0-.128-.08-.208-.208-.208h-1.744c-.048 0-.08-.032-.08-.08v-1.792c0-.128-.08-.208-.208-.208h-.688c-.128 0-.208.08-.208.208v1.792c0 .048-.032.08-.08.08h-.912c-.128 0-.208.08-.208.208v.528c0 .128.08.208.208.208h.912c.048 0 .08.032.08.08v5.024c0 1.664.944 2.032 2.336 2.032h.544c.144-.016.208-.096.208-.224v-.56c0-.128-.08-.208-.208-.208h-.352c-.96 0-1.424-.352-1.424-1.392v-4.672c0-.048.032-.08.08-.08h1.744c.128 0 .208-.08.208-.208Zm8.055 7.44c1.808 0 2.976-.912 2.976-2.288 0-1.584-1.552-2.016-2.912-2.4-1.088-.32-1.952-.608-1.952-1.408 0-.768.736-1.232 1.808-1.232 1.2 0 1.92.576 1.92 1.28v.096c0 .064.08.112.208.112h.656c.128 0 .208-.08.208-.208 0-1.264-1.184-2.208-2.976-2.208-1.728 0-2.928.864-2.928 2.24 0 1.52 1.472 1.984 2.848 2.384 1.056.32 1.984.56 1.984 1.424 0 .752-.736 1.328-1.856 1.328-1.152 0-1.92-.64-1.92-1.312v-.144c0-.08-.08-.144-.208-.144h-.688c-.128 0-.208.08-.208.208v.144c0 1.168 1.2 2.128 3.04 2.128Zm8.423-8.288c-.928 0-1.68.32-2.144.96-.032.064-.08.016-.08-.048v-3.696c0-.128-.08-.208-.208-.208h-.72c-.128 0-.208.08-.208.208v10.784c0 .128.08.208.208.208h.72c.128 0 .208-.08.208-.208v-5.328c.112-1.008.88-1.68 1.968-1.68 1.136 0 1.904.816 1.904 2v5.008c0 .128.08.208.208.208h.72c.128 0 .208-.08.208-.208v-5.232c0-1.68-1.104-2.768-2.784-2.768Zm5.953-1.344c.512 0 .864-.336.864-.832 0-.48-.352-.816-.864-.816s-.864.336-.864.816c0 .496.352.832.864.832Zm-.352 9.552h.72c.128 0 .208-.08.208-.208v-7.68c0-.128-.08-.208-.208-.208h-.72c-.128 0-.208.08-.208.208v7.68c0 .128.08.208.208.208Zm9.874-6.08c-.384-1.296-1.408-2.144-2.928-2.144-.848 0-1.568.352-2.032.976-.048.048-.096.032-.096-.032v-.608c0-.128-.08-.208-.208-.208h-.72c-.128 0-.208.08-.208.208v10.784c0 .128.08.208.208.208h.72c.128 0 .208-.08.208-.208V326.2c0-.064.048-.096.096-.032.464.608 1.184.96 2.032.96 1.552 0 2.576-.864 2.96-2.192.16-.544.192-1.2.192-1.984 0-.816-.048-1.472-.224-2.032Zm-1.28 4.048c-.272.688-.912 1.168-1.776 1.168-.848 0-1.424-.496-1.68-1.2-.192-.432-.288-.912-.288-1.984 0-1.056.08-1.536.272-1.952.256-.72.832-1.232 1.712-1.232.896 0 1.584.48 1.84 1.248.192.432.288.896.288 1.936 0 1.104-.128 1.584-.368 2.016Zm11.95-6.176c-1.04 0-1.968.4-2.448 1.296-.032.048-.064.048-.096-.016-.4-.816-1.216-1.28-2.304-1.28-.864 0-1.632.288-2.112.912-.048.064-.096.032-.096-.032v-.56c0-.128-.08-.208-.208-.208h-.72c-.128 0-.208.08-.208.208v7.68c0 .128.08.208.208.208h.72c.128 0 .208-.08.208-.208v-5.12c0-1.168.736-1.888 1.856-1.888 1.104 0 1.824.736 1.824 1.92v5.088c0 .128.08.208.208.208h.72c.128 0 .208-.08.208-.208v-5.12c0-1.168.768-1.888 1.888-1.888 1.088 0 1.824.736 1.824 1.92v5.088c0 .128.08.208.208.208h.704c.128 0 .208-.08.208-.208v-5.312c0-1.68-1.008-2.688-2.592-2.688Zm8.194 7.36c-1.168 0-1.952-.64-2.176-1.568-.064-.24-.096-.64-.096-1.168 0-.048.032-.08.08-.08h5.12c.128 0 .208-.08.208-.208 0-.752-.016-1.168-.096-1.6-.288-1.68-1.296-2.752-3.2-2.752-1.584 0-2.736.912-3.088 2.288-.128.496-.144 1.04-.144 1.856 0 .896.08 1.616.304 2.208.432 1.232 1.472 2 2.992 2 1.44 0 2.48-.704 2.976-1.744.064-.112.016-.208-.096-.272l-.464-.256c-.112-.064-.224-.016-.272.096-.368.72-1.056 1.184-2.048 1.2Zm-.16-6.384c1.104 0 1.84.64 2.064 1.568.048.224.08.592.096 1.024 0 .048-.032.08-.08.08h-4.112c-.048 0-.08-.032-.08-.08.016-.464.048-.832.128-1.088.208-.88.896-1.504 1.984-1.504Zm8.915-.976c-.928 0-1.68.32-2.144.96-.032.064-.08.016-.08-.048v-.592c0-.128-.08-.208-.208-.208h-.72c-.128 0-.208.08-.208.208v7.68c0 .128.08.208.208.208h.72c.128 0 .208-.08.208-.208v-5.328c.112-1.008.88-1.68 1.968-1.68 1.136 0 1.904.816 1.904 2v5.008c0 .128.08.208.208.208h.72c.128 0 .208-.08.208-.208v-5.232c0-1.68-1.104-2.768-2.784-2.768Zm8.897.848v-.528c0-.128-.08-.208-.208-.208h-1.744c-.048 0-.08-.032-.08-.08v-1.792c0-.128-.08-.208-.208-.208h-.688c-.128 0-.208.08-.208.208v1.792c0 .048-.032.08-.08.08h-.912c-.128 0-.208.08-.208.208v.528c0 .128.08.208.208.208h.912c.048 0 .08.032.08.08v5.024c0 1.664.944 2.032 2.336 2.032h.544c.144-.016.208-.096.208-.224v-.56c0-.128-.08-.208-.208-.208h-.352c-.96 0-1.424-.352-1.424-1.392v-4.672c0-.048.032-.08.08-.08h1.744c.128 0 .208-.08.208-.208Zm3.076 7.312c.544 0 .992-.416.992-.944s-.48-.944-.992-.944c-.528 0-.992.416-.992.944s.416.944.992.944Z"/></g><path fill="#FDD6BA" fill-rule="evenodd" d="M171 95.98c.099.013.2.02.302.02.574 0 1.14-.007 1.698-.02V111h28.711c2.901 0 5.289-2.37 5.289-5.25v-7.5c0-2.88-2.388-5.25-5.289-5.25H189.58c8.469-3.292 12.42-8.673 12.42-12.933 0-3.72-2.95-8.064-11.269-8.067-10.738 0-16.819 7.615-19.731 14.59-2.913-6.976-8.993-14.59-19.728-14.59C142.953 72 140 76.344 140 80.065c0 4.26 3.952 9.643 12.421 12.935h-12.132c-2.901 0-5.289 2.37-5.289 5.25v7.5c0 2.88 2.388 5.25 5.289 5.25H169V95.98c.558.013 1.124.02 1.698.02.102 0 .203-.007.302-.02Zm3.175-4.496c1.384-4.928 5.559-15.03 16.556-15.03 3.223 0 6.664.946 6.664 3.61 0 1.79-1.556 4.593-5.925 7.1-3.149 1.807-8.62 3.929-17.295 4.32ZM169 116h-28v22.842c0 2.83 2.391 5.158 5.297 5.158H169v-28Zm32 22.842V116h-28v28h22.703c2.906 0 5.297-2.328 5.297-5.158Zm-49.728-62.391c-3.223 0-6.667.95-6.667 3.614 0 3.79 6.855 10.695 23.217 11.422-1.381-4.932-5.556-15.036-16.55-15.036Z" clip-rule="evenodd"/><defs><clipPath id="a"><path fill="#fff" d="M47 200h255v134H47z"/></clipPath></defs></svg>