<svg xmlns="http://www.w3.org/2000/svg" width="350" height="382" fill="none"><rect width="350" height="382" fill="#0E8784" rx="8"/><g clip-path="url(#a)"><path fill="#fff" d="M100.491 208.2c.368 0 .68-.032.936-.096s.488-.124.696-.18c.216-.064.428-.096.636-.096.384 0 .672.096.864.288.192.184.352.5.48.948l1.056 3.648c.072.248.032.46-.12.636-.144.168-.348.272-.612.312a1.285 1.285 0 0 1-.624-.06c-.208-.08-.38-.256-.516-.528-.432-.864-.852-1.52-1.26-1.968-.408-.456-.828-.768-1.26-.936a3.943 3.943 0 0 0-1.44-.252h-1.296v12.42c0 .2.044.372.132.516.096.136.256.228.48.276l.72.156c.256.056.44.156.552.3.112.136.168.336.168.6a.77.77 0 0 1-.252.6c-.168.144-.428.216-.78.216h-7.248c-.352 0-.612-.072-.78-.216a.77.77 0 0 1-.252-.6c0-.432.208-.728.624-.888l.456-.168c.208-.08.36-.18.456-.3a.755.755 0 0 0 .156-.492v-11.472c0-.2-.052-.36-.156-.48-.096-.128-.248-.232-.456-.312l-.456-.168c-.416-.16-.624-.456-.624-.888 0-.256.084-.456.252-.6.168-.144.428-.216.78-.216h8.688Zm-4.464 7.932h3.24c.504 0 .864-.1 1.08-.3.216-.2.424-.6.624-1.2.08-.24.192-.408.336-.504a.887.887 0 0 1 .504-.144c.464 0 .748.22.852.66l.936 3.816c.072.288.064.512-.024.672a.814.814 0 0 1-.444.36.97.97 0 0 1-.636.024c-.192-.072-.376-.224-.552-.456a4.077 4.077 0 0 0-.66-.756 1.657 1.657 0 0 0-.696-.384c-.264-.072-.608-.108-1.032-.108h-3.528v-1.68Zm15.752 2.316c0-1.224.16-2.232.48-3.024.32-.8.744-1.392 1.272-1.776a2.946 2.946 0 0 1 1.752-.576c.848 0 1.496.256 1.944.768.456.504.684 1.268.684 2.292 0 1.048-.212 1.82-.636 2.316-.416.496-.96.744-1.632.744-.68 0-1.192-.172-1.536-.516-.336-.352-.504-.836-.504-1.452v-.504c-.008-.208-.056-.364-.144-.468-.08-.112-.208-.168-.384-.168-.16 0-.304.072-.432.216-.12.136-.216.364-.288.684-.072.312-.108.736-.108 1.272l-.468.192Zm.132-4.296.336 2.508v5.82c0 .28.04.48.12.6.08.112.264.196.552.252l.912.18c.24.048.416.132.528.252.112.12.168.288.168.504 0 .232-.08.412-.24.54-.152.128-.38.192-.684.192h-6.636c-.32 0-.552-.064-.696-.192-.144-.128-.216-.304-.216-.528 0-.16.04-.3.12-.42.08-.12.212-.22.396-.3l.264-.12a.477.477 0 0 0 .252-.276c.048-.136.072-.364.072-.684v-5.592c0-.256-.036-.436-.108-.54a.488.488 0 0 0-.3-.228l-.264-.084a.754.754 0 0 1-.372-.24.68.68 0 0 1-.108-.396c0-.192.052-.344.156-.456.112-.12.308-.232.588-.336l2.58-1.008c.568-.224.976-.368 1.224-.432a2.49 2.49 0 0 1 .576-.096c.224 0 .396.084.516.252.12.16.208.436.264.828Zm19.144 3.552c0 .56-.152.996-.456 1.308-.304.304-.74.456-1.308.456h-7.116v-1.248h3.204c.44 0 .66-.208.66-.624 0-1.008-.116-1.728-.348-2.16-.232-.432-.54-.648-.924-.648-.28 0-.532.104-.756.312-.224.208-.404.528-.54.96-.128.424-.192.964-.192 1.62 0 1.456.328 2.524.984 3.204.656.672 1.552 1.008 2.688 1.008.528 0 1.008-.06 1.44-.18.432-.12.856-.364 1.272-.732.232-.208.408-.348.528-.42a.677.677 0 0 1 .348-.108c.16 0 .276.08.348.24.08.16.12.356.12.588 0 .712-.244 1.38-.732 2.004-.48.616-1.152 1.112-2.016 1.488-.856.376-1.856.564-3 .564-1.224 0-2.324-.24-3.3-.72-.976-.488-1.748-1.164-2.316-2.028-.568-.872-.852-1.888-.852-3.048 0-1.304.26-2.44.78-3.408a5.457 5.457 0 0 1 2.268-2.256c1-.536 2.204-.804 3.612-.804 1.24 0 2.276.2 3.108.6.832.4 1.456.948 1.872 1.644.416.696.624 1.492.624 2.388Zm13.43 0c0 .56-.152.996-.456 1.308-.304.304-.74.456-1.308.456h-7.116v-1.248h3.204c.44 0 .66-.208.66-.624 0-1.008-.116-1.728-.348-2.16-.232-.432-.54-.648-.924-.648-.28 0-.532.104-.756.312-.224.208-.404.528-.54.96-.128.424-.192.964-.192 1.62 0 1.456.328 2.524.984 3.204.656.672 1.552 1.008 2.688 1.008.528 0 1.008-.06 1.44-.18.432-.12.856-.364 1.272-.732.232-.208.408-.348.528-.42a.677.677 0 0 1 .348-.108c.16 0 .276.08.348.24.08.16.12.356.12.588 0 .712-.244 1.38-.732 2.004-.48.616-1.152 1.112-2.016 1.488-.856.376-1.856.564-3 .564-1.224 0-2.324-.24-3.3-.72-.976-.488-1.748-1.164-2.316-2.028-.568-.872-.852-1.888-.852-3.048 0-1.304.26-2.44.78-3.408a5.457 5.457 0 0 1 2.268-2.256c1-.536 2.204-.804 3.612-.804 1.24 0 2.276.2 3.108.6.832.4 1.456.948 1.872 1.644.416.696.624 1.492.624 2.388Zm11.895-3.108c-.472 0-.824.1-1.056.3a.933.933 0 0 0-.336.72c0 .168.032.328.096.48.064.144.212.276.444.396s.6.224 1.104.312c1.488.248 2.62.58 3.396.996.776.408 1.304.892 1.584 1.452.288.56.432 1.196.432 1.908 0 1.304-.456 2.328-1.368 3.072-.904.736-2.244 1.104-4.02 1.104-.608 0-1.096-.048-1.464-.144a6.607 6.607 0 0 1-.876-.288 1.466 1.466 0 0 0-.588-.144.778.778 0 0 0-.48.144l-.384.288a.798.798 0 0 1-.492.144c-.2 0-.352-.06-.456-.18-.096-.112-.188-.316-.276-.612l-.624-2.124c-.128-.424-.164-.756-.108-.996a.692.692 0 0 1 .456-.516c.256-.096.48-.1.672-.012.192.088.376.264.552.528.368.536.748.98 1.14 1.332.4.352.816.616 1.248.792.44.176.892.264 1.356.264.536 0 .936-.1 1.2-.3a.948.948 0 0 0 .408-.804.885.885 0 0 0-.168-.54c-.104-.152-.324-.288-.66-.408-.328-.128-.828-.252-1.5-.372-1.16-.208-2.084-.504-2.772-.888-.68-.392-1.168-.872-1.464-1.44-.296-.576-.444-1.244-.444-2.004 0-.808.216-1.508.648-2.1.44-.6 1.036-1.064 1.788-1.392.76-.328 1.624-.492 2.592-.492.632 0 1.128.052 1.488.156.368.096.664.196.888.3.232.096.46.144.684.144a.953.953 0 0 0 .54-.144c.152-.104.3-.204.444-.3a.838.838 0 0 1 .504-.156c.176 0 .324.064.444.192s.208.348.264.66l.372 2.052c.072.408.076.716.012.924-.056.2-.2.348-.432.444-.248.104-.468.104-.66 0-.192-.112-.388-.308-.588-.588-.56-.808-1.148-1.368-1.764-1.68-.608-.32-1.2-.48-1.776-.48Zm12.834 2.484-.72-.768.36-.336c1.128-1.08 2.108-1.832 2.94-2.256.832-.432 1.596-.648 2.292-.648 1.072 0 1.936.356 2.592 1.068.656.704.984 1.628.984 2.772v5.568c0 .32.024.548.072.684.048.128.132.22.252.276l.264.12c.184.08.316.18.396.3.08.12.12.26.12.42 0 .224-.072.4-.216.528-.144.128-.376.192-.696.192h-5.316c-.616 0-.924-.256-.924-.768 0-.288.132-.508.396-.66l.24-.132a.525.525 0 0 0 .252-.288c.048-.128.072-.352.072-.672v-4.848c0-.512-.12-.896-.36-1.152-.232-.256-.56-.384-.984-.384-.264 0-.54.052-.828.156a2.33 2.33 0 0 0-.768.456l-.42.372Zm.432-9.12v14.52c0 .32.024.544.072.672a.525.525 0 0 0 .252.288l.24.132c.264.152.396.372.396.66 0 .512-.308.768-.924.768h-5.316c-.32 0-.552-.064-.696-.192-.144-.128-.216-.304-.216-.528 0-.16.04-.3.12-.42.08-.12.212-.22.396-.3l.264-.12a.477.477 0 0 0 .252-.276c.048-.136.072-.364.072-.684v-11.832c0-.256-.036-.436-.108-.54a.488.488 0 0 0-.3-.228l-.264-.084a.754.754 0 0 1-.372-.24.68.68 0 0 1-.108-.396c0-.192.052-.344.156-.456.104-.112.3-.224.588-.336l2.664-1.032c.408-.16.736-.276.984-.348.256-.072.504-.108.744-.108.36 0 .632.104.816.312.192.2.288.456.288.768Zm16.453 6.192v8.328c0 .32.024.548.072.684.048.128.132.22.252.276l.264.12c.184.08.316.18.396.3.08.12.12.26.12.42 0 .224-.072.4-.216.528-.144.128-.376.192-.696.192h-5.472c-.32 0-.552-.064-.696-.192-.144-.128-.216-.304-.216-.528 0-.16.04-.3.12-.42.08-.12.212-.22.396-.3l.264-.12a.477.477 0 0 0 .252-.276c.048-.136.072-.364.072-.684v-5.64c0-.256-.036-.436-.108-.54a.488.488 0 0 0-.3-.228l-.264-.084a.754.754 0 0 1-.372-.24.68.68 0 0 1-.108-.396c0-.192.052-.344.156-.456.104-.112.3-.224.588-.336l2.664-1.032a9.724 9.724 0 0 1 1.02-.348c.248-.072.468-.108.66-.108.384 0 .672.104.864.312.192.2.288.456.288.768Zm-2.808-2.136c-.896 0-1.604-.208-2.124-.624-.52-.416-.78-.984-.78-1.704 0-.712.26-1.272.78-1.68.52-.408 1.228-.612 2.124-.612.896 0 1.604.204 2.124.612.52.408.78.968.78 1.68 0 .72-.26 1.288-.78 1.704-.52.416-1.228.624-2.124.624Zm11.005 2.136v1.08l.24.456v12.384c0 .32.024.544.072.672a.477.477 0 0 0 .252.288l.264.12c.184.08.316.18.396.3.08.12.12.26.12.42 0 .224-.072.4-.216.528-.144.128-.376.192-.696.192h-5.472c-.32 0-.552-.064-.696-.192-.144-.128-.216-.304-.216-.528 0-.16.04-.3.12-.42.08-.12.212-.22.396-.3l.264-.12a.477.477 0 0 0 .252-.288c.048-.128.072-.352.072-.672V216.84c0-.256-.036-.436-.108-.54a.488.488 0 0 0-.3-.228l-.264-.084a.754.754 0 0 1-.372-.24.68.68 0 0 1-.108-.396c0-.192.052-.336.156-.432.104-.104.3-.22.588-.348l2.424-1.044c.392-.168.716-.284.972-.348.256-.072.488-.108.696-.108.392 0 .684.104.876.312.192.2.288.456.288.768Zm-.66 3.336-.852-.816c.688-1.12 1.46-2 2.316-2.64.856-.64 1.836-.96 2.94-.96.952 0 1.804.244 2.556.732s1.344 1.164 1.776 2.028c.44.856.66 1.848.66 2.976 0 1.304-.268 2.448-.804 3.432a5.848 5.848 0 0 1-2.196 2.28c-.928.544-1.976.816-3.144.816-.968 0-1.816-.204-2.544-.612-.72-.416-1.344-1.044-1.872-1.884l1.308-.888c.368.528.716.904 1.044 1.128.328.216.684.324 1.068.324.376 0 .704-.136.984-.408.288-.272.508-.708.66-1.308.16-.6.24-1.388.24-2.364 0-.896-.084-1.616-.252-2.16-.16-.552-.38-.952-.66-1.2a1.397 1.397 0 0 0-.972-.384c-.44 0-.844.152-1.212.456-.368.296-.716.78-1.044 1.452Zm16.621-3.336v1.08l.24.456v12.384c0 .32.024.544.072.672a.477.477 0 0 0 .252.288l.264.12c.184.08.316.18.396.3.08.12.12.26.12.42 0 .224-.072.4-.216.528-.144.128-.376.192-.696.192h-5.472c-.32 0-.552-.064-.696-.192-.144-.128-.216-.304-.216-.528 0-.16.04-.3.12-.42.08-.12.212-.22.396-.3l.264-.12a.477.477 0 0 0 .252-.288c.048-.128.072-.352.072-.672V216.84c0-.256-.036-.436-.108-.54a.488.488 0 0 0-.3-.228l-.264-.084a.754.754 0 0 1-.372-.24.68.68 0 0 1-.108-.396c0-.192.052-.336.156-.432.104-.104.3-.22.588-.348l2.424-1.044c.392-.168.716-.284.972-.348.256-.072.488-.108.696-.108.392 0 .684.104.876.312.192.2.288.456.288.768Zm-.66 3.336-.852-.816c.688-1.12 1.46-2 2.316-2.64.856-.64 1.836-.96 2.94-.96.952 0 1.804.244 2.556.732s1.344 1.164 1.776 2.028c.44.856.66 1.848.66 2.976 0 1.304-.268 2.448-.804 3.432a5.848 5.848 0 0 1-2.196 2.28c-.928.544-1.976.816-3.144.816-.968 0-1.816-.204-2.544-.612-.72-.416-1.344-1.044-1.872-1.884l1.308-.888c.368.528.716.904 1.044 1.128.328.216.684.324 1.068.324.376 0 .704-.136.984-.408.288-.272.508-.708.66-1.308.16-.6.24-1.388.24-2.364 0-.896-.084-1.616-.252-2.16-.16-.552-.38-.952-.66-1.2a1.397 1.397 0 0 0-.972-.384c-.44 0-.844.152-1.212.456-.368.296-.716.78-1.044 1.452Zm16.861-3.336v8.328c0 .32.024.548.072.684.048.128.132.22.252.276l.264.12c.184.08.316.18.396.3.08.12.12.26.12.42 0 .224-.072.4-.216.528-.144.128-.376.192-.696.192h-5.472c-.32 0-.552-.064-.696-.192-.144-.128-.216-.304-.216-.528 0-.16.04-.3.12-.42.08-.12.212-.22.396-.3l.264-.12a.477.477 0 0 0 .252-.276c.048-.136.072-.364.072-.684v-5.64c0-.256-.036-.436-.108-.54a.488.488 0 0 0-.3-.228l-.264-.084a.754.754 0 0 1-.372-.24.68.68 0 0 1-.108-.396c0-.192.052-.344.156-.456.104-.112.3-.224.588-.336l2.664-1.032a9.724 9.724 0 0 1 1.02-.348c.248-.072.468-.108.66-.108.384 0 .672.104.864.312.192.2.288.456.288.768Zm-2.808-2.136c-.896 0-1.604-.208-2.124-.624-.52-.416-.78-.984-.78-1.704 0-.712.26-1.272.78-1.68.52-.408 1.228-.612 2.124-.612.896 0 1.604.204 2.124.612.52.408.78.968.78 1.68 0 .72-.26 1.288-.78 1.704-.52.416-1.228.624-2.124.624Zm11.246 2.136v8.328c0 .32.024.544.072.672a.525.525 0 0 0 .252.288l.24.132c.264.152.396.372.396.66 0 .512-.308.768-.924.768h-5.316c-.32 0-.552-.064-.696-.192-.144-.128-.216-.304-.216-.528 0-.16.04-.3.12-.42.08-.12.212-.22.396-.3l.264-.12a.477.477 0 0 0 .252-.276c.048-.136.072-.364.072-.684v-5.64c0-.256-.036-.436-.108-.54a.488.488 0 0 0-.3-.228l-.264-.084a.754.754 0 0 1-.372-.24.68.68 0 0 1-.108-.396c0-.192.052-.344.156-.456.104-.112.3-.224.588-.336l2.664-1.032c.408-.16.736-.276.984-.348.256-.072.504-.108.744-.108.36 0 .632.104.816.312.192.2.288.456.288.768Zm-.432 2.928-.72-.768.36-.336c1.128-1.08 2.108-1.832 2.94-2.256.832-.432 1.596-.648 2.292-.648 1.072 0 1.936.356 2.592 1.068.656.704.984 1.628.984 2.772v5.568c0 .32.024.548.072.684.048.128.132.22.252.276l.264.12c.184.08.316.18.396.3.08.12.12.26.12.42 0 .224-.072.4-.216.528-.144.128-.376.192-.696.192h-5.316c-.616 0-.924-.256-.924-.768 0-.288.132-.508.396-.66l.24-.132a.525.525 0 0 0 .252-.288c.048-.128.072-.352.072-.672v-4.848c0-.512-.12-.896-.36-1.152-.232-.256-.56-.384-.984-.384-.264 0-.54.052-.828.156a2.33 2.33 0 0 0-.768.456l-.42.372Zm19.345 6.132c-1.096-.112-1.884-.208-2.364-.288-.48-.08-.78-.156-.9-.228-.112-.072-.168-.144-.168-.216a.25.25 0 0 1 .096-.192.8.8 0 0 1 .3-.168l-.12-.24c-1.096.024-1.956.156-2.58.396-.616.232-1.056.536-1.32.912a2.096 2.096 0 0 0-.384 1.224c0 .448.124.824.372 1.128.248.312.7.572 1.356.78.656.208 1.6.384 2.832.528.992.12 1.772.232 2.34.336.568.112.968.24 1.2.384.24.152.36.348.36.588a.87.87 0 0 1-.24.624c-.152.168-.424.292-.816.372-.392.088-.952.132-1.68.132-1.256 0-2.124-.184-2.604-.552-.48-.36-.72-.856-.72-1.488 0-.16.02-.316.06-.468a.934.934 0 0 1 .168-.324l-.084-.372c-1.512.168-2.548.456-3.108.864-.552.416-.828.904-.828 1.464 0 .496.18.928.54 1.296.36.376.992.664 1.896.864.904.208 2.164.312 3.78.312 2.64 0 4.648-.396 6.024-1.188 1.376-.792 2.064-1.804 2.064-3.036 0-.704-.184-1.284-.552-1.74-.36-.464-.94-.828-1.74-1.092-.8-.272-1.86-.476-3.18-.612Zm-.276-8.88 1.092.072c.256-.64.476-1.076.66-1.308a.888.888 0 0 1 .732-.348c.296 0 .524.068.684.204.16.136.3.296.42.48.128.184.28.344.456.48.184.136.448.204.792.204.496 0 .896-.184 1.2-.552.304-.376.456-.868.456-1.476 0-.664-.196-1.172-.588-1.524-.392-.352-.896-.528-1.512-.528-.792 0-1.54.264-2.244.792-.696.528-1.268 1.344-1.716 2.448l-.432 1.056Zm4.704 3.108c0-.816-.24-1.548-.72-2.196-.472-.648-1.168-1.16-2.088-1.536-.92-.376-2.048-.564-3.384-.564-1.4 0-2.604.2-3.612.6-1.008.4-1.78.96-2.316 1.68-.536.72-.804 1.556-.804 2.508 0 .808.236 1.54.708 2.196.48.648 1.18 1.16 2.1 1.536.928.376 2.056.564 3.384.564 1.408 0 2.612-.2 3.612-.6 1.008-.4 1.78-.96 2.316-1.68.536-.72.804-1.556.804-2.508Zm-7.08-2.892c.392-.08.728.112 1.008.576.28.464.524 1.228.732 2.292.208 1.064.272 1.864.192 2.4-.08.536-.316.844-.708.924-.256.048-.492-.02-.708-.204-.208-.184-.396-.496-.564-.936-.168-.448-.324-1.024-.468-1.728-.136-.712-.212-1.304-.228-1.776-.008-.472.048-.836.168-1.092.128-.256.32-.408.576-.456Z"/><path fill="#FEFCF7" d="M70.868 275h.72a.24.24 0 0 0 .24-.176l2.272-8.896c.016-.064.08-.064.096 0l2.303 8.896a.24.24 0 0 0 .24.176h.768c.112 0 .192-.048.224-.176l2.993-10.784c.031-.144-.032-.24-.177-.24h-.736c-.112 0-.192.048-.224.176l-2.4 8.688c-.016.064-.08.064-.096 0l-2.335-8.688c-.032-.128-.112-.176-.225-.176h-.768a.24.24 0 0 0-.24.176l-2.24 8.672c-.016.064-.08.064-.096 0l-2.4-8.672c-.032-.128-.112-.176-.224-.176h-.784c-.144 0-.207.096-.175.24l3.04 10.784c.031.128.111.176.224.176Zm13.923-.848c-1.168 0-1.952-.64-2.176-1.568-.064-.24-.096-.64-.096-1.168 0-.048.032-.08.08-.08h5.12c.128 0 .208-.08.208-.208 0-.752-.016-1.168-.096-1.6-.288-1.68-1.296-2.752-3.2-2.752-1.584 0-2.736.912-3.088 2.288-.128.496-.144 1.04-.144 1.856 0 .896.08 1.616.304 2.208.432 1.232 1.472 2 2.992 2 1.44 0 2.48-.704 2.976-1.744.064-.112.016-.208-.096-.272l-.464-.256c-.112-.064-.224-.016-.272.096-.368.72-1.056 1.184-2.048 1.2Zm-.16-6.384c1.104 0 1.84.64 2.064 1.568.048.224.08.592.096 1.024 0 .048-.032.08-.08.08H82.6c-.048 0-.08-.032-.08-.08.016-.464.048-.832.128-1.088.208-.88.896-1.504 1.984-1.504Zm11.814 7.36c1.568 0 2.816-.848 3.136-2.08.032-.112.048-.208.064-.272.016-.144-.064-.224-.192-.24l-.688-.112c-.128-.016-.224.032-.24.176l-.016.016c0 .016 0 .048-.016.08-.176.816-.976 1.44-2.048 1.44-1.088 0-1.824-.64-2.032-1.568-.08-.32-.144-.848-.144-1.632 0-.72.064-1.28.144-1.616.208-.912.944-1.552 2.032-1.552 1.104 0 1.888.672 2.064 1.456a.803.803 0 0 1 .032.192c.032.144.112.192.24.176l.704-.08c.128-.016.208-.096.192-.24a3.113 3.113 0 0 0-.096-.432c-.32-1.136-1.52-2.064-3.136-2.064-1.552 0-2.72.88-3.104 2.192-.128.496-.208 1.072-.208 1.952 0 .816.048 1.44.208 1.984.4 1.344 1.536 2.224 3.104 2.224Zm8.314 0c1.52 0 2.688-.848 3.104-2.224.16-.528.224-1.2.224-1.968 0-.752-.064-1.424-.224-1.968-.4-1.344-1.568-2.192-3.104-2.192-1.584 0-2.736.848-3.152 2.208-.144.512-.208 1.168-.208 1.952 0 .768.064 1.44.224 1.968.416 1.376 1.568 2.224 3.136 2.224Zm0-.992c-1.072 0-1.84-.608-2.08-1.568-.096-.352-.128-.928-.128-1.616 0-.672.032-1.264.128-1.616.256-.944 1.008-1.568 2.048-1.568 1.072 0 1.84.624 2.08 1.568.096.352.128.912.128 1.616 0 .64-.032 1.232-.128 1.616-.256.96-1.024 1.568-2.048 1.568Zm7.414.864h.864a.24.24 0 0 0 .24-.176l2.576-7.664c.048-.144-.016-.24-.16-.24l-.816-.016c-.112 0-.192.048-.224.176l-2 6.224c-.016.08-.08.08-.096 0l-2-6.224c-.032-.128-.112-.176-.224-.176h-.816c-.144 0-.224.096-.176.24l2.592 7.68a.24.24 0 0 0 .24.176Zm8.384-.848c-1.168 0-1.952-.64-2.176-1.568-.064-.24-.096-.64-.096-1.168 0-.048.032-.08.08-.08h5.12c.128 0 .208-.08.208-.208 0-.752-.016-1.168-.096-1.6-.288-1.68-1.296-2.752-3.2-2.752-1.584 0-2.736.912-3.088 2.288-.128.496-.144 1.04-.144 1.856 0 .896.08 1.616.304 2.208.432 1.232 1.472 2 2.992 2 1.44 0 2.48-.704 2.976-1.744.064-.112.016-.208-.096-.272l-.464-.256c-.112-.064-.224-.016-.272.096-.368.72-1.056 1.184-2.048 1.2Zm-.16-6.384c1.104 0 1.84.64 2.064 1.568.048.224.08.592.096 1.024 0 .048-.032.08-.08.08h-4.112c-.048 0-.08-.032-.08-.08.016-.464.048-.832.128-1.088.208-.88.896-1.504 1.984-1.504Zm8.819-.944c-.928 0-1.616.48-2.048 1.216-.032.064-.08.048-.08-.032v-.896c0-.128-.08-.208-.208-.208h-.72c-.128 0-.208.08-.208.208v7.68c0 .128.08.208.208.208h.72c.128 0 .208-.08.208-.208v-4.672c0-1.2.816-2.064 1.92-2.096.336-.016.592.016.784.08.144.048.224 0 .256-.128l.16-.704c.032-.112 0-.208-.112-.256-.208-.112-.48-.192-.88-.192Zm9.399.816v-.528c0-.128-.08-.208-.208-.208h-1.744c-.048 0-.08-.032-.08-.08v-1.792c0-.128-.08-.208-.208-.208h-.688c-.128 0-.208.08-.208.208v1.792c0 .048-.032.08-.08.08h-.912c-.128 0-.208.08-.208.208v.528c0 .128.08.208.208.208h.912c.048 0 .08.032.08.08v5.024c0 1.664.944 2.032 2.336 2.032h.544c.144-.016.208-.096.208-.224v-.56c0-.128-.08-.208-.208-.208h-.352c-.96 0-1.424-.352-1.424-1.392v-4.672c0-.048.032-.08.08-.08h1.744c.128 0 .208-.08.208-.208Zm5.556-.848c-.928 0-1.68.32-2.144.96-.032.064-.08.016-.08-.048v-3.696c0-.128-.08-.208-.208-.208h-.72c-.128 0-.208.08-.208.208v10.784c0 .128.08.208.208.208h.72c.128 0 .208-.08.208-.208v-5.328c.112-1.008.88-1.68 1.968-1.68 1.136 0 1.904.816 1.904 2v5.008c0 .128.08.208.208.208h.72c.128 0 .208-.08.208-.208v-5.232c0-1.68-1.104-2.768-2.784-2.768Zm8.417 7.36c-1.168 0-1.952-.64-2.176-1.568-.064-.24-.096-.64-.096-1.168 0-.048.032-.08.08-.08h5.12c.128 0 .208-.08.208-.208 0-.752-.016-1.168-.096-1.6-.288-1.68-1.296-2.752-3.2-2.752-1.584 0-2.736.912-3.088 2.288-.128.496-.144 1.04-.144 1.856 0 .896.08 1.616.304 2.208.432 1.232 1.472 2 2.992 2 1.44 0 2.48-.704 2.976-1.744.064-.112.016-.208-.096-.272l-.464-.256c-.112-.064-.224-.016-.272.096-.368.72-1.056 1.184-2.048 1.2Zm-.16-6.384c1.104 0 1.84.64 2.064 1.568.048.224.08.592.096 1.024 0 .048-.032.08-.08.08h-4.112c-.048 0-.08-.032-.08-.08.016-.464.048-.832.128-1.088.208-.88.896-1.504 1.984-1.504Zm11.814 7.36c1.568 0 2.816-.848 3.136-2.08.032-.112.048-.208.064-.272.016-.144-.064-.224-.192-.24l-.688-.112c-.128-.016-.224.032-.24.176l-.016.016c0 .016 0 .048-.016.08-.176.816-.976 1.44-2.048 1.44-1.088 0-1.824-.64-2.032-1.568-.08-.32-.144-.848-.144-1.632 0-.72.064-1.28.144-1.616.208-.912.944-1.552 2.032-1.552 1.104 0 1.888.672 2.064 1.456.016.064.032.128.032.192.032.144.112.192.24.176l.704-.08c.128-.016.208-.096.192-.24a3.113 3.113 0 0 0-.096-.432c-.32-1.136-1.52-2.064-3.136-2.064-1.552 0-2.72.88-3.104 2.192-.128.496-.208 1.072-.208 1.952 0 .816.048 1.44.208 1.984.4 1.344 1.536 2.224 3.104 2.224Zm8.314 0c1.52 0 2.688-.848 3.104-2.224.16-.528.224-1.2.224-1.968 0-.752-.064-1.424-.224-1.968-.4-1.344-1.568-2.192-3.104-2.192-1.584 0-2.736.848-3.152 2.208-.144.512-.208 1.168-.208 1.952 0 .768.064 1.44.224 1.968.416 1.376 1.568 2.224 3.136 2.224Zm0-.992c-1.072 0-1.84-.608-2.08-1.568-.096-.352-.128-.928-.128-1.616 0-.672.032-1.264.128-1.616.256-.944 1.008-1.568 2.048-1.568 1.072 0 1.84.624 2.08 1.568.096.352.128.912.128 1.616 0 .64-.032 1.232-.128 1.616-.256.96-1.024 1.568-2.048 1.568Zm8.286.944c1.808 0 2.976-.912 2.976-2.288 0-1.584-1.552-2.016-2.912-2.4-1.088-.32-1.952-.608-1.952-1.408 0-.768.736-1.232 1.808-1.232 1.2 0 1.92.576 1.92 1.28v.096c0 .064.08.112.208.112h.656c.128 0 .208-.08.208-.208 0-1.264-1.184-2.208-2.976-2.208-1.728 0-2.928.864-2.928 2.24 0 1.52 1.472 1.984 2.848 2.384 1.056.32 1.984.56 1.984 1.424 0 .752-.736 1.328-1.856 1.328-1.152 0-1.92-.64-1.92-1.312v-.144c0-.08-.08-.144-.208-.144h-.688c-.128 0-.208.08-.208.208v.144c0 1.168 1.2 2.128 3.04 2.128Zm8.679-7.44v-.528c0-.128-.08-.208-.208-.208h-1.744c-.048 0-.08-.032-.08-.08v-1.792c0-.128-.08-.208-.208-.208h-.688c-.128 0-.208.08-.208.208v1.792c0 .048-.032.08-.08.08h-.912c-.128 0-.208.08-.208.208v.528c0 .128.08.208.208.208h.912c.048 0 .08.032.08.08v5.024c0 1.664.944 2.032 2.336 2.032h.544c.144-.016.208-.096.208-.224v-.56c0-.128-.08-.208-.208-.208h-.352c-.96 0-1.424-.352-1.424-1.392v-4.672c0-.048.032-.08.08-.08h1.744c.128 0 .208-.08.208-.208Zm8.2-.864c-1.648 0-2.832.8-3.04 1.968-.016.112.064.16.192.176l.784.096c.128.016.208-.032.24-.16.176-.672.832-1.088 1.84-1.088 1.328 0 1.872.72 1.872 1.76v.592c0 .048-.032.08-.08.08h-1.856c-2.08 0-3.296.992-3.296 2.592 0 1.68 1.28 2.336 2.64 2.336 1.008 0 1.904-.32 2.496-.944.048-.064.096-.032.096.032v.576c0 .128.08.208.208.208h.72c.128 0 .208-.08.208-.208v-5.328c0-1.584-1.072-2.688-3.024-2.688Zm-.448 7.376c-.976 0-1.76-.448-1.76-1.424 0-1.04.944-1.632 2.336-1.632h1.68c.048 0 .08.032.08.08v1.232c0 1.12-1.152 1.744-2.336 1.744Zm9.18-7.36c-.928 0-1.68.32-2.144.96-.032.064-.08.016-.08-.048v-.592c0-.128-.08-.208-.208-.208h-.72c-.128 0-.208.08-.208.208v7.68c0 .128.08.208.208.208h.72c.128 0 .208-.08.208-.208v-5.328c.112-1.008.88-1.68 1.968-1.68 1.136 0 1.904.816 1.904 2v5.008c0 .128.08.208.208.208h.72c.128 0 .208-.08.208-.208v-5.232c0-1.68-1.104-2.768-2.784-2.768Zm10.241-2.784v3.696c0 .064-.048.096-.096.032-.464-.608-1.184-.96-2.032-.96-1.552 0-2.576.864-2.96 2.192-.16.544-.192 1.2-.192 1.984 0 .816.048 1.472.224 2.032.384 1.296 1.408 2.144 2.928 2.144.848 0 1.568-.352 2.032-.976.048-.048.096-.032.096.032v.608c0 .128.08.208.208.208h.72c.128 0 .208-.08.208-.208v-10.784c0-.128-.08-.208-.208-.208h-.72c-.128 0-.208.08-.208.208Zm-.304 8.896c-.256.72-.832 1.232-1.712 1.232-.896 0-1.584-.48-1.84-1.248-.192-.432-.289-.896-.289-1.936 0-1.104.129-1.584.369-2.016.272-.688.912-1.168 1.776-1.168.848 0 1.424.496 1.68 1.2.192.432.288.912.288 1.984 0 1.056-.08 1.536-.272 1.952Zm10.259 2.224c1.568 0 2.816-.848 3.136-2.08.032-.112.048-.208.064-.272.016-.144-.064-.224-.192-.24l-.688-.112c-.128-.016-.224.032-.24.176l-.016.016c0 .016 0 .048-.016.08-.176.816-.976 1.44-2.048 1.44-1.088 0-1.824-.64-2.032-1.568-.08-.32-.144-.848-.144-1.632 0-.72.064-1.28.144-1.616.208-.912.944-1.552 2.032-1.552 1.104 0 1.888.672 2.064 1.456a.803.803 0 0 1 .032.192c.032.144.112.192.24.176l.704-.08c.128-.016.208-.096.192-.24a3.113 3.113 0 0 0-.096-.432c-.32-1.136-1.52-2.064-3.136-2.064-1.552 0-2.72.88-3.104 2.192-.128.496-.208 1.072-.208 1.952 0 .816.048 1.44.208 1.984.4 1.344 1.536 2.224 3.104 2.224Zm8.313 0c1.52 0 2.688-.848 3.104-2.224.16-.528.224-1.2.224-1.968 0-.752-.064-1.424-.224-1.968-.4-1.344-1.568-2.192-3.104-2.192-1.584 0-2.736.848-3.152 2.208-.144.512-.208 1.168-.208 1.952 0 .768.064 1.44.224 1.968.416 1.376 1.568 2.224 3.136 2.224Zm0-.992c-1.072 0-1.84-.608-2.08-1.568-.096-.352-.128-.928-.128-1.616 0-.672.032-1.264.128-1.616.256-.944 1.008-1.568 2.048-1.568 1.072 0 1.84.624 2.08 1.568.096.352.128.912.128 1.616 0 .64-.032 1.232-.128 1.616-.256.96-1.024 1.568-2.048 1.568Zm8.737-9.344h.32c.128 0 .208-.08.208-.208v-.576c0-.128-.08-.208-.208-.208h-.416c-1.984 0-2.544.752-2.544 2.656v.368c0 .048-.032.08-.08.08h-1.008c-.128 0-.208.08-.208.208v.624c0 .128.08.208.208.208h1.008c.048 0 .08.032.08.08v6.768c0 .128.08.208.208.208h.704c.128 0 .208-.08.208-.208v-6.768c0-.048.032-.08.08-.08h1.728c.128 0 .208-.08.208-.208v-.624c0-.128-.08-.208-.208-.208h-1.728c-.048 0-.08-.032-.08-.08v-.304c0-1.216.304-1.728 1.52-1.728Zm5.703 0h.32c.128 0 .208-.08.208-.208v-.576c0-.128-.08-.208-.208-.208h-.416c-1.984 0-2.544.752-2.544 2.656v.368c0 .048-.032.08-.08.08h-1.008c-.128 0-.208.08-.208.208v.624c0 .128.08.208.208.208h1.008c.048 0 .08.032.08.08v6.768c0 .128.08.208.208.208h.704c.128 0 .208-.08.208-.208v-6.768c0-.048.032-.08.08-.08h1.728c.128 0 .208-.08.208-.208v-.624c0-.128-.08-.208-.208-.208h-1.728c-.048 0-.08-.032-.08-.08v-.304c0-1.216.304-1.728 1.52-1.728Zm4.905 9.36c-1.168 0-1.952-.64-2.176-1.568-.064-.24-.096-.64-.096-1.168 0-.048.032-.08.08-.08h5.12c.128 0 .208-.08.208-.208 0-.752-.016-1.168-.096-1.6-.288-1.68-1.296-2.752-3.2-2.752-1.584 0-2.736.912-3.088 2.288-.128.496-.144 1.04-.144 1.856 0 .896.08 1.616.304 2.208.432 1.232 1.472 2 2.992 2 1.44 0 2.48-.704 2.976-1.744.064-.112.016-.208-.096-.272l-.464-.256c-.112-.064-.224-.016-.272.096-.368.72-1.056 1.184-2.048 1.2Zm-.16-6.384c1.104 0 1.84.64 2.064 1.568.048.224.08.592.096 1.024 0 .048-.032.08-.08.08h-4.112c-.048 0-.08-.032-.08-.08.016-.464.048-.832.128-1.088.208-.88.896-1.504 1.984-1.504Zm8.707 6.384c-1.168 0-1.952-.64-2.176-1.568-.064-.24-.096-.64-.096-1.168 0-.048.032-.08.08-.08h5.12c.128 0 .208-.08.208-.208 0-.752-.016-1.168-.096-1.6-.288-1.68-1.296-2.752-3.2-2.752-1.584 0-2.736.912-3.088 2.288-.128.496-.144 1.04-.144 1.856 0 .896.08 1.616.304 2.208.432 1.232 1.472 2 2.992 2 1.44 0 2.48-.704 2.976-1.744.064-.112.016-.208-.096-.272l-.464-.256c-.112-.064-.224-.016-.272.096-.368.72-1.056 1.184-2.048 1.2Zm-.16-6.384c1.104 0 1.84.64 2.064 1.568.048.224.08.592.096 1.024 0 .048-.032.08-.08.08h-4.112c-.048 0-.08-.032-.08-.08.016-.464.048-.832.128-1.088.208-.88.896-1.504 1.984-1.504Zm9.446-2.32c.512 0 .864-.336.864-.832 0-.48-.352-.816-.864-.816s-.864.336-.864.816c0 .496.352.832.864.832Zm-.352 9.552h.72c.128 0 .208-.08.208-.208v-7.68c0-.128-.08-.208-.208-.208h-.72c-.128 0-.208.08-.208.208v7.68c0 .128.08.208.208.208Zm6.242.08c1.808 0 2.976-.912 2.976-2.288 0-1.584-1.552-2.016-2.912-2.4-1.088-.32-1.952-.608-1.952-1.408 0-.768.736-1.232 1.808-1.232 1.2 0 1.92.576 1.92 1.28v.096c0 .064.08.112.208.112h.656c.128 0 .208-.08.208-.208 0-1.264-1.184-2.208-2.976-2.208-1.728 0-2.928.864-2.928 2.24 0 1.52 1.472 1.984 2.848 2.384 1.056.32 1.984.56 1.984 1.424 0 .752-.736 1.328-1.856 1.328-1.152 0-1.92-.64-1.92-1.312v-.144c0-.08-.08-.144-.208-.144h-.688c-.128 0-.208.08-.208.208v.144c0 1.168 1.2 2.128 3.04 2.128ZM74.31 290.008v3.696c0 .064-.047.096-.095.032-.464-.608-1.184-.96-2.032-.96-1.552 0-2.576.864-2.96 2.192-.16.544-.192 1.2-.192 1.984 0 .816.048 1.472.224 2.032.384 1.296 1.408 2.144 2.928 2.144.848 0 1.568-.352 2.032-.976.048-.048.096-.032.096.032v.608c0 .128.08.208.208.208h.72c.128 0 .208-.08.208-.208v-10.784c0-.128-.08-.208-.208-.208h-.72c-.128 0-.208.08-.208.208Zm-.303 8.896c-.256.72-.832 1.232-1.712 1.232-.896 0-1.584-.48-1.84-1.248-.192-.432-.288-.896-.288-1.936 0-1.104.128-1.584.368-2.016.272-.688.912-1.168 1.776-1.168.848 0 1.424.496 1.68 1.2.192.432.288.912.288 1.984 0 1.056-.08 1.536-.272 1.952Zm7.152 1.248c-1.168 0-1.952-.64-2.176-1.568-.064-.24-.096-.64-.096-1.168 0-.048.032-.08.08-.08h5.12c.128 0 .208-.08.208-.208 0-.752-.016-1.168-.096-1.6-.288-1.68-1.296-2.752-3.2-2.752-1.584 0-2.736.912-3.088 2.288-.128.496-.144 1.04-.144 1.856 0 .896.08 1.616.304 2.208.432 1.232 1.472 2 2.992 2 1.44 0 2.48-.704 2.976-1.744.064-.112.016-.208-.096-.272l-.464-.256c-.112-.064-.224-.016-.272.096-.368.72-1.056 1.184-2.048 1.2Zm-.16-6.384c1.104 0 1.84.64 2.064 1.568.048.224.08.592.096 1.024 0 .048-.032.08-.08.08h-4.112c-.048 0-.08-.032-.08-.08.016-.464.048-.832.128-1.088.208-.88.896-1.504 1.984-1.504ZM86.76 301h.72c.128 0 .208-.08.208-.208v-10.784c0-.128-.08-.208-.208-.208h-.72c-.128 0-.208.08-.208.208v10.784c0 .128.08.208.208.208Zm4.2-9.552c.511 0 .863-.336.863-.832 0-.48-.352-.816-.864-.816s-.864.336-.864.816c0 .496.352.832.864.832ZM90.607 301h.72c.128 0 .208-.08.208-.208v-7.68c0-.128-.08-.208-.208-.208h-.72c-.128 0-.208.08-.208.208v7.68c0 .128.08.208.208.208Zm5.682 0h.864a.24.24 0 0 0 .24-.176l2.576-7.664c.048-.144-.016-.24-.16-.24l-.816-.016c-.112 0-.192.048-.224.176l-2 6.224c-.016.08-.08.08-.096 0l-2-6.224c-.032-.128-.112-.176-.224-.176h-.816c-.144 0-.224.096-.176.24l2.592 7.68a.24.24 0 0 0 .24.176Zm8.384-.848c-1.168 0-1.952-.64-2.176-1.568-.064-.24-.096-.64-.096-1.168 0-.048.032-.08.08-.08h5.12c.128 0 .208-.08.208-.208 0-.752-.016-1.168-.096-1.6-.288-1.68-1.296-2.752-3.2-2.752-1.584 0-2.736.912-3.088 2.288-.128.496-.144 1.04-.144 1.856 0 .896.08 1.616.304 2.208.432 1.232 1.472 2 2.992 2 1.44 0 2.48-.704 2.976-1.744.064-.112.016-.208-.096-.272l-.464-.256c-.112-.064-.224-.016-.272.096-.368.72-1.056 1.184-2.048 1.2Zm-.16-6.384c1.104 0 1.84.64 2.064 1.568.048.224.08.592.096 1.024 0 .048-.032.08-.08.08h-4.112c-.048 0-.08-.032-.08-.08.016-.464.048-.832.128-1.088.208-.88.896-1.504 1.984-1.504Zm8.819-.944c-.928 0-1.616.48-2.048 1.216-.032.064-.08.048-.08-.032v-.896c0-.128-.08-.208-.208-.208h-.72c-.128 0-.208.08-.208.208v7.68c0 .128.08.208.208.208h.72c.128 0 .208-.08.208-.208v-4.672c0-1.2.816-2.064 1.92-2.096.336-.016.592.016.784.08.144.048.224 0 .256-.128l.16-.704c.032-.112 0-.208-.112-.256-.208-.112-.48-.192-.88-.192Zm5.638 7.328c-1.168 0-1.952-.64-2.176-1.568-.064-.24-.096-.64-.096-1.168 0-.048.032-.08.08-.08h5.12c.128 0 .208-.08.208-.208 0-.752-.016-1.168-.096-1.6-.288-1.68-1.296-2.752-3.2-2.752-1.584 0-2.736.912-3.088 2.288-.128.496-.144 1.04-.144 1.856 0 .896.08 1.616.304 2.208.432 1.232 1.472 2 2.992 2 1.44 0 2.48-.704 2.976-1.744.064-.112.016-.208-.096-.272l-.464-.256c-.112-.064-.224-.016-.272.096-.368.72-1.056 1.184-2.048 1.2Zm-.16-6.384c1.104 0 1.84.64 2.064 1.568.048.224.08.592.096 1.024 0 .048-.032.08-.08.08h-4.112c-.048 0-.08-.032-.08-.08.016-.464.048-.832.128-1.088.208-.88.896-1.504 1.984-1.504Zm10.531-3.76v3.696c0 .064-.048.096-.096.032-.464-.608-1.184-.96-2.032-.96-1.552 0-2.576.864-2.96 2.192-.16.544-.192 1.2-.192 1.984 0 .816.048 1.472.224 2.032.384 1.296 1.408 2.144 2.928 2.144.848 0 1.568-.352 2.032-.976.048-.048.096-.032.096.032v.608c0 .128.08.208.208.208h.72c.128 0 .208-.08.208-.208v-10.784c0-.128-.08-.208-.208-.208h-.72c-.128 0-.208.08-.208.208Zm-.304 8.896c-.256.72-.832 1.232-1.712 1.232-.896 0-1.584-.48-1.84-1.248-.192-.432-.288-.896-.288-1.936 0-1.104.128-1.584.368-2.016.272-.688.912-1.168 1.776-1.168.848 0 1.424.496 1.68 1.2.192.432.288.912.288 1.984 0 1.056-.08 1.536-.272 1.952Zm10.403-8.112h.32c.128 0 .208-.08.208-.208v-.576c0-.128-.08-.208-.208-.208h-.416c-1.984 0-2.544.752-2.544 2.656v.368c0 .048-.032.08-.08.08h-1.008c-.128 0-.208.08-.208.208v.624c0 .128.08.208.208.208h1.008c.048 0 .08.032.08.08v6.768c0 .128.08.208.208.208h.704c.128 0 .208-.08.208-.208v-6.768c0-.048.032-.08.08-.08h1.728c.128 0 .208-.08.208-.208v-.624c0-.128-.08-.208-.208-.208h-1.728c-.048 0-.08-.032-.08-.08v-.304c0-1.216.304-1.728 1.52-1.728Zm5.022 1.984c-1.648 0-2.832.8-3.04 1.968-.016.112.064.16.192.176l.784.096c.128.016.208-.032.24-.16.176-.672.832-1.088 1.84-1.088 1.328 0 1.872.72 1.872 1.76v.592c0 .048-.032.08-.08.08h-1.856c-2.08 0-3.296.992-3.296 2.592 0 1.68 1.28 2.336 2.64 2.336 1.008 0 1.904-.32 2.496-.944.048-.064.096-.032.096.032v.576c0 .128.08.208.208.208h.72c.128 0 .208-.08.208-.208v-5.328c0-1.584-1.072-2.688-3.024-2.688Zm-.448 7.376c-.976 0-1.76-.448-1.76-1.424 0-1.04.944-1.632 2.336-1.632h1.68c.048 0 .08.032.08.08v1.232c0 1.12-1.152 1.744-2.336 1.744Zm8.476.928c1.808 0 2.976-.912 2.976-2.288 0-1.584-1.552-2.016-2.912-2.4-1.088-.32-1.952-.608-1.952-1.408 0-.768.736-1.232 1.808-1.232 1.2 0 1.92.576 1.92 1.28v.096c0 .064.08.112.208.112h.656c.128 0 .208-.08.208-.208 0-1.264-1.184-2.208-2.976-2.208-1.728 0-2.928.864-2.928 2.24 0 1.52 1.472 1.984 2.848 2.384 1.056.32 1.984.56 1.984 1.424 0 .752-.736 1.328-1.856 1.328-1.152 0-1.92-.64-1.92-1.312v-.144c0-.08-.08-.144-.208-.144h-.688c-.128 0-.208.08-.208.208v.144c0 1.168 1.2 2.128 3.04 2.128Zm8.679-7.44v-.528c0-.128-.08-.208-.208-.208h-1.744c-.048 0-.08-.032-.08-.08v-1.792c0-.128-.08-.208-.208-.208h-.688c-.128 0-.208.08-.208.208v1.792c0 .048-.032.08-.08.08h-.912c-.128 0-.208.08-.208.208v.528c0 .128.08.208.208.208h.912c.048 0 .08.032.08.08v5.024c0 1.664.944 2.032 2.336 2.032h.544c.144-.016.208-.096.208-.224v-.56c0-.128-.08-.208-.208-.208h-.352c-.96 0-1.424-.352-1.424-1.392v-4.672c0-.048.032-.08.08-.08h1.744c.128 0 .208-.08.208-.208Zm3.076 7.312c.544 0 .992-.416.992-.944s-.48-.944-.992-.944c-.528 0-.992.416-.992.944s.416.944.992.944Zm11.194-11.168h-4.16c-.128 0-.208.08-.208.208v10.8c0 .128.08.208.208.208h.72c.128 0 .208-.08.208-.208v-4.704c0-.048.032-.08.08-.08h3.104c1.904 0 3.168-1.232 3.168-3.088 0-1.888-1.248-3.136-3.12-3.136Zm-.128 5.28h-3.024c-.048 0-.08-.032-.08-.08v-4.128c0-.048.032-.08.08-.08h3.024c1.264 0 2.128.864 2.128 2.16 0 1.28-.864 2.128-2.128 2.128Zm7.987 5.088c-1.168 0-1.952-.64-2.176-1.568-.064-.24-.096-.64-.096-1.168 0-.048.032-.08.08-.08h5.12c.128 0 .208-.08.208-.208 0-.752-.016-1.168-.096-1.6-.288-1.68-1.296-2.752-3.2-2.752-1.584 0-2.736.912-3.088 2.288-.128.496-.144 1.04-.144 1.856 0 .896.08 1.616.304 2.208.432 1.232 1.472 2 2.992 2 1.44 0 2.48-.704 2.976-1.744.064-.112.016-.208-.096-.272l-.464-.256c-.112-.064-.224-.016-.272.096-.368.72-1.056 1.184-2.048 1.2Zm-.16-6.384c1.104 0 1.84.64 2.064 1.568.048.224.08.592.096 1.024 0 .048-.032.08-.08.08h-4.112c-.048 0-.08-.032-.08-.08.016-.464.048-.832.128-1.088.208-.88.896-1.504 1.984-1.504Zm8.355-.992c-1.648 0-2.832.8-3.04 1.968-.016.112.064.16.192.176l.784.096c.128.016.208-.032.24-.16.176-.672.832-1.088 1.84-1.088 1.328 0 1.872.72 1.872 1.76v.592c0 .048-.032.08-.08.08h-1.856c-2.08 0-3.296.992-3.296 2.592 0 1.68 1.28 2.336 2.64 2.336 1.008 0 1.904-.32 2.496-.944.048-.064.096-.032.096.032v.576c0 .128.08.208.208.208h.72c.128 0 .208-.08.208-.208v-5.328c0-1.584-1.072-2.688-3.024-2.688Zm-.448 7.376c-.976 0-1.76-.448-1.76-1.424 0-1.04.944-1.632 2.336-1.632h1.68c.048 0 .08.032.08.08v1.232c0 1.12-1.152 1.744-2.336 1.744Zm6.028.848h.72c.128 0 .208-.08.208-.208v-2.656c0-.032.016-.08.032-.112l1.744-1.824c.032-.032.096-.032.112.016l2.032 4.624c.048.096.128.16.24.16h.752c.16 0 .224-.096.16-.24l-2.4-5.296a.099.099 0 0 1 .016-.112l1.984-2.192c.112-.128.048-.256-.128-.256h-.848a.318.318 0 0 0-.256.112l-3.344 3.504c-.048.064-.096.016-.096-.048v-6.464c0-.128-.08-.208-.208-.208h-.72c-.128 0-.208.08-.208.208v10.784c0 .128.08.208.208.208Zm14.211-10.208h.32c.128 0 .208-.08.208-.208v-.576c0-.128-.08-.208-.208-.208h-.416c-1.984 0-2.544.752-2.544 2.656v.368c0 .048-.032.08-.08.08h-1.008c-.128 0-.208.08-.208.208v.624c0 .128.08.208.208.208h1.008c.048 0 .08.032.08.08v6.768c0 .128.08.208.208.208h.704c.128 0 .208-.08.208-.208v-6.768c0-.048.032-.08.08-.08h1.728c.128 0 .208-.08.208-.208v-.624c0-.128-.08-.208-.208-.208h-1.728c-.048 0-.08-.032-.08-.08v-.304c0-1.216.304-1.728 1.52-1.728Zm5.767 2.032c-.928 0-1.616.48-2.048 1.216-.032.064-.08.048-.08-.032v-.896c0-.128-.08-.208-.208-.208h-.72c-.128 0-.208.08-.208.208v7.68c0 .128.08.208.208.208h.72c.128 0 .208-.08.208-.208v-4.672c0-1.2.816-2.064 1.92-2.096.336-.016.592.016.784.08.144.048.224 0 .256-.128l.16-.704c.032-.112 0-.208-.112-.256-.208-.112-.48-.192-.88-.192Zm5.638 7.328c-1.168 0-1.952-.64-2.176-1.568-.064-.24-.096-.64-.096-1.168 0-.048.032-.08.08-.08h5.12c.128 0 .208-.08.208-.208 0-.752-.016-1.168-.096-1.6-.288-1.68-1.296-2.752-3.2-2.752-1.584 0-2.736.912-3.088 2.288-.128.496-.144 1.04-.144 1.856 0 .896.08 1.616.304 2.208.432 1.232 1.472 2 2.992 2 1.44 0 2.48-.704 2.976-1.744.064-.112.016-.208-.096-.272l-.464-.256c-.112-.064-.224-.016-.272.096-.368.72-1.056 1.184-2.048 1.2Zm-.16-6.384c1.104 0 1.84.64 2.064 1.568.048.224.08.592.096 1.024 0 .048-.032.08-.08.08h-4.112c-.048 0-.08-.032-.08-.08.016-.464.048-.832.128-1.088.208-.88.896-1.504 1.984-1.504Zm8.211 7.312c1.808 0 2.976-.912 2.976-2.288 0-1.584-1.552-2.016-2.912-2.4-1.088-.32-1.952-.608-1.952-1.408 0-.768.736-1.232 1.808-1.232 1.2 0 1.92.576 1.92 1.28v.096c0 .064.08.112.208.112h.656c.128 0 .208-.08.208-.208 0-1.264-1.184-2.208-2.976-2.208-1.728 0-2.928.864-2.928 2.24 0 1.52 1.472 1.984 2.848 2.384 1.056.32 1.984.56 1.984 1.424 0 .752-.736 1.328-1.856 1.328-1.152 0-1.92-.64-1.92-1.312v-.144c0-.08-.08-.144-.208-.144h-.688c-.128 0-.208.08-.208.208v.144c0 1.168 1.2 2.128 3.04 2.128Zm8.422-8.288c-.928 0-1.68.32-2.144.96-.032.064-.08.016-.08-.048v-3.696c0-.128-.08-.208-.208-.208h-.72c-.128 0-.208.08-.208.208v10.784c0 .128.08.208.208.208h.72c.128 0 .208-.08.208-.208v-5.328c.112-1.008.88-1.68 1.968-1.68 1.136 0 1.904.816 1.904 2v5.008c0 .128.08.208.208.208h.72c.128 0 .208-.08.208-.208v-5.232c0-1.68-1.104-2.768-2.784-2.768Zm8.625 0c-.928 0-1.68.32-2.144.96-.032.064-.08.016-.08-.048v-.592c0-.128-.08-.208-.208-.208h-.72c-.128 0-.208.08-.208.208v7.68c0 .128.08.208.208.208h.72c.128 0 .208-.08.208-.208v-5.328c.112-1.008.88-1.68 1.968-1.68 1.136 0 1.904.816 1.904 2v5.008c0 .128.08.208.208.208h.72c.128 0 .208-.08.208-.208v-5.232c0-1.68-1.104-2.768-2.784-2.768Zm8.417 7.36c-1.168 0-1.952-.64-2.176-1.568-.064-.24-.096-.64-.096-1.168 0-.048.032-.08.08-.08h5.12c.128 0 .208-.08.208-.208 0-.752-.016-1.168-.096-1.6-.288-1.68-1.296-2.752-3.2-2.752-1.584 0-2.736.912-3.088 2.288-.128.496-.144 1.04-.144 1.856 0 .896.08 1.616.304 2.208.432 1.232 1.472 2 2.992 2 1.44 0 2.48-.704 2.976-1.744.064-.112.016-.208-.096-.272l-.464-.256c-.112-.064-.224-.016-.272.096-.368.72-1.056 1.184-2.048 1.2Zm-.16-6.384c1.104 0 1.84.64 2.064 1.568.048.224.08.592.096 1.024 0 .048-.032.08-.08.08h-4.112c-.048 0-.08-.032-.08-.08.016-.464.048-.832.128-1.088.208-.88.896-1.504 1.984-1.504Zm8.211 7.312c1.808 0 2.976-.912 2.976-2.288 0-1.584-1.552-2.016-2.912-2.4-1.088-.32-1.952-.608-1.952-1.408 0-.768.736-1.232 1.808-1.232 1.2 0 1.92.576 1.92 1.28v.096c0 .064.08.112.208.112h.656c.128 0 .208-.08.208-.208 0-1.264-1.184-2.208-2.976-2.208-1.728 0-2.928.864-2.928 2.24 0 1.52 1.472 1.984 2.848 2.384 1.056.32 1.984.56 1.984 1.424 0 .752-.736 1.328-1.856 1.328-1.152 0-1.92-.64-1.92-1.312v-.144c0-.08-.08-.144-.208-.144h-.688c-.128 0-.208.08-.208.208v.144c0 1.168 1.2 2.128 3.04 2.128Zm7.485 0c1.808 0 2.976-.912 2.976-2.288 0-1.584-1.552-2.016-2.912-2.4-1.088-.32-1.952-.608-1.952-1.408 0-.768.736-1.232 1.808-1.232 1.2 0 1.92.576 1.92 1.28v.096c0 .064.08.112.208.112h.656c.128 0 .208-.08.208-.208 0-1.264-1.184-2.208-2.976-2.208-1.728 0-2.928.864-2.928 2.24 0 1.52 1.472 1.984 2.848 2.384 1.056.32 1.984.56 1.984 1.424 0 .752-.736 1.328-1.856 1.328-1.152 0-1.92-.64-1.92-1.312v-.144c0-.08-.08-.144-.208-.144h-.688c-.128 0-.208.08-.208.208v.144c0 1.168 1.2 2.128 3.04 2.128Zm6.486-5.696c.56 0 1.008-.416 1.008-.944s-.48-.944-1.008-.944c-.512 0-.976.416-.976.944s.416.944.976.944Zm0 5.392c.56 0 1.008-.432 1.008-.96s-.48-.944-1.008-.944c-.512 0-.976.416-.976.944s.416.96.976.96Zm-139.174 18.336v.544c0 .064-.048.096-.096.032-.464-.56-1.168-.912-2.144-.912-1.44 0-2.48.88-2.848 2.128-.176.544-.208 1.216-.208 2.048 0 .784.048 1.456.192 1.952.384 1.408 1.6 2.144 2.928 2.144.992 0 1.648-.384 2.08-.944.048-.064.096-.032.096.032v.56c0 1.792-.96 2.512-3.216 2.416-.128-.016-.208.048-.208.192l-.032.64c0 .144.064.208.208.224 2.512.144 4.384-.736 4.384-3.44v-7.616c0-.128-.08-.208-.208-.208h-.72c-.128 0-.208.08-.208.208Zm-.08 5.44c-.16.832-.816 1.536-1.92 1.536-1.056 0-1.792-.688-2-1.552-.08-.224-.16-.736-.16-1.616 0-.864.064-1.296.16-1.6.256-.864.944-1.552 2-1.552s1.744.688 1.904 1.552c.08.32.096.512.096 1.616s-.016 1.312-.08 1.616Zm8.547-5.44v5.024c0 1.184-.768 1.984-1.984 1.984-1.184 0-1.904-.784-1.904-1.984v-5.024c0-.128-.08-.208-.208-.208h-.72c-.128 0-.208.08-.208.208v5.36c0 1.712 1.296 2.64 2.816 2.64.976 0 1.68-.352 2.112-.96.048-.064.096-.032.096.032v.608c0 .128.08.208.208.208h.72c.128 0 .208-.08.208-.208v-7.68c0-.128-.08-.208-.208-.208h-.72c-.128 0-.208.08-.208.208Zm6.482-.336c-1.648 0-2.832.8-3.04 1.968-.016.112.064.16.192.176l.784.096c.128.016.208-.032.24-.16.176-.672.832-1.088 1.84-1.088 1.328 0 1.872.72 1.872 1.76v.592c0 .048-.032.08-.08.08h-1.856c-2.08 0-3.296.992-3.296 2.592 0 1.68 1.28 2.336 2.64 2.336 1.008 0 1.904-.32 2.496-.944.048-.064.096-.032.096.032v.576c0 .128.08.208.208.208h.72c.128 0 .208-.08.208-.208v-5.328c0-1.584-1.072-2.688-3.024-2.688Zm-.448 7.376c-.976 0-1.76-.448-1.76-1.424 0-1.04.944-1.632 2.336-1.632h1.68c.048 0 .08.032.08.08v1.232c0 1.12-1.152 1.744-2.336 1.744Zm9.084-7.328c-.928 0-1.616.48-2.048 1.216-.032.064-.08.048-.08-.032v-.896c0-.128-.08-.208-.208-.208h-.72c-.128 0-.208.08-.208.208v7.68c0 .128.08.208.208.208h.72c.128 0 .208-.08.208-.208v-4.672c0-1.2.816-2.064 1.92-2.096.336-.016.592.016.784.08.144.048.224 0 .256-.128l.16-.704c.032-.112 0-.208-.112-.256-.208-.112-.48-.192-.88-.192Zm5.333-.048c-1.648 0-2.832.8-3.04 1.968-.016.112.064.16.192.176l.784.096c.128.016.208-.032.24-.16.176-.672.832-1.088 1.84-1.088 1.328 0 1.872.72 1.872 1.76v.592c0 .048-.032.08-.08.08h-1.856c-2.08 0-3.296.992-3.296 2.592 0 1.68 1.28 2.336 2.64 2.336 1.008 0 1.904-.32 2.496-.944.048-.064.096-.032.096.032v.576c0 .128.08.208.208.208h.72c.128 0 .208-.08.208-.208v-5.328c0-1.584-1.072-2.688-3.024-2.688Zm-.448 7.376c-.976 0-1.76-.448-1.76-1.424 0-1.04.944-1.632 2.336-1.632h1.68c.048 0 .08.032.08.08v1.232c0 1.12-1.152 1.744-2.336 1.744Zm9.18-7.36c-.928 0-1.68.32-2.144.96-.032.064-.08.016-.08-.048v-.592c0-.128-.08-.208-.208-.208h-.72c-.128 0-.208.08-.208.208v7.68c0 .128.08.208.208.208h.72c.128 0 .208-.08.208-.208v-5.328c.112-1.008.88-1.68 1.968-1.68 1.136 0 1.904.816 1.904 2v5.008c0 .128.08.208.208.208h.72c.128 0 .208-.08.208-.208v-5.232c0-1.68-1.104-2.768-2.784-2.768Zm8.897.848v-.528c0-.128-.08-.208-.209-.208h-1.743c-.048 0-.08-.032-.08-.08v-1.792c0-.128-.08-.208-.208-.208h-.688c-.128 0-.208.08-.208.208v1.792c0 .048-.032.08-.08.08h-.912c-.128 0-.208.08-.208.208v.528c0 .128.08.208.208.208h.912c.048 0 .08.032.08.08v5.024c0 1.664.944 2.032 2.335 2.032h.545c.144-.016.208-.096.208-.224v-.56c0-.128-.08-.208-.208-.208h-.352c-.96 0-1.424-.352-1.424-1.392v-4.672c0-.048.032-.08.08-.08h1.743c.129 0 .209-.08.209-.208Zm5.113 6.512c-1.168 0-1.952-.64-2.176-1.568-.064-.24-.096-.64-.096-1.168 0-.048.032-.08.08-.08h5.12c.128 0 .208-.08.208-.208 0-.752-.016-1.168-.096-1.6-.288-1.68-1.296-2.752-3.2-2.752-1.584 0-2.736.912-3.088 2.288-.128.496-.144 1.04-.144 1.856 0 .896.08 1.616.304 2.208.432 1.232 1.472 2 2.992 2 1.44 0 2.48-.704 2.976-1.744.064-.112.016-.208-.096-.272l-.464-.256c-.112-.064-.224-.016-.272.096-.368.72-1.056 1.184-2.048 1.2Zm-.16-6.384c1.104 0 1.84.64 2.064 1.568.048.224.08.592.096 1.024 0 .048-.032.08-.08.08h-4.112c-.048 0-.08-.032-.08-.08.016-.464.048-.832.128-1.088.208-.88.896-1.504 1.984-1.504Zm8.707 6.384c-1.168 0-1.952-.64-2.176-1.568-.064-.24-.096-.64-.096-1.168 0-.048.032-.08.08-.08h5.12c.128 0 .208-.08.208-.208 0-.752-.016-1.168-.096-1.6-.288-1.68-1.296-2.752-3.2-2.752-1.584 0-2.736.912-3.088 2.288-.128.496-.144 1.04-.144 1.856 0 .896.08 1.616.304 2.208.432 1.232 1.472 2 2.992 2 1.44 0 2.48-.704 2.976-1.744.064-.112.016-.208-.096-.272l-.464-.256c-.112-.064-.224-.016-.272.096-.368.72-1.056 1.184-2.048 1.2Zm-.16-6.384c1.104 0 1.84.64 2.064 1.568.048.224.08.592.096 1.024 0 .048-.032.08-.08.08h-4.112c-.048 0-.08-.032-.08-.08.016-.464.048-.832.128-1.088.208-.88.896-1.504 1.984-1.504Zm10.531-3.76v3.696c0 .064-.048.096-.096.032-.464-.608-1.184-.96-2.032-.96-1.552 0-2.576.864-2.96 2.192-.16.544-.192 1.2-.192 1.984 0 .816.048 1.472.224 2.032.384 1.296 1.408 2.144 2.928 2.144.848 0 1.568-.352 2.032-.976.048-.048.096-.032.096.032v.608c0 .128.08.208.208.208h.72c.128 0 .208-.08.208-.208v-10.784c0-.128-.08-.208-.208-.208h-.72c-.128 0-.208.08-.208.208Zm-.304 8.896c-.256.72-.832 1.232-1.712 1.232-.896 0-1.584-.48-1.84-1.248-.192-.432-.288-.896-.288-1.936 0-1.104.128-1.584.368-2.016.272-.688.912-1.168 1.776-1.168.848 0 1.424.496 1.68 1.2.192.432.288.912.288 1.984 0 1.056-.08 1.536-.272 1.952Zm4.661 2.048c.544 0 .992-.416.992-.944s-.48-.944-.992-.944c-.528 0-.992.416-.992.944s.416.944.992.944Z"/></g><path fill="#FDD6BA" fill-rule="evenodd" d="M140.846 83H145v4.167h-4.154V83ZM136 102.444h4.154v4.167H136v-4.167Zm16.434-15.215h-3.307V83h35.335v35.397a10.496 10.496 0 0 0-3.652 7.659h-17.76c-.165-5.647-4.787-10.19-10.448-10.19-5.662 0-10.283 4.543-10.449 10.19H136V112.12h11.769a2.735 2.735 0 0 0 2.727-2.739 2.735 2.735 0 0 0-2.727-2.738h-3.424v-4.23h17.921a2.736 2.736 0 0 0 2.727-2.738 2.736 2.736 0 0 0-2.727-2.74H136v-4.228h16.602a2.735 2.735 0 0 0 2.726-2.739c0-1.459-1.352-2.739-2.894-2.739Zm32.72 39.521c0-3.446 2.795-6.25 6.231-6.25 3.435 0 6.23 2.804 6.23 6.25s-2.795 6.25-6.23 6.25c-3.436 0-6.231-2.804-6.231-6.25Zm4.13 2.107h4.201v-4.214h-4.201v4.214Zm-.669-40.996h8.447l9.553 14.583h-18V87.861Zm0 18.75v9.564a10.622 10.622 0 0 1 2.613-.326c5.72 0 10.389 4.551 10.556 10.207H208v-19.445h-19.385Zm-36 13.889c-3.435 0-6.23 2.804-6.23 6.25s2.795 6.25 6.23 6.25c3.436 0 6.231-2.804 6.231-6.25s-2.795-6.25-6.231-6.25Zm2.101 8.357h-4.201v-4.214h4.201v4.214Z" clip-rule="evenodd"/><defs><clipPath id="a"><path fill="#fff" d="M47 200h255v134H47z"/></clipPath></defs></svg>